G04 #@! TF.FileFunction,Copper,L1,Top,Signal*
%FSLAX46Y46*%
G04 Gerber Fmt 4.6, Leading zero omitted, Abs format (unit mm)*
G04 Created by KiCad (PCBNEW (2015-09-17 BZR 6202)-product) date Sunday, October 11, 2015 'PMt' 02:52:04 PM*
%MOMM*%
G01*
G04 APERTURE LIST*
%ADD10C,0.200000*%
%ADD11R,1.524000X1.524000*%
%ADD12C,1.524000*%
%ADD13C,2.750000*%
%ADD14R,1.727200X2.032000*%
%ADD15O,1.727200X2.032000*%
%ADD16R,2.032000X2.032000*%
%ADD17O,2.032000X2.032000*%
%ADD18R,1.500000X1.300000*%
%ADD19R,1.300000X1.500000*%
%ADD20C,1.879600*%
%ADD21R,0.800100X1.800860*%
%ADD22C,0.889000*%
%ADD23C,0.254000*%
%ADD24C,1.000000*%
G04 APERTURE END LIST*
D10*
D11*
X37370000Y-26270000D03*
D12*
X37370000Y-23730000D03*
X50070000Y-26270000D03*
X39910000Y-23730000D03*
X52610000Y-26270000D03*
X42450000Y-23730000D03*
X55150000Y-26270000D03*
X44990000Y-23730000D03*
X57690000Y-26270000D03*
X47530000Y-23730000D03*
X60230000Y-26270000D03*
X50070000Y-23730000D03*
X62770000Y-26270000D03*
X52610000Y-23730000D03*
X65310000Y-26270000D03*
X55150000Y-23730000D03*
X67850000Y-26270000D03*
X57690000Y-23730000D03*
X70390000Y-26270000D03*
X60230000Y-23730000D03*
X72930000Y-26270000D03*
X62770000Y-23730000D03*
X75470000Y-26270000D03*
X65310000Y-23730000D03*
X67850000Y-23730000D03*
X78010000Y-26270000D03*
X70390000Y-23730000D03*
X75470000Y-23730000D03*
X78010000Y-23730000D03*
X80550000Y-23730000D03*
X83090000Y-23730000D03*
X80550000Y-26270000D03*
X83090000Y-26270000D03*
X39910000Y-26270000D03*
X42450000Y-26270000D03*
X44990000Y-26270000D03*
X47530000Y-26270000D03*
X85630000Y-26270000D03*
X85630000Y-23730000D03*
X72930000Y-23730000D03*
D13*
X32500000Y-74000000D03*
X90500000Y-74000000D03*
X90500000Y-25000000D03*
X32500000Y-25000000D03*
D14*
X38100000Y-63500000D03*
D15*
X40640000Y-63500000D03*
X43180000Y-63500000D03*
X45720000Y-63500000D03*
D14*
X51435000Y-63500000D03*
D15*
X53975000Y-63500000D03*
X56515000Y-63500000D03*
X59055000Y-63500000D03*
D14*
X64770000Y-63500000D03*
D15*
X67310000Y-63500000D03*
X69850000Y-63500000D03*
X72390000Y-63500000D03*
D14*
X77470000Y-63500000D03*
D15*
X80010000Y-63500000D03*
X82550000Y-63500000D03*
X85090000Y-63500000D03*
D16*
X44450000Y-45720000D03*
D17*
X44450000Y-43180000D03*
D18*
X41990000Y-50165000D03*
X39290000Y-50165000D03*
X55325000Y-50165000D03*
X52625000Y-50165000D03*
X68660000Y-50165000D03*
X65960000Y-50165000D03*
X81360000Y-50165000D03*
X78660000Y-50165000D03*
D19*
X46355000Y-59135000D03*
X46355000Y-56435000D03*
X59690000Y-59135000D03*
X59690000Y-56435000D03*
X73025000Y-59135000D03*
X73025000Y-56435000D03*
X85725000Y-59135000D03*
X85725000Y-56435000D03*
D20*
X39293800Y-30759400D03*
X45796200Y-30759400D03*
X39293800Y-35280600D03*
X45796200Y-35280600D03*
X52628800Y-30759400D03*
X59131200Y-30759400D03*
X52628800Y-35280600D03*
X59131200Y-35280600D03*
X65328800Y-30759400D03*
X71831200Y-30759400D03*
X65328800Y-35280600D03*
X71831200Y-35280600D03*
X78028800Y-30759400D03*
X84531200Y-30759400D03*
X78028800Y-35280600D03*
X84531200Y-35280600D03*
D21*
X80960000Y-53108860D03*
X79060000Y-53108860D03*
X80010000Y-56111140D03*
X68260000Y-53108860D03*
X66360000Y-53108860D03*
X67310000Y-56111140D03*
X54925000Y-53108860D03*
X53025000Y-53108860D03*
X53975000Y-56111140D03*
X41590000Y-53108860D03*
X39690000Y-53108860D03*
X40640000Y-56111140D03*
D18*
X53895000Y-59055000D03*
X56595000Y-59055000D03*
X40560000Y-59055000D03*
X43260000Y-59055000D03*
X79930000Y-59055000D03*
X82630000Y-59055000D03*
X67230000Y-59055000D03*
X69930000Y-59055000D03*
D22*
X86360000Y-55626000D03*
X73660000Y-55626000D03*
X60452000Y-55626000D03*
X46990000Y-55626000D03*
D23*
X85725000Y-56435000D02*
X85725000Y-56261000D01*
X85725000Y-56261000D02*
X86360000Y-55626000D01*
X73025000Y-56435000D02*
X73025000Y-56261000D01*
X73025000Y-56261000D02*
X73660000Y-55626000D01*
X59690000Y-56435000D02*
X59690000Y-56388000D01*
X59690000Y-56388000D02*
X60452000Y-55626000D01*
X46355000Y-56435000D02*
X46355000Y-56261000D01*
X46355000Y-56261000D02*
X46990000Y-55626000D01*
X78010000Y-26270000D02*
X78010000Y-26702000D01*
X78010000Y-26702000D02*
X81360000Y-30052000D01*
X81360000Y-30052000D02*
X81360000Y-50165000D01*
X81360000Y-50165000D02*
X81360000Y-52708860D01*
X81360000Y-52708860D02*
X80960000Y-53108860D01*
X72930000Y-26270000D02*
X72930000Y-27146000D01*
X68660000Y-31416000D02*
X68660000Y-50165000D01*
X72930000Y-27146000D02*
X68660000Y-31416000D01*
X68660000Y-50165000D02*
X68660000Y-52708860D01*
X68660000Y-52708860D02*
X68260000Y-53108860D01*
X50070000Y-26270000D02*
X50070000Y-47212000D01*
X47117000Y-50165000D02*
X41990000Y-50165000D01*
X50070000Y-47212000D02*
X47117000Y-50165000D01*
X41590000Y-53108860D02*
X41590000Y-50565000D01*
X41590000Y-50565000D02*
X41990000Y-50165000D01*
X55150000Y-23730000D02*
X55150000Y-23908000D01*
X55150000Y-23908000D02*
X56388000Y-25146000D01*
X56388000Y-25146000D02*
X56388000Y-49102000D01*
X56388000Y-49102000D02*
X55325000Y-50165000D01*
X54925000Y-53108860D02*
X54925000Y-50565000D01*
X54925000Y-50565000D02*
X55325000Y-50165000D01*
X69629020Y-59055000D02*
X72945000Y-59055000D01*
X72945000Y-59055000D02*
X73025000Y-59135000D01*
D24*
X67310000Y-56111140D02*
X67310000Y-58834020D01*
X67310000Y-58834020D02*
X67310000Y-63500000D01*
D23*
X67078860Y-63268860D02*
X67310000Y-63500000D01*
X82329020Y-59055000D02*
X85645000Y-59055000D01*
X85645000Y-59055000D02*
X85725000Y-59135000D01*
D24*
X80010000Y-56111140D02*
X80010000Y-58834020D01*
X80010000Y-58834020D02*
X80010000Y-63500000D01*
D23*
X79778860Y-63268860D02*
X80010000Y-63500000D01*
X42959020Y-59055000D02*
X46275000Y-59055000D01*
X46275000Y-59055000D02*
X46355000Y-59135000D01*
D24*
X40640000Y-56111140D02*
X40640000Y-58834020D01*
D23*
X40640000Y-58834020D02*
X40860980Y-59055000D01*
X40640000Y-56111140D02*
X40640000Y-59690000D01*
D24*
X40640000Y-59690000D02*
X40640000Y-63500000D01*
D23*
X40408860Y-63268860D02*
X40640000Y-63500000D01*
X56294020Y-59055000D02*
X59610000Y-59055000D01*
X59610000Y-59055000D02*
X59690000Y-59135000D01*
D24*
X53975000Y-56111140D02*
X53975000Y-58834020D01*
X53975000Y-58834020D02*
X53975000Y-63500000D01*
D23*
X53743860Y-63268860D02*
X53975000Y-63500000D01*
G36*
X87295180Y-26836764D02*
X87307804Y-26885571D01*
X87332197Y-26919803D01*
X89078197Y-28665803D01*
X89120211Y-28693666D01*
X89158787Y-28702665D01*
X92533000Y-28948097D01*
X92533000Y-69703000D01*
X89660000Y-69703000D01*
X89610590Y-69713006D01*
X89570197Y-69740197D01*
X86570197Y-72740197D01*
X86542334Y-72782211D01*
X86533000Y-72830000D01*
X86533000Y-76203000D01*
X36787000Y-76203000D01*
X36787000Y-72830000D01*
X36776994Y-72780590D01*
X36749803Y-72740197D01*
X33749803Y-69740197D01*
X33707789Y-69712334D01*
X33660000Y-69703000D01*
X30787000Y-69703000D01*
X30787000Y-59457000D01*
X35660000Y-59457000D01*
X35709410Y-59446994D01*
X35751035Y-59418553D01*
X35778315Y-59376159D01*
X35787000Y-59330000D01*
X35787000Y-50450750D01*
X37905000Y-50450750D01*
X37905000Y-50941310D01*
X38001673Y-51174699D01*
X38180302Y-51353327D01*
X38413691Y-51450000D01*
X39004250Y-51450000D01*
X39163000Y-51291250D01*
X39163000Y-50292000D01*
X38063750Y-50292000D01*
X37905000Y-50450750D01*
X35787000Y-50450750D01*
X35787000Y-49388690D01*
X37905000Y-49388690D01*
X37905000Y-49879250D01*
X38063750Y-50038000D01*
X39163000Y-50038000D01*
X39163000Y-49038750D01*
X39004250Y-48880000D01*
X38413691Y-48880000D01*
X38180302Y-48976673D01*
X38001673Y-49155301D01*
X37905000Y-49388690D01*
X35787000Y-49388690D01*
X35787000Y-44704000D01*
X42786560Y-44704000D01*
X42786560Y-46736000D01*
X42830838Y-46971317D01*
X42969910Y-47187441D01*
X43182110Y-47332431D01*
X43434000Y-47383440D01*
X45466000Y-47383440D01*
X45701317Y-47339162D01*
X45917441Y-47200090D01*
X46062431Y-46987890D01*
X46113440Y-46736000D01*
X46113440Y-44704000D01*
X46069162Y-44468683D01*
X45930090Y-44252559D01*
X45717890Y-44107569D01*
X45466000Y-44056560D01*
X43434000Y-44056560D01*
X43198683Y-44100838D01*
X42982559Y-44239910D01*
X42837569Y-44452110D01*
X42786560Y-44704000D01*
X35787000Y-44704000D01*
X35787000Y-39830000D01*
X35776994Y-39780590D01*
X35748553Y-39738965D01*
X35706159Y-39711685D01*
X35660000Y-39703000D01*
X30787000Y-39703000D01*
X30787000Y-36389568D01*
X38364437Y-36389568D01*
X38455723Y-36650180D01*
X39043633Y-36866645D01*
X39669628Y-36841649D01*
X40131877Y-36650180D01*
X40223163Y-36389568D01*
X44866837Y-36389568D01*
X44958123Y-36650180D01*
X45546033Y-36866645D01*
X46172028Y-36841649D01*
X46634277Y-36650180D01*
X46725563Y-36389568D01*
X45796200Y-35460205D01*
X44866837Y-36389568D01*
X40223163Y-36389568D01*
X39293800Y-35460205D01*
X38364437Y-36389568D01*
X30787000Y-36389568D01*
X30787000Y-35030433D01*
X37707755Y-35030433D01*
X37732751Y-35656428D01*
X37924220Y-36118677D01*
X38184832Y-36209963D01*
X39114195Y-35280600D01*
X39473405Y-35280600D01*
X40402768Y-36209963D01*
X40663380Y-36118677D01*
X40879845Y-35530767D01*
X40859867Y-35030433D01*
X44210155Y-35030433D01*
X44235151Y-35656428D01*
X44426620Y-36118677D01*
X44687232Y-36209963D01*
X45616595Y-35280600D01*
X45975805Y-35280600D01*
X46905168Y-36209963D01*
X47165780Y-36118677D01*
X47382245Y-35530767D01*
X47357249Y-34904772D01*
X47165780Y-34442523D01*
X46905168Y-34351237D01*
X45975805Y-35280600D01*
X45616595Y-35280600D01*
X44687232Y-34351237D01*
X44426620Y-34442523D01*
X44210155Y-35030433D01*
X40859867Y-35030433D01*
X40854849Y-34904772D01*
X40663380Y-34442523D01*
X40402768Y-34351237D01*
X39473405Y-35280600D01*
X39114195Y-35280600D01*
X38184832Y-34351237D01*
X37924220Y-34442523D01*
X37707755Y-35030433D01*
X30787000Y-35030433D01*
X30787000Y-34171632D01*
X38364437Y-34171632D01*
X39293800Y-35100995D01*
X40223163Y-34171632D01*
X44866837Y-34171632D01*
X45796200Y-35100995D01*
X46725563Y-34171632D01*
X46634277Y-33911020D01*
X46046367Y-33694555D01*
X45420372Y-33719551D01*
X44958123Y-33911020D01*
X44866837Y-34171632D01*
X40223163Y-34171632D01*
X40131877Y-33911020D01*
X39543967Y-33694555D01*
X38917972Y-33719551D01*
X38455723Y-33911020D01*
X38364437Y-34171632D01*
X30787000Y-34171632D01*
X30787000Y-31071273D01*
X37718727Y-31071273D01*
X37957971Y-31650287D01*
X38400583Y-32093672D01*
X38979179Y-32333926D01*
X39605673Y-32334473D01*
X40184687Y-32095229D01*
X40628072Y-31652617D01*
X40868326Y-31074021D01*
X40868328Y-31071273D01*
X44221127Y-31071273D01*
X44460371Y-31650287D01*
X44902983Y-32093672D01*
X45481579Y-32333926D01*
X46108073Y-32334473D01*
X46687087Y-32095229D01*
X47130472Y-31652617D01*
X47370726Y-31074021D01*
X47371273Y-30447527D01*
X47132029Y-29868513D01*
X46689417Y-29425128D01*
X46110821Y-29184874D01*
X45484327Y-29184327D01*
X44905313Y-29423571D01*
X44461928Y-29866183D01*
X44221674Y-30444779D01*
X44221127Y-31071273D01*
X40868328Y-31071273D01*
X40868873Y-30447527D01*
X40629629Y-29868513D01*
X40187017Y-29425128D01*
X39608421Y-29184874D01*
X38981927Y-29184327D01*
X38402913Y-29423571D01*
X37959528Y-29866183D01*
X37719274Y-30444779D01*
X37718727Y-31071273D01*
X30787000Y-31071273D01*
X30787000Y-28957000D01*
X33660000Y-28957000D01*
X33709410Y-28946994D01*
X33754473Y-28914875D01*
X35960560Y-26459302D01*
X35960560Y-27032000D01*
X36004838Y-27267317D01*
X36143910Y-27483441D01*
X36356110Y-27628431D01*
X36608000Y-27679440D01*
X38132000Y-27679440D01*
X38367317Y-27635162D01*
X38583441Y-27496090D01*
X38728431Y-27283890D01*
X38765492Y-27100876D01*
X39117630Y-27453629D01*
X39630900Y-27666757D01*
X40186661Y-27667242D01*
X40700303Y-27455010D01*
X41093629Y-27062370D01*
X41179949Y-26854488D01*
X41264990Y-27060303D01*
X41657630Y-27453629D01*
X42170900Y-27666757D01*
X42726661Y-27667242D01*
X43240303Y-27455010D01*
X43633629Y-27062370D01*
X43719949Y-26854488D01*
X43804990Y-27060303D01*
X44197630Y-27453629D01*
X44710900Y-27666757D01*
X45266661Y-27667242D01*
X45780303Y-27455010D01*
X45985457Y-27250213D01*
X46729392Y-27250213D01*
X46798857Y-27492397D01*
X47322302Y-27679144D01*
X47877368Y-27651362D01*
X48261143Y-27492397D01*
X48330608Y-27250213D01*
X47530000Y-26449605D01*
X46729392Y-27250213D01*
X45985457Y-27250213D01*
X46173629Y-27062370D01*
X46253395Y-26870273D01*
X46307603Y-27001143D01*
X46549787Y-27070608D01*
X47350395Y-26270000D01*
X46549787Y-25469392D01*
X46307603Y-25538857D01*
X46257491Y-25679318D01*
X46175010Y-25479697D01*
X45782370Y-25086371D01*
X45574488Y-25000051D01*
X45780303Y-24915010D01*
X46173629Y-24522370D01*
X46259949Y-24314488D01*
X46344990Y-24520303D01*
X46737630Y-24913629D01*
X46929727Y-24993395D01*
X46798857Y-25047603D01*
X46729392Y-25289787D01*
X47530000Y-26090395D01*
X48330608Y-25289787D01*
X48261143Y-25047603D01*
X48120682Y-24997491D01*
X48320303Y-24915010D01*
X48713629Y-24522370D01*
X48799949Y-24314488D01*
X48884990Y-24520303D01*
X49277630Y-24913629D01*
X49485512Y-24999949D01*
X49279697Y-25084990D01*
X48886371Y-25477630D01*
X48806605Y-25669727D01*
X48752397Y-25538857D01*
X48510213Y-25469392D01*
X47709605Y-26270000D01*
X48510213Y-27070608D01*
X48752397Y-27001143D01*
X48802509Y-26860682D01*
X48884990Y-27060303D01*
X49277630Y-27453629D01*
X49308000Y-27466240D01*
X49308000Y-46896369D01*
X46801370Y-49403000D01*
X43366366Y-49403000D01*
X43343162Y-49279683D01*
X43204090Y-49063559D01*
X42991890Y-48918569D01*
X42740000Y-48867560D01*
X41240000Y-48867560D01*
X41004683Y-48911838D01*
X40788559Y-49050910D01*
X40643569Y-49263110D01*
X40636809Y-49296490D01*
X40578327Y-49155301D01*
X40399698Y-48976673D01*
X40166309Y-48880000D01*
X39575750Y-48880000D01*
X39417000Y-49038750D01*
X39417000Y-50038000D01*
X39437000Y-50038000D01*
X39437000Y-50292000D01*
X39417000Y-50292000D01*
X39417000Y-51291250D01*
X39575750Y-51450000D01*
X40166309Y-51450000D01*
X40399698Y-51353327D01*
X40578327Y-51174699D01*
X40634654Y-51038713D01*
X40636838Y-51050317D01*
X40775910Y-51266441D01*
X40828000Y-51302033D01*
X40828000Y-51686754D01*
X40738509Y-51744340D01*
X40593519Y-51956540D01*
X40542510Y-52208430D01*
X40542510Y-54009290D01*
X40586788Y-54244607D01*
X40725860Y-54460731D01*
X40869963Y-54559192D01*
X40239950Y-54559192D01*
X40003151Y-54603749D01*
X39785665Y-54743697D01*
X39639762Y-54957233D01*
X39588432Y-55210710D01*
X39588432Y-55674170D01*
X39587701Y-55675264D01*
X39501000Y-56111140D01*
X39501000Y-57844499D01*
X39355715Y-57937987D01*
X39209812Y-58151523D01*
X39158482Y-58405000D01*
X39158482Y-59705000D01*
X39203039Y-59941799D01*
X39342987Y-60159285D01*
X39501000Y-60267251D01*
X39501000Y-62146486D01*
X39427690Y-62032559D01*
X39215490Y-61887569D01*
X38963600Y-61836560D01*
X37236400Y-61836560D01*
X37001083Y-61880838D01*
X36784959Y-62019910D01*
X36639969Y-62232110D01*
X36588960Y-62484000D01*
X36588960Y-64516000D01*
X36633238Y-64751317D01*
X36772310Y-64967441D01*
X36984510Y-65112431D01*
X37236400Y-65163440D01*
X38963600Y-65163440D01*
X39198917Y-65119162D01*
X39415041Y-64980090D01*
X39560031Y-64767890D01*
X39567291Y-64732041D01*
X39577501Y-64747322D01*
X40064980Y-65073044D01*
X40640000Y-65187423D01*
X41215020Y-65073044D01*
X41702499Y-64747322D01*
X41912385Y-64433204D01*
X42120330Y-64744415D01*
X42606511Y-65069271D01*
X43180000Y-65183345D01*
X43753489Y-65069271D01*
X44239670Y-64744415D01*
X44446461Y-64434931D01*
X44817964Y-64850732D01*
X45345209Y-65104709D01*
X45360974Y-65107358D01*
X45593000Y-64986217D01*
X45593000Y-63627000D01*
X45847000Y-63627000D01*
X45847000Y-64986217D01*
X46079026Y-65107358D01*
X46094791Y-65104709D01*
X46622036Y-64850732D01*
X47011954Y-64414320D01*
X47205184Y-63861913D01*
X47060924Y-63627000D01*
X45847000Y-63627000D01*
X45593000Y-63627000D01*
X45573000Y-63627000D01*
X45573000Y-63373000D01*
X45593000Y-63373000D01*
X45593000Y-62013783D01*
X45847000Y-62013783D01*
X45847000Y-63373000D01*
X47060924Y-63373000D01*
X47205184Y-63138087D01*
X47011954Y-62585680D01*
X46622036Y-62149268D01*
X46094791Y-61895291D01*
X46079026Y-61892642D01*
X45847000Y-62013783D01*
X45593000Y-62013783D01*
X45360974Y-61892642D01*
X45345209Y-61895291D01*
X44817964Y-62149268D01*
X44446461Y-62565069D01*
X44239670Y-62255585D01*
X43753489Y-61930729D01*
X43180000Y-61816655D01*
X42606511Y-61930729D01*
X42120330Y-62255585D01*
X41912385Y-62566796D01*
X41779000Y-62367170D01*
X41779000Y-60150477D01*
X41910188Y-59958477D01*
X41912183Y-59948624D01*
X42045910Y-60156441D01*
X42258110Y-60301431D01*
X42510000Y-60352440D01*
X44010000Y-60352440D01*
X44245317Y-60308162D01*
X44461441Y-60169090D01*
X44606431Y-59956890D01*
X44634759Y-59817000D01*
X45057560Y-59817000D01*
X45057560Y-59885000D01*
X45101838Y-60120317D01*
X45240910Y-60336441D01*
X45453110Y-60481431D01*
X45705000Y-60532440D01*
X47005000Y-60532440D01*
X47240317Y-60488162D01*
X47456441Y-60349090D01*
X47601431Y-60136890D01*
X47652440Y-59885000D01*
X47652440Y-58385000D01*
X47608162Y-58149683D01*
X47469090Y-57933559D01*
X47256890Y-57788569D01*
X47243803Y-57785919D01*
X47456441Y-57649090D01*
X47601431Y-57436890D01*
X47652440Y-57185000D01*
X47652440Y-56490028D01*
X47904622Y-56238286D01*
X48069313Y-55841668D01*
X48069687Y-55412216D01*
X47905689Y-55015311D01*
X47602286Y-54711378D01*
X47205668Y-54546687D01*
X46776216Y-54546313D01*
X46379311Y-54710311D01*
X46075378Y-55013714D01*
X46065476Y-55037560D01*
X45705000Y-55037560D01*
X45469683Y-55081838D01*
X45253559Y-55220910D01*
X45108569Y-55433110D01*
X45057560Y-55685000D01*
X45057560Y-57185000D01*
X45101838Y-57420317D01*
X45240910Y-57636441D01*
X45453110Y-57781431D01*
X45466197Y-57784081D01*
X45253559Y-57920910D01*
X45108569Y-58133110D01*
X45076190Y-58293000D01*
X44636366Y-58293000D01*
X44613162Y-58169683D01*
X44474090Y-57953559D01*
X44261890Y-57808569D01*
X44010000Y-57757560D01*
X42510000Y-57757560D01*
X42274683Y-57801838D01*
X42058559Y-57940910D01*
X41913569Y-58153110D01*
X41912056Y-58160579D01*
X41779000Y-57953803D01*
X41779000Y-56111140D01*
X41692299Y-55675264D01*
X41691568Y-55674170D01*
X41691568Y-55210710D01*
X41647011Y-54973911D01*
X41507063Y-54756425D01*
X41361155Y-54656730D01*
X41990050Y-54656730D01*
X42225367Y-54612452D01*
X42441491Y-54473380D01*
X42586481Y-54261180D01*
X42637490Y-54009290D01*
X42637490Y-52208430D01*
X42593212Y-51973113D01*
X42454140Y-51756989D01*
X42352000Y-51687200D01*
X42352000Y-51462440D01*
X42740000Y-51462440D01*
X42975317Y-51418162D01*
X43191441Y-51279090D01*
X43336431Y-51066890D01*
X43364759Y-50927000D01*
X47117000Y-50927000D01*
X47408605Y-50868996D01*
X47655815Y-50703815D01*
X47908880Y-50450750D01*
X51240000Y-50450750D01*
X51240000Y-50941310D01*
X51336673Y-51174699D01*
X51515302Y-51353327D01*
X51748691Y-51450000D01*
X52339250Y-51450000D01*
X52498000Y-51291250D01*
X52498000Y-50292000D01*
X51398750Y-50292000D01*
X51240000Y-50450750D01*
X47908880Y-50450750D01*
X48970940Y-49388690D01*
X51240000Y-49388690D01*
X51240000Y-49879250D01*
X51398750Y-50038000D01*
X52498000Y-50038000D01*
X52498000Y-49038750D01*
X52339250Y-48880000D01*
X51748691Y-48880000D01*
X51515302Y-48976673D01*
X51336673Y-49155301D01*
X51240000Y-49388690D01*
X48970940Y-49388690D01*
X50608816Y-47750815D01*
X50707834Y-47602623D01*
X50773996Y-47503605D01*
X50832000Y-47212000D01*
X50832000Y-36389568D01*
X51699437Y-36389568D01*
X51790723Y-36650180D01*
X52378633Y-36866645D01*
X53004628Y-36841649D01*
X53466877Y-36650180D01*
X53558163Y-36389568D01*
X52628800Y-35460205D01*
X51699437Y-36389568D01*
X50832000Y-36389568D01*
X50832000Y-35030433D01*
X51042755Y-35030433D01*
X51067751Y-35656428D01*
X51259220Y-36118677D01*
X51519832Y-36209963D01*
X52449195Y-35280600D01*
X52808405Y-35280600D01*
X53737768Y-36209963D01*
X53998380Y-36118677D01*
X54214845Y-35530767D01*
X54189849Y-34904772D01*
X53998380Y-34442523D01*
X53737768Y-34351237D01*
X52808405Y-35280600D01*
X52449195Y-35280600D01*
X51519832Y-34351237D01*
X51259220Y-34442523D01*
X51042755Y-35030433D01*
X50832000Y-35030433D01*
X50832000Y-34171632D01*
X51699437Y-34171632D01*
X52628800Y-35100995D01*
X53558163Y-34171632D01*
X53466877Y-33911020D01*
X52878967Y-33694555D01*
X52252972Y-33719551D01*
X51790723Y-33911020D01*
X51699437Y-34171632D01*
X50832000Y-34171632D01*
X50832000Y-31071273D01*
X51053727Y-31071273D01*
X51292971Y-31650287D01*
X51735583Y-32093672D01*
X52314179Y-32333926D01*
X52940673Y-32334473D01*
X53519687Y-32095229D01*
X53963072Y-31652617D01*
X54203326Y-31074021D01*
X54203873Y-30447527D01*
X53964629Y-29868513D01*
X53522017Y-29425128D01*
X52943421Y-29184874D01*
X52316927Y-29184327D01*
X51737913Y-29423571D01*
X51294528Y-29866183D01*
X51054274Y-30444779D01*
X51053727Y-31071273D01*
X50832000Y-31071273D01*
X50832000Y-27466705D01*
X50860303Y-27455010D01*
X51253629Y-27062370D01*
X51339949Y-26854488D01*
X51424990Y-27060303D01*
X51817630Y-27453629D01*
X52330900Y-27666757D01*
X52886661Y-27667242D01*
X53400303Y-27455010D01*
X53793629Y-27062370D01*
X53879949Y-26854488D01*
X53964990Y-27060303D01*
X54357630Y-27453629D01*
X54870900Y-27666757D01*
X55426661Y-27667242D01*
X55626000Y-27584877D01*
X55626000Y-48786370D01*
X55544810Y-48867560D01*
X54575000Y-48867560D01*
X54339683Y-48911838D01*
X54123559Y-49050910D01*
X53978569Y-49263110D01*
X53971809Y-49296490D01*
X53913327Y-49155301D01*
X53734698Y-48976673D01*
X53501309Y-48880000D01*
X52910750Y-48880000D01*
X52752000Y-49038750D01*
X52752000Y-50038000D01*
X52772000Y-50038000D01*
X52772000Y-50292000D01*
X52752000Y-50292000D01*
X52752000Y-51291250D01*
X52910750Y-51450000D01*
X53501309Y-51450000D01*
X53734698Y-51353327D01*
X53913327Y-51174699D01*
X53969654Y-51038713D01*
X53971838Y-51050317D01*
X54110910Y-51266441D01*
X54163000Y-51302033D01*
X54163000Y-51686754D01*
X54073509Y-51744340D01*
X53928519Y-51956540D01*
X53877510Y-52208430D01*
X53877510Y-54009290D01*
X53921788Y-54244607D01*
X54060860Y-54460731D01*
X54204963Y-54559192D01*
X53574950Y-54559192D01*
X53338151Y-54603749D01*
X53120665Y-54743697D01*
X52974762Y-54957233D01*
X52923432Y-55210710D01*
X52923432Y-55674170D01*
X52922701Y-55675264D01*
X52836000Y-56111140D01*
X52836000Y-57844499D01*
X52690715Y-57937987D01*
X52544812Y-58151523D01*
X52493482Y-58405000D01*
X52493482Y-59705000D01*
X52538039Y-59941799D01*
X52677987Y-60159285D01*
X52836000Y-60267251D01*
X52836000Y-62146486D01*
X52762690Y-62032559D01*
X52550490Y-61887569D01*
X52298600Y-61836560D01*
X50571400Y-61836560D01*
X50336083Y-61880838D01*
X50119959Y-62019910D01*
X49974969Y-62232110D01*
X49923960Y-62484000D01*
X49923960Y-64516000D01*
X49968238Y-64751317D01*
X50107310Y-64967441D01*
X50319510Y-65112431D01*
X50571400Y-65163440D01*
X52298600Y-65163440D01*
X52533917Y-65119162D01*
X52750041Y-64980090D01*
X52895031Y-64767890D01*
X52902291Y-64732041D01*
X52912501Y-64747322D01*
X53399980Y-65073044D01*
X53975000Y-65187423D01*
X54550020Y-65073044D01*
X55037499Y-64747322D01*
X55247385Y-64433204D01*
X55455330Y-64744415D01*
X55941511Y-65069271D01*
X56515000Y-65183345D01*
X57088489Y-65069271D01*
X57574670Y-64744415D01*
X57781461Y-64434931D01*
X58152964Y-64850732D01*
X58680209Y-65104709D01*
X58695974Y-65107358D01*
X58928000Y-64986217D01*
X58928000Y-63627000D01*
X59182000Y-63627000D01*
X59182000Y-64986217D01*
X59414026Y-65107358D01*
X59429791Y-65104709D01*
X59957036Y-64850732D01*
X60346954Y-64414320D01*
X60540184Y-63861913D01*
X60395924Y-63627000D01*
X59182000Y-63627000D01*
X58928000Y-63627000D01*
X58908000Y-63627000D01*
X58908000Y-63373000D01*
X58928000Y-63373000D01*
X58928000Y-62013783D01*
X59182000Y-62013783D01*
X59182000Y-63373000D01*
X60395924Y-63373000D01*
X60540184Y-63138087D01*
X60346954Y-62585680D01*
X59957036Y-62149268D01*
X59429791Y-61895291D01*
X59414026Y-61892642D01*
X59182000Y-62013783D01*
X58928000Y-62013783D01*
X58695974Y-61892642D01*
X58680209Y-61895291D01*
X58152964Y-62149268D01*
X57781461Y-62565069D01*
X57574670Y-62255585D01*
X57088489Y-61930729D01*
X56515000Y-61816655D01*
X55941511Y-61930729D01*
X55455330Y-62255585D01*
X55247385Y-62566796D01*
X55114000Y-62367170D01*
X55114000Y-60150477D01*
X55245188Y-59958477D01*
X55247183Y-59948624D01*
X55380910Y-60156441D01*
X55593110Y-60301431D01*
X55845000Y-60352440D01*
X57345000Y-60352440D01*
X57580317Y-60308162D01*
X57796441Y-60169090D01*
X57941431Y-59956890D01*
X57969759Y-59817000D01*
X58392560Y-59817000D01*
X58392560Y-59885000D01*
X58436838Y-60120317D01*
X58575910Y-60336441D01*
X58788110Y-60481431D01*
X59040000Y-60532440D01*
X60340000Y-60532440D01*
X60575317Y-60488162D01*
X60791441Y-60349090D01*
X60936431Y-60136890D01*
X60987440Y-59885000D01*
X60987440Y-58385000D01*
X60943162Y-58149683D01*
X60804090Y-57933559D01*
X60591890Y-57788569D01*
X60578803Y-57785919D01*
X60791441Y-57649090D01*
X60936431Y-57436890D01*
X60987440Y-57185000D01*
X60987440Y-56572781D01*
X61062689Y-56541689D01*
X61366622Y-56238286D01*
X61531313Y-55841668D01*
X61531687Y-55412216D01*
X61367689Y-55015311D01*
X61064286Y-54711378D01*
X60667668Y-54546687D01*
X60238216Y-54546313D01*
X59841311Y-54710311D01*
X59537378Y-55013714D01*
X59527476Y-55037560D01*
X59040000Y-55037560D01*
X58804683Y-55081838D01*
X58588559Y-55220910D01*
X58443569Y-55433110D01*
X58392560Y-55685000D01*
X58392560Y-57185000D01*
X58436838Y-57420317D01*
X58575910Y-57636441D01*
X58788110Y-57781431D01*
X58801197Y-57784081D01*
X58588559Y-57920910D01*
X58443569Y-58133110D01*
X58411190Y-58293000D01*
X57971366Y-58293000D01*
X57948162Y-58169683D01*
X57809090Y-57953559D01*
X57596890Y-57808569D01*
X57345000Y-57757560D01*
X55845000Y-57757560D01*
X55609683Y-57801838D01*
X55393559Y-57940910D01*
X55248569Y-58153110D01*
X55247056Y-58160579D01*
X55114000Y-57953803D01*
X55114000Y-56111140D01*
X55027299Y-55675264D01*
X55026568Y-55674170D01*
X55026568Y-55210710D01*
X54982011Y-54973911D01*
X54842063Y-54756425D01*
X54696155Y-54656730D01*
X55325050Y-54656730D01*
X55560367Y-54612452D01*
X55776491Y-54473380D01*
X55921481Y-54261180D01*
X55972490Y-54009290D01*
X55972490Y-52208430D01*
X55928212Y-51973113D01*
X55789140Y-51756989D01*
X55687000Y-51687200D01*
X55687000Y-51462440D01*
X56075000Y-51462440D01*
X56310317Y-51418162D01*
X56526441Y-51279090D01*
X56671431Y-51066890D01*
X56722440Y-50815000D01*
X56722440Y-50450750D01*
X64575000Y-50450750D01*
X64575000Y-50941310D01*
X64671673Y-51174699D01*
X64850302Y-51353327D01*
X65083691Y-51450000D01*
X65674250Y-51450000D01*
X65833000Y-51291250D01*
X65833000Y-50292000D01*
X64733750Y-50292000D01*
X64575000Y-50450750D01*
X56722440Y-50450750D01*
X56722440Y-49845190D01*
X56926815Y-49640815D01*
X57046961Y-49461004D01*
X57091996Y-49393605D01*
X57092973Y-49388690D01*
X64575000Y-49388690D01*
X64575000Y-49879250D01*
X64733750Y-50038000D01*
X65833000Y-50038000D01*
X65833000Y-49038750D01*
X65674250Y-48880000D01*
X65083691Y-48880000D01*
X64850302Y-48976673D01*
X64671673Y-49155301D01*
X64575000Y-49388690D01*
X57092973Y-49388690D01*
X57150000Y-49102000D01*
X57150000Y-36389568D01*
X58201837Y-36389568D01*
X58293123Y-36650180D01*
X58881033Y-36866645D01*
X59507028Y-36841649D01*
X59969277Y-36650180D01*
X60060563Y-36389568D01*
X64399437Y-36389568D01*
X64490723Y-36650180D01*
X65078633Y-36866645D01*
X65704628Y-36841649D01*
X66166877Y-36650180D01*
X66258163Y-36389568D01*
X65328800Y-35460205D01*
X64399437Y-36389568D01*
X60060563Y-36389568D01*
X59131200Y-35460205D01*
X58201837Y-36389568D01*
X57150000Y-36389568D01*
X57150000Y-35030433D01*
X57545155Y-35030433D01*
X57570151Y-35656428D01*
X57761620Y-36118677D01*
X58022232Y-36209963D01*
X58951595Y-35280600D01*
X59310805Y-35280600D01*
X60240168Y-36209963D01*
X60500780Y-36118677D01*
X60717245Y-35530767D01*
X60697267Y-35030433D01*
X63742755Y-35030433D01*
X63767751Y-35656428D01*
X63959220Y-36118677D01*
X64219832Y-36209963D01*
X65149195Y-35280600D01*
X65508405Y-35280600D01*
X66437768Y-36209963D01*
X66698380Y-36118677D01*
X66914845Y-35530767D01*
X66889849Y-34904772D01*
X66698380Y-34442523D01*
X66437768Y-34351237D01*
X65508405Y-35280600D01*
X65149195Y-35280600D01*
X64219832Y-34351237D01*
X63959220Y-34442523D01*
X63742755Y-35030433D01*
X60697267Y-35030433D01*
X60692249Y-34904772D01*
X60500780Y-34442523D01*
X60240168Y-34351237D01*
X59310805Y-35280600D01*
X58951595Y-35280600D01*
X58022232Y-34351237D01*
X57761620Y-34442523D01*
X57545155Y-35030433D01*
X57150000Y-35030433D01*
X57150000Y-34171632D01*
X58201837Y-34171632D01*
X59131200Y-35100995D01*
X60060563Y-34171632D01*
X64399437Y-34171632D01*
X65328800Y-35100995D01*
X66258163Y-34171632D01*
X66166877Y-33911020D01*
X65578967Y-33694555D01*
X64952972Y-33719551D01*
X64490723Y-33911020D01*
X64399437Y-34171632D01*
X60060563Y-34171632D01*
X59969277Y-33911020D01*
X59381367Y-33694555D01*
X58755372Y-33719551D01*
X58293123Y-33911020D01*
X58201837Y-34171632D01*
X57150000Y-34171632D01*
X57150000Y-31071273D01*
X57556127Y-31071273D01*
X57795371Y-31650287D01*
X58237983Y-32093672D01*
X58816579Y-32333926D01*
X59443073Y-32334473D01*
X60022087Y-32095229D01*
X60465472Y-31652617D01*
X60705726Y-31074021D01*
X60705728Y-31071273D01*
X63753727Y-31071273D01*
X63992971Y-31650287D01*
X64435583Y-32093672D01*
X65014179Y-32333926D01*
X65640673Y-32334473D01*
X66219687Y-32095229D01*
X66663072Y-31652617D01*
X66903326Y-31074021D01*
X66903873Y-30447527D01*
X66664629Y-29868513D01*
X66222017Y-29425128D01*
X65643421Y-29184874D01*
X65016927Y-29184327D01*
X64437913Y-29423571D01*
X63994528Y-29866183D01*
X63754274Y-30444779D01*
X63753727Y-31071273D01*
X60705728Y-31071273D01*
X60706273Y-30447527D01*
X60467029Y-29868513D01*
X60024417Y-29425128D01*
X59445821Y-29184874D01*
X58819327Y-29184327D01*
X58240313Y-29423571D01*
X57796928Y-29866183D01*
X57556674Y-30444779D01*
X57556127Y-31071273D01*
X57150000Y-31071273D01*
X57150000Y-27558422D01*
X57410900Y-27666757D01*
X57966661Y-27667242D01*
X58480303Y-27455010D01*
X58873629Y-27062370D01*
X58959949Y-26854488D01*
X59044990Y-27060303D01*
X59437630Y-27453629D01*
X59950900Y-27666757D01*
X60506661Y-27667242D01*
X61020303Y-27455010D01*
X61413629Y-27062370D01*
X61499949Y-26854488D01*
X61584990Y-27060303D01*
X61977630Y-27453629D01*
X62490900Y-27666757D01*
X63046661Y-27667242D01*
X63560303Y-27455010D01*
X63953629Y-27062370D01*
X64039949Y-26854488D01*
X64124990Y-27060303D01*
X64517630Y-27453629D01*
X65030900Y-27666757D01*
X65586661Y-27667242D01*
X66100303Y-27455010D01*
X66305457Y-27250213D01*
X67049392Y-27250213D01*
X67118857Y-27492397D01*
X67642302Y-27679144D01*
X68197368Y-27651362D01*
X68581143Y-27492397D01*
X68650608Y-27250213D01*
X67850000Y-26449605D01*
X67049392Y-27250213D01*
X66305457Y-27250213D01*
X66493629Y-27062370D01*
X66573395Y-26870273D01*
X66627603Y-27001143D01*
X66869787Y-27070608D01*
X67670395Y-26270000D01*
X66869787Y-25469392D01*
X66627603Y-25538857D01*
X66577491Y-25679318D01*
X66495010Y-25479697D01*
X66102370Y-25086371D01*
X65894488Y-25000051D01*
X66100303Y-24915010D01*
X66493629Y-24522370D01*
X66579949Y-24314488D01*
X66664990Y-24520303D01*
X67057630Y-24913629D01*
X67249727Y-24993395D01*
X67118857Y-25047603D01*
X67049392Y-25289787D01*
X67850000Y-26090395D01*
X68650608Y-25289787D01*
X68581143Y-25047603D01*
X68440682Y-24997491D01*
X68640303Y-24915010D01*
X69033629Y-24522370D01*
X69119949Y-24314488D01*
X69204990Y-24520303D01*
X69597630Y-24913629D01*
X69805512Y-24999949D01*
X69599697Y-25084990D01*
X69206371Y-25477630D01*
X69126605Y-25669727D01*
X69072397Y-25538857D01*
X68830213Y-25469392D01*
X68029605Y-26270000D01*
X68830213Y-27070608D01*
X69072397Y-27001143D01*
X69122509Y-26860682D01*
X69204990Y-27060303D01*
X69597630Y-27453629D01*
X70110900Y-27666757D01*
X70666661Y-27667242D01*
X71180303Y-27455010D01*
X71573629Y-27062370D01*
X71659949Y-26854488D01*
X71744990Y-27060303D01*
X71841444Y-27156926D01*
X68121185Y-30877185D01*
X67956004Y-31124395D01*
X67898000Y-31416000D01*
X67898000Y-48869818D01*
X67674683Y-48911838D01*
X67458559Y-49050910D01*
X67313569Y-49263110D01*
X67306809Y-49296490D01*
X67248327Y-49155301D01*
X67069698Y-48976673D01*
X66836309Y-48880000D01*
X66245750Y-48880000D01*
X66087000Y-49038750D01*
X66087000Y-50038000D01*
X66107000Y-50038000D01*
X66107000Y-50292000D01*
X66087000Y-50292000D01*
X66087000Y-51291250D01*
X66245750Y-51450000D01*
X66836309Y-51450000D01*
X67069698Y-51353327D01*
X67248327Y-51174699D01*
X67304654Y-51038713D01*
X67306838Y-51050317D01*
X67445910Y-51266441D01*
X67658110Y-51411431D01*
X67898000Y-51460010D01*
X67898000Y-51560990D01*
X67859950Y-51560990D01*
X67624633Y-51605268D01*
X67408509Y-51744340D01*
X67263519Y-51956540D01*
X67212510Y-52208430D01*
X67212510Y-54009290D01*
X67256788Y-54244607D01*
X67395860Y-54460731D01*
X67539963Y-54559192D01*
X66909950Y-54559192D01*
X66673151Y-54603749D01*
X66455665Y-54743697D01*
X66309762Y-54957233D01*
X66258432Y-55210710D01*
X66258432Y-55674170D01*
X66257701Y-55675264D01*
X66171000Y-56111140D01*
X66171000Y-57844499D01*
X66025715Y-57937987D01*
X65879812Y-58151523D01*
X65828482Y-58405000D01*
X65828482Y-59705000D01*
X65873039Y-59941799D01*
X66012987Y-60159285D01*
X66171000Y-60267251D01*
X66171000Y-62146486D01*
X66097690Y-62032559D01*
X65885490Y-61887569D01*
X65633600Y-61836560D01*
X63906400Y-61836560D01*
X63671083Y-61880838D01*
X63454959Y-62019910D01*
X63309969Y-62232110D01*
X63258960Y-62484000D01*
X63258960Y-64516000D01*
X63303238Y-64751317D01*
X63442310Y-64967441D01*
X63654510Y-65112431D01*
X63906400Y-65163440D01*
X65633600Y-65163440D01*
X65868917Y-65119162D01*
X66085041Y-64980090D01*
X66230031Y-64767890D01*
X66237291Y-64732041D01*
X66247501Y-64747322D01*
X66734980Y-65073044D01*
X67310000Y-65187423D01*
X67885020Y-65073044D01*
X68372499Y-64747322D01*
X68582385Y-64433204D01*
X68790330Y-64744415D01*
X69276511Y-65069271D01*
X69850000Y-65183345D01*
X70423489Y-65069271D01*
X70909670Y-64744415D01*
X71116461Y-64434931D01*
X71487964Y-64850732D01*
X72015209Y-65104709D01*
X72030974Y-65107358D01*
X72263000Y-64986217D01*
X72263000Y-63627000D01*
X72517000Y-63627000D01*
X72517000Y-64986217D01*
X72749026Y-65107358D01*
X72764791Y-65104709D01*
X73292036Y-64850732D01*
X73681954Y-64414320D01*
X73875184Y-63861913D01*
X73730924Y-63627000D01*
X72517000Y-63627000D01*
X72263000Y-63627000D01*
X72243000Y-63627000D01*
X72243000Y-63373000D01*
X72263000Y-63373000D01*
X72263000Y-62013783D01*
X72517000Y-62013783D01*
X72517000Y-63373000D01*
X73730924Y-63373000D01*
X73875184Y-63138087D01*
X73681954Y-62585680D01*
X73292036Y-62149268D01*
X72764791Y-61895291D01*
X72749026Y-61892642D01*
X72517000Y-62013783D01*
X72263000Y-62013783D01*
X72030974Y-61892642D01*
X72015209Y-61895291D01*
X71487964Y-62149268D01*
X71116461Y-62565069D01*
X70909670Y-62255585D01*
X70423489Y-61930729D01*
X69850000Y-61816655D01*
X69276511Y-61930729D01*
X68790330Y-62255585D01*
X68582385Y-62566796D01*
X68449000Y-62367170D01*
X68449000Y-60150477D01*
X68580188Y-59958477D01*
X68582183Y-59948624D01*
X68715910Y-60156441D01*
X68928110Y-60301431D01*
X69180000Y-60352440D01*
X70680000Y-60352440D01*
X70915317Y-60308162D01*
X71131441Y-60169090D01*
X71276431Y-59956890D01*
X71304759Y-59817000D01*
X71727560Y-59817000D01*
X71727560Y-59885000D01*
X71771838Y-60120317D01*
X71910910Y-60336441D01*
X72123110Y-60481431D01*
X72375000Y-60532440D01*
X73675000Y-60532440D01*
X73910317Y-60488162D01*
X74126441Y-60349090D01*
X74271431Y-60136890D01*
X74322440Y-59885000D01*
X74322440Y-58385000D01*
X74278162Y-58149683D01*
X74139090Y-57933559D01*
X73926890Y-57788569D01*
X73913803Y-57785919D01*
X74126441Y-57649090D01*
X74271431Y-57436890D01*
X74322440Y-57185000D01*
X74322440Y-56490028D01*
X74574622Y-56238286D01*
X74739313Y-55841668D01*
X74739687Y-55412216D01*
X74575689Y-55015311D01*
X74272286Y-54711378D01*
X73875668Y-54546687D01*
X73446216Y-54546313D01*
X73049311Y-54710311D01*
X72745378Y-55013714D01*
X72735476Y-55037560D01*
X72375000Y-55037560D01*
X72139683Y-55081838D01*
X71923559Y-55220910D01*
X71778569Y-55433110D01*
X71727560Y-55685000D01*
X71727560Y-57185000D01*
X71771838Y-57420317D01*
X71910910Y-57636441D01*
X72123110Y-57781431D01*
X72136197Y-57784081D01*
X71923559Y-57920910D01*
X71778569Y-58133110D01*
X71746190Y-58293000D01*
X71306366Y-58293000D01*
X71283162Y-58169683D01*
X71144090Y-57953559D01*
X70931890Y-57808569D01*
X70680000Y-57757560D01*
X69180000Y-57757560D01*
X68944683Y-57801838D01*
X68728559Y-57940910D01*
X68583569Y-58153110D01*
X68582056Y-58160579D01*
X68449000Y-57953803D01*
X68449000Y-56111140D01*
X68362299Y-55675264D01*
X68361568Y-55674170D01*
X68361568Y-55210710D01*
X68317011Y-54973911D01*
X68177063Y-54756425D01*
X68031155Y-54656730D01*
X68660050Y-54656730D01*
X68895367Y-54612452D01*
X69111491Y-54473380D01*
X69256481Y-54261180D01*
X69307490Y-54009290D01*
X69307490Y-53085032D01*
X69363996Y-53000465D01*
X69422000Y-52708860D01*
X69422000Y-51460182D01*
X69645317Y-51418162D01*
X69861441Y-51279090D01*
X70006431Y-51066890D01*
X70057440Y-50815000D01*
X70057440Y-50450750D01*
X77275000Y-50450750D01*
X77275000Y-50941310D01*
X77371673Y-51174699D01*
X77550302Y-51353327D01*
X77783691Y-51450000D01*
X78374250Y-51450000D01*
X78533000Y-51291250D01*
X78533000Y-50292000D01*
X77433750Y-50292000D01*
X77275000Y-50450750D01*
X70057440Y-50450750D01*
X70057440Y-49515000D01*
X70033674Y-49388690D01*
X77275000Y-49388690D01*
X77275000Y-49879250D01*
X77433750Y-50038000D01*
X78533000Y-50038000D01*
X78533000Y-49038750D01*
X78374250Y-48880000D01*
X77783691Y-48880000D01*
X77550302Y-48976673D01*
X77371673Y-49155301D01*
X77275000Y-49388690D01*
X70033674Y-49388690D01*
X70013162Y-49279683D01*
X69874090Y-49063559D01*
X69661890Y-48918569D01*
X69422000Y-48869990D01*
X69422000Y-36389568D01*
X70901837Y-36389568D01*
X70993123Y-36650180D01*
X71581033Y-36866645D01*
X72207028Y-36841649D01*
X72669277Y-36650180D01*
X72760563Y-36389568D01*
X77099437Y-36389568D01*
X77190723Y-36650180D01*
X77778633Y-36866645D01*
X78404628Y-36841649D01*
X78866877Y-36650180D01*
X78958163Y-36389568D01*
X78028800Y-35460205D01*
X77099437Y-36389568D01*
X72760563Y-36389568D01*
X71831200Y-35460205D01*
X70901837Y-36389568D01*
X69422000Y-36389568D01*
X69422000Y-35030433D01*
X70245155Y-35030433D01*
X70270151Y-35656428D01*
X70461620Y-36118677D01*
X70722232Y-36209963D01*
X71651595Y-35280600D01*
X72010805Y-35280600D01*
X72940168Y-36209963D01*
X73200780Y-36118677D01*
X73417245Y-35530767D01*
X73397267Y-35030433D01*
X76442755Y-35030433D01*
X76467751Y-35656428D01*
X76659220Y-36118677D01*
X76919832Y-36209963D01*
X77849195Y-35280600D01*
X78208405Y-35280600D01*
X79137768Y-36209963D01*
X79398380Y-36118677D01*
X79614845Y-35530767D01*
X79589849Y-34904772D01*
X79398380Y-34442523D01*
X79137768Y-34351237D01*
X78208405Y-35280600D01*
X77849195Y-35280600D01*
X76919832Y-34351237D01*
X76659220Y-34442523D01*
X76442755Y-35030433D01*
X73397267Y-35030433D01*
X73392249Y-34904772D01*
X73200780Y-34442523D01*
X72940168Y-34351237D01*
X72010805Y-35280600D01*
X71651595Y-35280600D01*
X70722232Y-34351237D01*
X70461620Y-34442523D01*
X70245155Y-35030433D01*
X69422000Y-35030433D01*
X69422000Y-34171632D01*
X70901837Y-34171632D01*
X71831200Y-35100995D01*
X72760563Y-34171632D01*
X77099437Y-34171632D01*
X78028800Y-35100995D01*
X78958163Y-34171632D01*
X78866877Y-33911020D01*
X78278967Y-33694555D01*
X77652972Y-33719551D01*
X77190723Y-33911020D01*
X77099437Y-34171632D01*
X72760563Y-34171632D01*
X72669277Y-33911020D01*
X72081367Y-33694555D01*
X71455372Y-33719551D01*
X70993123Y-33911020D01*
X70901837Y-34171632D01*
X69422000Y-34171632D01*
X69422000Y-31731630D01*
X70256279Y-30897351D01*
X70256127Y-31071273D01*
X70495371Y-31650287D01*
X70937983Y-32093672D01*
X71516579Y-32333926D01*
X72143073Y-32334473D01*
X72722087Y-32095229D01*
X73165472Y-31652617D01*
X73405726Y-31074021D01*
X73405728Y-31071273D01*
X76453727Y-31071273D01*
X76692971Y-31650287D01*
X77135583Y-32093672D01*
X77714179Y-32333926D01*
X78340673Y-32334473D01*
X78919687Y-32095229D01*
X79363072Y-31652617D01*
X79603326Y-31074021D01*
X79603873Y-30447527D01*
X79364629Y-29868513D01*
X78922017Y-29425128D01*
X78343421Y-29184874D01*
X77716927Y-29184327D01*
X77137913Y-29423571D01*
X76694528Y-29866183D01*
X76454274Y-30444779D01*
X76453727Y-31071273D01*
X73405728Y-31071273D01*
X73406273Y-30447527D01*
X73167029Y-29868513D01*
X72724417Y-29425128D01*
X72145821Y-29184874D01*
X71968910Y-29184720D01*
X73468815Y-27684815D01*
X73585015Y-27510910D01*
X73720303Y-27455010D01*
X74113629Y-27062370D01*
X74199949Y-26854488D01*
X74284990Y-27060303D01*
X74677630Y-27453629D01*
X75190900Y-27666757D01*
X75746661Y-27667242D01*
X76260303Y-27455010D01*
X76653629Y-27062370D01*
X76739949Y-26854488D01*
X76824990Y-27060303D01*
X77217630Y-27453629D01*
X77730900Y-27666757D01*
X77897272Y-27666902D01*
X80598000Y-30367631D01*
X80598000Y-48869818D01*
X80374683Y-48911838D01*
X80158559Y-49050910D01*
X80013569Y-49263110D01*
X80006809Y-49296490D01*
X79948327Y-49155301D01*
X79769698Y-48976673D01*
X79536309Y-48880000D01*
X78945750Y-48880000D01*
X78787000Y-49038750D01*
X78787000Y-50038000D01*
X78807000Y-50038000D01*
X78807000Y-50292000D01*
X78787000Y-50292000D01*
X78787000Y-51291250D01*
X78945750Y-51450000D01*
X79536309Y-51450000D01*
X79769698Y-51353327D01*
X79948327Y-51174699D01*
X80004654Y-51038713D01*
X80006838Y-51050317D01*
X80145910Y-51266441D01*
X80358110Y-51411431D01*
X80598000Y-51460010D01*
X80598000Y-51560990D01*
X80559950Y-51560990D01*
X80324633Y-51605268D01*
X80108509Y-51744340D01*
X79963519Y-51956540D01*
X79912510Y-52208430D01*
X79912510Y-54009290D01*
X79956788Y-54244607D01*
X80095860Y-54460731D01*
X80239963Y-54559192D01*
X79609950Y-54559192D01*
X79373151Y-54603749D01*
X79155665Y-54743697D01*
X79009762Y-54957233D01*
X78958432Y-55210710D01*
X78958432Y-55674170D01*
X78957701Y-55675264D01*
X78871000Y-56111140D01*
X78871000Y-57844499D01*
X78725715Y-57937987D01*
X78579812Y-58151523D01*
X78528482Y-58405000D01*
X78528482Y-59705000D01*
X78573039Y-59941799D01*
X78712987Y-60159285D01*
X78871000Y-60267251D01*
X78871000Y-62146486D01*
X78797690Y-62032559D01*
X78585490Y-61887569D01*
X78333600Y-61836560D01*
X76606400Y-61836560D01*
X76371083Y-61880838D01*
X76154959Y-62019910D01*
X76009969Y-62232110D01*
X75958960Y-62484000D01*
X75958960Y-64516000D01*
X76003238Y-64751317D01*
X76142310Y-64967441D01*
X76354510Y-65112431D01*
X76606400Y-65163440D01*
X78333600Y-65163440D01*
X78568917Y-65119162D01*
X78785041Y-64980090D01*
X78930031Y-64767890D01*
X78937291Y-64732041D01*
X78947501Y-64747322D01*
X79434980Y-65073044D01*
X80010000Y-65187423D01*
X80585020Y-65073044D01*
X81072499Y-64747322D01*
X81282385Y-64433204D01*
X81490330Y-64744415D01*
X81976511Y-65069271D01*
X82550000Y-65183345D01*
X83123489Y-65069271D01*
X83609670Y-64744415D01*
X83816461Y-64434931D01*
X84187964Y-64850732D01*
X84715209Y-65104709D01*
X84730974Y-65107358D01*
X84963000Y-64986217D01*
X84963000Y-63627000D01*
X85217000Y-63627000D01*
X85217000Y-64986217D01*
X85449026Y-65107358D01*
X85464791Y-65104709D01*
X85992036Y-64850732D01*
X86381954Y-64414320D01*
X86575184Y-63861913D01*
X86430924Y-63627000D01*
X85217000Y-63627000D01*
X84963000Y-63627000D01*
X84943000Y-63627000D01*
X84943000Y-63373000D01*
X84963000Y-63373000D01*
X84963000Y-62013783D01*
X85217000Y-62013783D01*
X85217000Y-63373000D01*
X86430924Y-63373000D01*
X86575184Y-63138087D01*
X86381954Y-62585680D01*
X85992036Y-62149268D01*
X85464791Y-61895291D01*
X85449026Y-61892642D01*
X85217000Y-62013783D01*
X84963000Y-62013783D01*
X84730974Y-61892642D01*
X84715209Y-61895291D01*
X84187964Y-62149268D01*
X83816461Y-62565069D01*
X83609670Y-62255585D01*
X83123489Y-61930729D01*
X82550000Y-61816655D01*
X81976511Y-61930729D01*
X81490330Y-62255585D01*
X81282385Y-62566796D01*
X81149000Y-62367170D01*
X81149000Y-60150477D01*
X81280188Y-59958477D01*
X81282183Y-59948624D01*
X81415910Y-60156441D01*
X81628110Y-60301431D01*
X81880000Y-60352440D01*
X83380000Y-60352440D01*
X83615317Y-60308162D01*
X83831441Y-60169090D01*
X83976431Y-59956890D01*
X84004759Y-59817000D01*
X84427560Y-59817000D01*
X84427560Y-59885000D01*
X84471838Y-60120317D01*
X84610910Y-60336441D01*
X84823110Y-60481431D01*
X85075000Y-60532440D01*
X86375000Y-60532440D01*
X86610317Y-60488162D01*
X86826441Y-60349090D01*
X86971431Y-60136890D01*
X87022440Y-59885000D01*
X87022440Y-58385000D01*
X86978162Y-58149683D01*
X86839090Y-57933559D01*
X86626890Y-57788569D01*
X86613803Y-57785919D01*
X86826441Y-57649090D01*
X86971431Y-57436890D01*
X87022440Y-57185000D01*
X87022440Y-56490028D01*
X87274622Y-56238286D01*
X87439313Y-55841668D01*
X87439687Y-55412216D01*
X87275689Y-55015311D01*
X86972286Y-54711378D01*
X86575668Y-54546687D01*
X86146216Y-54546313D01*
X85749311Y-54710311D01*
X85445378Y-55013714D01*
X85435476Y-55037560D01*
X85075000Y-55037560D01*
X84839683Y-55081838D01*
X84623559Y-55220910D01*
X84478569Y-55433110D01*
X84427560Y-55685000D01*
X84427560Y-57185000D01*
X84471838Y-57420317D01*
X84610910Y-57636441D01*
X84823110Y-57781431D01*
X84836197Y-57784081D01*
X84623559Y-57920910D01*
X84478569Y-58133110D01*
X84446190Y-58293000D01*
X84006366Y-58293000D01*
X83983162Y-58169683D01*
X83844090Y-57953559D01*
X83631890Y-57808569D01*
X83380000Y-57757560D01*
X81880000Y-57757560D01*
X81644683Y-57801838D01*
X81428559Y-57940910D01*
X81283569Y-58153110D01*
X81282056Y-58160579D01*
X81149000Y-57953803D01*
X81149000Y-56111140D01*
X81062299Y-55675264D01*
X81061568Y-55674170D01*
X81061568Y-55210710D01*
X81017011Y-54973911D01*
X80877063Y-54756425D01*
X80731155Y-54656730D01*
X81360050Y-54656730D01*
X81595367Y-54612452D01*
X81811491Y-54473380D01*
X81956481Y-54261180D01*
X82007490Y-54009290D01*
X82007490Y-53085032D01*
X82063996Y-53000465D01*
X82122000Y-52708860D01*
X82122000Y-51460182D01*
X82345317Y-51418162D01*
X82561441Y-51279090D01*
X82706431Y-51066890D01*
X82757440Y-50815000D01*
X82757440Y-49515000D01*
X82713162Y-49279683D01*
X82574090Y-49063559D01*
X82361890Y-48918569D01*
X82122000Y-48869990D01*
X82122000Y-36389568D01*
X83601837Y-36389568D01*
X83693123Y-36650180D01*
X84281033Y-36866645D01*
X84907028Y-36841649D01*
X85369277Y-36650180D01*
X85460563Y-36389568D01*
X84531200Y-35460205D01*
X83601837Y-36389568D01*
X82122000Y-36389568D01*
X82122000Y-35030433D01*
X82945155Y-35030433D01*
X82970151Y-35656428D01*
X83161620Y-36118677D01*
X83422232Y-36209963D01*
X84351595Y-35280600D01*
X84710805Y-35280600D01*
X85640168Y-36209963D01*
X85900780Y-36118677D01*
X86117245Y-35530767D01*
X86092249Y-34904772D01*
X85900780Y-34442523D01*
X85640168Y-34351237D01*
X84710805Y-35280600D01*
X84351595Y-35280600D01*
X83422232Y-34351237D01*
X83161620Y-34442523D01*
X82945155Y-35030433D01*
X82122000Y-35030433D01*
X82122000Y-34171632D01*
X83601837Y-34171632D01*
X84531200Y-35100995D01*
X85460563Y-34171632D01*
X85369277Y-33911020D01*
X84781367Y-33694555D01*
X84155372Y-33719551D01*
X83693123Y-33911020D01*
X83601837Y-34171632D01*
X82122000Y-34171632D01*
X82122000Y-31071273D01*
X82956127Y-31071273D01*
X83195371Y-31650287D01*
X83637983Y-32093672D01*
X84216579Y-32333926D01*
X84843073Y-32334473D01*
X85422087Y-32095229D01*
X85865472Y-31652617D01*
X86105726Y-31074021D01*
X86106273Y-30447527D01*
X85867029Y-29868513D01*
X85424417Y-29425128D01*
X84845821Y-29184874D01*
X84219327Y-29184327D01*
X83640313Y-29423571D01*
X83196928Y-29866183D01*
X82956674Y-30444779D01*
X82956127Y-31071273D01*
X82122000Y-31071273D01*
X82122000Y-30052000D01*
X82063996Y-29760395D01*
X81898815Y-29513184D01*
X79897224Y-27511593D01*
X80270900Y-27666757D01*
X80826661Y-27667242D01*
X81340303Y-27455010D01*
X81733629Y-27062370D01*
X81819949Y-26854488D01*
X81904990Y-27060303D01*
X82297630Y-27453629D01*
X82810900Y-27666757D01*
X83366661Y-27667242D01*
X83880303Y-27455010D01*
X84085457Y-27250213D01*
X84829392Y-27250213D01*
X84898857Y-27492397D01*
X85422302Y-27679144D01*
X85977368Y-27651362D01*
X86361143Y-27492397D01*
X86430608Y-27250213D01*
X85630000Y-26449605D01*
X84829392Y-27250213D01*
X84085457Y-27250213D01*
X84273629Y-27062370D01*
X84353395Y-26870273D01*
X84407603Y-27001143D01*
X84649787Y-27070608D01*
X85450395Y-26270000D01*
X85809605Y-26270000D01*
X86610213Y-27070608D01*
X86852397Y-27001143D01*
X87039144Y-26477698D01*
X87011362Y-25922632D01*
X86852397Y-25538857D01*
X86610213Y-25469392D01*
X85809605Y-26270000D01*
X85450395Y-26270000D01*
X84649787Y-25469392D01*
X84407603Y-25538857D01*
X84357491Y-25679318D01*
X84275010Y-25479697D01*
X83882370Y-25086371D01*
X83674488Y-25000051D01*
X83880303Y-24915010D01*
X84273629Y-24522370D01*
X84359949Y-24314488D01*
X84444990Y-24520303D01*
X84837630Y-24913629D01*
X85029727Y-24993395D01*
X84898857Y-25047603D01*
X84829392Y-25289787D01*
X85630000Y-26090395D01*
X86430608Y-25289787D01*
X86361143Y-25047603D01*
X86220682Y-24997491D01*
X86420303Y-24915010D01*
X86813629Y-24522370D01*
X87026757Y-24009100D01*
X87027242Y-23453339D01*
X86815010Y-22939697D01*
X86422370Y-22546371D01*
X85909100Y-22333243D01*
X85353339Y-22332758D01*
X84839697Y-22544990D01*
X84446371Y-22937630D01*
X84360051Y-23145512D01*
X84275010Y-22939697D01*
X83882370Y-22546371D01*
X83369100Y-22333243D01*
X82813339Y-22332758D01*
X82299697Y-22544990D01*
X81906371Y-22937630D01*
X81820051Y-23145512D01*
X81735010Y-22939697D01*
X81342370Y-22546371D01*
X80829100Y-22333243D01*
X80273339Y-22332758D01*
X79759697Y-22544990D01*
X79366371Y-22937630D01*
X79286605Y-23129727D01*
X79232397Y-22998857D01*
X78990213Y-22929392D01*
X78189605Y-23730000D01*
X78990213Y-24530608D01*
X79232397Y-24461143D01*
X79282509Y-24320682D01*
X79364990Y-24520303D01*
X79757630Y-24913629D01*
X79965512Y-24999949D01*
X79759697Y-25084990D01*
X79366371Y-25477630D01*
X79280051Y-25685512D01*
X79195010Y-25479697D01*
X78802370Y-25086371D01*
X78610273Y-25006605D01*
X78741143Y-24952397D01*
X78810608Y-24710213D01*
X78010000Y-23909605D01*
X77209392Y-24710213D01*
X77278857Y-24952397D01*
X77419318Y-25002509D01*
X77219697Y-25084990D01*
X76826371Y-25477630D01*
X76740051Y-25685512D01*
X76655010Y-25479697D01*
X76262370Y-25086371D01*
X76054488Y-25000051D01*
X76260303Y-24915010D01*
X76653629Y-24522370D01*
X76733395Y-24330273D01*
X76787603Y-24461143D01*
X77029787Y-24530608D01*
X77830395Y-23730000D01*
X77029787Y-22929392D01*
X76787603Y-22998857D01*
X76737491Y-23139318D01*
X76655010Y-22939697D01*
X76465432Y-22749787D01*
X77209392Y-22749787D01*
X78010000Y-23550395D01*
X78810608Y-22749787D01*
X78741143Y-22507603D01*
X78217698Y-22320856D01*
X77662632Y-22348638D01*
X77278857Y-22507603D01*
X77209392Y-22749787D01*
X76465432Y-22749787D01*
X76262370Y-22546371D01*
X75749100Y-22333243D01*
X75193339Y-22332758D01*
X74679697Y-22544990D01*
X74286371Y-22937630D01*
X74206605Y-23129727D01*
X74152397Y-22998857D01*
X73910213Y-22929392D01*
X73109605Y-23730000D01*
X73910213Y-24530608D01*
X74152397Y-24461143D01*
X74202509Y-24320682D01*
X74284990Y-24520303D01*
X74677630Y-24913629D01*
X74885512Y-24999949D01*
X74679697Y-25084990D01*
X74286371Y-25477630D01*
X74200051Y-25685512D01*
X74115010Y-25479697D01*
X73722370Y-25086371D01*
X73530273Y-25006605D01*
X73661143Y-24952397D01*
X73730608Y-24710213D01*
X72930000Y-23909605D01*
X72129392Y-24710213D01*
X72198857Y-24952397D01*
X72339318Y-25002509D01*
X72139697Y-25084990D01*
X71746371Y-25477630D01*
X71660051Y-25685512D01*
X71575010Y-25479697D01*
X71182370Y-25086371D01*
X70974488Y-25000051D01*
X71180303Y-24915010D01*
X71573629Y-24522370D01*
X71653395Y-24330273D01*
X71707603Y-24461143D01*
X71949787Y-24530608D01*
X72750395Y-23730000D01*
X71949787Y-22929392D01*
X71707603Y-22998857D01*
X71657491Y-23139318D01*
X71575010Y-22939697D01*
X71385432Y-22749787D01*
X72129392Y-22749787D01*
X72930000Y-23550395D01*
X73730608Y-22749787D01*
X73661143Y-22507603D01*
X73137698Y-22320856D01*
X72582632Y-22348638D01*
X72198857Y-22507603D01*
X72129392Y-22749787D01*
X71385432Y-22749787D01*
X71182370Y-22546371D01*
X70669100Y-22333243D01*
X70113339Y-22332758D01*
X69599697Y-22544990D01*
X69206371Y-22937630D01*
X69120051Y-23145512D01*
X69035010Y-22939697D01*
X68642370Y-22546371D01*
X68129100Y-22333243D01*
X67573339Y-22332758D01*
X67059697Y-22544990D01*
X66666371Y-22937630D01*
X66580051Y-23145512D01*
X66495010Y-22939697D01*
X66102370Y-22546371D01*
X65589100Y-22333243D01*
X65033339Y-22332758D01*
X64519697Y-22544990D01*
X64126371Y-22937630D01*
X64040051Y-23145512D01*
X63955010Y-22939697D01*
X63562370Y-22546371D01*
X63049100Y-22333243D01*
X62493339Y-22332758D01*
X61979697Y-22544990D01*
X61586371Y-22937630D01*
X61506605Y-23129727D01*
X61452397Y-22998857D01*
X61210213Y-22929392D01*
X60409605Y-23730000D01*
X61210213Y-24530608D01*
X61452397Y-24461143D01*
X61502509Y-24320682D01*
X61584990Y-24520303D01*
X61977630Y-24913629D01*
X62185512Y-24999949D01*
X61979697Y-25084990D01*
X61586371Y-25477630D01*
X61500051Y-25685512D01*
X61415010Y-25479697D01*
X61022370Y-25086371D01*
X60830273Y-25006605D01*
X60961143Y-24952397D01*
X61030608Y-24710213D01*
X60230000Y-23909605D01*
X59429392Y-24710213D01*
X59498857Y-24952397D01*
X59639318Y-25002509D01*
X59439697Y-25084990D01*
X59046371Y-25477630D01*
X58960051Y-25685512D01*
X58875010Y-25479697D01*
X58482370Y-25086371D01*
X58274488Y-25000051D01*
X58480303Y-24915010D01*
X58873629Y-24522370D01*
X58953395Y-24330273D01*
X59007603Y-24461143D01*
X59249787Y-24530608D01*
X60050395Y-23730000D01*
X59249787Y-22929392D01*
X59007603Y-22998857D01*
X58957491Y-23139318D01*
X58875010Y-22939697D01*
X58685432Y-22749787D01*
X59429392Y-22749787D01*
X60230000Y-23550395D01*
X61030608Y-22749787D01*
X60961143Y-22507603D01*
X60437698Y-22320856D01*
X59882632Y-22348638D01*
X59498857Y-22507603D01*
X59429392Y-22749787D01*
X58685432Y-22749787D01*
X58482370Y-22546371D01*
X57969100Y-22333243D01*
X57413339Y-22332758D01*
X56899697Y-22544990D01*
X56506371Y-22937630D01*
X56420051Y-23145512D01*
X56335010Y-22939697D01*
X55942370Y-22546371D01*
X55429100Y-22333243D01*
X54873339Y-22332758D01*
X54359697Y-22544990D01*
X53966371Y-22937630D01*
X53886605Y-23129727D01*
X53832397Y-22998857D01*
X53590213Y-22929392D01*
X52789605Y-23730000D01*
X53590213Y-24530608D01*
X53832397Y-24461143D01*
X53882509Y-24320682D01*
X53964990Y-24520303D01*
X54357630Y-24913629D01*
X54565512Y-24999949D01*
X54359697Y-25084990D01*
X53966371Y-25477630D01*
X53880051Y-25685512D01*
X53795010Y-25479697D01*
X53402370Y-25086371D01*
X53210273Y-25006605D01*
X53341143Y-24952397D01*
X53410608Y-24710213D01*
X52610000Y-23909605D01*
X51809392Y-24710213D01*
X51878857Y-24952397D01*
X52019318Y-25002509D01*
X51819697Y-25084990D01*
X51426371Y-25477630D01*
X51340051Y-25685512D01*
X51255010Y-25479697D01*
X50862370Y-25086371D01*
X50654488Y-25000051D01*
X50860303Y-24915010D01*
X51253629Y-24522370D01*
X51333395Y-24330273D01*
X51387603Y-24461143D01*
X51629787Y-24530608D01*
X52430395Y-23730000D01*
X51629787Y-22929392D01*
X51387603Y-22998857D01*
X51337491Y-23139318D01*
X51255010Y-22939697D01*
X51065432Y-22749787D01*
X51809392Y-22749787D01*
X52610000Y-23550395D01*
X53410608Y-22749787D01*
X53341143Y-22507603D01*
X52817698Y-22320856D01*
X52262632Y-22348638D01*
X51878857Y-22507603D01*
X51809392Y-22749787D01*
X51065432Y-22749787D01*
X50862370Y-22546371D01*
X50349100Y-22333243D01*
X49793339Y-22332758D01*
X49279697Y-22544990D01*
X48886371Y-22937630D01*
X48800051Y-23145512D01*
X48715010Y-22939697D01*
X48322370Y-22546371D01*
X47809100Y-22333243D01*
X47253339Y-22332758D01*
X46739697Y-22544990D01*
X46346371Y-22937630D01*
X46260051Y-23145512D01*
X46175010Y-22939697D01*
X45782370Y-22546371D01*
X45269100Y-22333243D01*
X44713339Y-22332758D01*
X44199697Y-22544990D01*
X43806371Y-22937630D01*
X43726605Y-23129727D01*
X43672397Y-22998857D01*
X43430213Y-22929392D01*
X42629605Y-23730000D01*
X43430213Y-24530608D01*
X43672397Y-24461143D01*
X43722509Y-24320682D01*
X43804990Y-24520303D01*
X44197630Y-24913629D01*
X44405512Y-24999949D01*
X44199697Y-25084990D01*
X43806371Y-25477630D01*
X43720051Y-25685512D01*
X43635010Y-25479697D01*
X43242370Y-25086371D01*
X43050273Y-25006605D01*
X43181143Y-24952397D01*
X43250608Y-24710213D01*
X42450000Y-23909605D01*
X41649392Y-24710213D01*
X41718857Y-24952397D01*
X41859318Y-25002509D01*
X41659697Y-25084990D01*
X41266371Y-25477630D01*
X41180051Y-25685512D01*
X41095010Y-25479697D01*
X40702370Y-25086371D01*
X40494488Y-25000051D01*
X40700303Y-24915010D01*
X41093629Y-24522370D01*
X41173395Y-24330273D01*
X41227603Y-24461143D01*
X41469787Y-24530608D01*
X42270395Y-23730000D01*
X41469787Y-22929392D01*
X41227603Y-22998857D01*
X41177491Y-23139318D01*
X41095010Y-22939697D01*
X40905432Y-22749787D01*
X41649392Y-22749787D01*
X42450000Y-23550395D01*
X43250608Y-22749787D01*
X43181143Y-22507603D01*
X42657698Y-22320856D01*
X42102632Y-22348638D01*
X41718857Y-22507603D01*
X41649392Y-22749787D01*
X40905432Y-22749787D01*
X40702370Y-22546371D01*
X40189100Y-22333243D01*
X39633339Y-22332758D01*
X39119697Y-22544990D01*
X38726371Y-22937630D01*
X38640051Y-23145512D01*
X38555010Y-22939697D01*
X38162370Y-22546371D01*
X37649100Y-22333243D01*
X37093339Y-22332758D01*
X36579697Y-22544990D01*
X36186371Y-22937630D01*
X35973243Y-23450900D01*
X35972758Y-24006661D01*
X36184990Y-24520303D01*
X36537833Y-24873763D01*
X36372683Y-24904838D01*
X36156559Y-25043910D01*
X36011569Y-25256110D01*
X35978853Y-25417665D01*
X35786794Y-22195000D01*
X87047593Y-22195000D01*
X87295180Y-26836764D01*
X87295180Y-26836764D01*
G37*
X87295180Y-26836764D02*
X87307804Y-26885571D01*
X87332197Y-26919803D01*
X89078197Y-28665803D01*
X89120211Y-28693666D01*
X89158787Y-28702665D01*
X92533000Y-28948097D01*
X92533000Y-69703000D01*
X89660000Y-69703000D01*
X89610590Y-69713006D01*
X89570197Y-69740197D01*
X86570197Y-72740197D01*
X86542334Y-72782211D01*
X86533000Y-72830000D01*
X86533000Y-76203000D01*
X36787000Y-76203000D01*
X36787000Y-72830000D01*
X36776994Y-72780590D01*
X36749803Y-72740197D01*
X33749803Y-69740197D01*
X33707789Y-69712334D01*
X33660000Y-69703000D01*
X30787000Y-69703000D01*
X30787000Y-59457000D01*
X35660000Y-59457000D01*
X35709410Y-59446994D01*
X35751035Y-59418553D01*
X35778315Y-59376159D01*
X35787000Y-59330000D01*
X35787000Y-50450750D01*
X37905000Y-50450750D01*
X37905000Y-50941310D01*
X38001673Y-51174699D01*
X38180302Y-51353327D01*
X38413691Y-51450000D01*
X39004250Y-51450000D01*
X39163000Y-51291250D01*
X39163000Y-50292000D01*
X38063750Y-50292000D01*
X37905000Y-50450750D01*
X35787000Y-50450750D01*
X35787000Y-49388690D01*
X37905000Y-49388690D01*
X37905000Y-49879250D01*
X38063750Y-50038000D01*
X39163000Y-50038000D01*
X39163000Y-49038750D01*
X39004250Y-48880000D01*
X38413691Y-48880000D01*
X38180302Y-48976673D01*
X38001673Y-49155301D01*
X37905000Y-49388690D01*
X35787000Y-49388690D01*
X35787000Y-44704000D01*
X42786560Y-44704000D01*
X42786560Y-46736000D01*
X42830838Y-46971317D01*
X42969910Y-47187441D01*
X43182110Y-47332431D01*
X43434000Y-47383440D01*
X45466000Y-47383440D01*
X45701317Y-47339162D01*
X45917441Y-47200090D01*
X46062431Y-46987890D01*
X46113440Y-46736000D01*
X46113440Y-44704000D01*
X46069162Y-44468683D01*
X45930090Y-44252559D01*
X45717890Y-44107569D01*
X45466000Y-44056560D01*
X43434000Y-44056560D01*
X43198683Y-44100838D01*
X42982559Y-44239910D01*
X42837569Y-44452110D01*
X42786560Y-44704000D01*
X35787000Y-44704000D01*
X35787000Y-39830000D01*
X35776994Y-39780590D01*
X35748553Y-39738965D01*
X35706159Y-39711685D01*
X35660000Y-39703000D01*
X30787000Y-39703000D01*
X30787000Y-36389568D01*
X38364437Y-36389568D01*
X38455723Y-36650180D01*
X39043633Y-36866645D01*
X39669628Y-36841649D01*
X40131877Y-36650180D01*
X40223163Y-36389568D01*
X44866837Y-36389568D01*
X44958123Y-36650180D01*
X45546033Y-36866645D01*
X46172028Y-36841649D01*
X46634277Y-36650180D01*
X46725563Y-36389568D01*
X45796200Y-35460205D01*
X44866837Y-36389568D01*
X40223163Y-36389568D01*
X39293800Y-35460205D01*
X38364437Y-36389568D01*
X30787000Y-36389568D01*
X30787000Y-35030433D01*
X37707755Y-35030433D01*
X37732751Y-35656428D01*
X37924220Y-36118677D01*
X38184832Y-36209963D01*
X39114195Y-35280600D01*
X39473405Y-35280600D01*
X40402768Y-36209963D01*
X40663380Y-36118677D01*
X40879845Y-35530767D01*
X40859867Y-35030433D01*
X44210155Y-35030433D01*
X44235151Y-35656428D01*
X44426620Y-36118677D01*
X44687232Y-36209963D01*
X45616595Y-35280600D01*
X45975805Y-35280600D01*
X46905168Y-36209963D01*
X47165780Y-36118677D01*
X47382245Y-35530767D01*
X47357249Y-34904772D01*
X47165780Y-34442523D01*
X46905168Y-34351237D01*
X45975805Y-35280600D01*
X45616595Y-35280600D01*
X44687232Y-34351237D01*
X44426620Y-34442523D01*
X44210155Y-35030433D01*
X40859867Y-35030433D01*
X40854849Y-34904772D01*
X40663380Y-34442523D01*
X40402768Y-34351237D01*
X39473405Y-35280600D01*
X39114195Y-35280600D01*
X38184832Y-34351237D01*
X37924220Y-34442523D01*
X37707755Y-35030433D01*
X30787000Y-35030433D01*
X30787000Y-34171632D01*
X38364437Y-34171632D01*
X39293800Y-35100995D01*
X40223163Y-34171632D01*
X44866837Y-34171632D01*
X45796200Y-35100995D01*
X46725563Y-34171632D01*
X46634277Y-33911020D01*
X46046367Y-33694555D01*
X45420372Y-33719551D01*
X44958123Y-33911020D01*
X44866837Y-34171632D01*
X40223163Y-34171632D01*
X40131877Y-33911020D01*
X39543967Y-33694555D01*
X38917972Y-33719551D01*
X38455723Y-33911020D01*
X38364437Y-34171632D01*
X30787000Y-34171632D01*
X30787000Y-31071273D01*
X37718727Y-31071273D01*
X37957971Y-31650287D01*
X38400583Y-32093672D01*
X38979179Y-32333926D01*
X39605673Y-32334473D01*
X40184687Y-32095229D01*
X40628072Y-31652617D01*
X40868326Y-31074021D01*
X40868328Y-31071273D01*
X44221127Y-31071273D01*
X44460371Y-31650287D01*
X44902983Y-32093672D01*
X45481579Y-32333926D01*
X46108073Y-32334473D01*
X46687087Y-32095229D01*
X47130472Y-31652617D01*
X47370726Y-31074021D01*
X47371273Y-30447527D01*
X47132029Y-29868513D01*
X46689417Y-29425128D01*
X46110821Y-29184874D01*
X45484327Y-29184327D01*
X44905313Y-29423571D01*
X44461928Y-29866183D01*
X44221674Y-30444779D01*
X44221127Y-31071273D01*
X40868328Y-31071273D01*
X40868873Y-30447527D01*
X40629629Y-29868513D01*
X40187017Y-29425128D01*
X39608421Y-29184874D01*
X38981927Y-29184327D01*
X38402913Y-29423571D01*
X37959528Y-29866183D01*
X37719274Y-30444779D01*
X37718727Y-31071273D01*
X30787000Y-31071273D01*
X30787000Y-28957000D01*
X33660000Y-28957000D01*
X33709410Y-28946994D01*
X33754473Y-28914875D01*
X35960560Y-26459302D01*
X35960560Y-27032000D01*
X36004838Y-27267317D01*
X36143910Y-27483441D01*
X36356110Y-27628431D01*
X36608000Y-27679440D01*
X38132000Y-27679440D01*
X38367317Y-27635162D01*
X38583441Y-27496090D01*
X38728431Y-27283890D01*
X38765492Y-27100876D01*
X39117630Y-27453629D01*
X39630900Y-27666757D01*
X40186661Y-27667242D01*
X40700303Y-27455010D01*
X41093629Y-27062370D01*
X41179949Y-26854488D01*
X41264990Y-27060303D01*
X41657630Y-27453629D01*
X42170900Y-27666757D01*
X42726661Y-27667242D01*
X43240303Y-27455010D01*
X43633629Y-27062370D01*
X43719949Y-26854488D01*
X43804990Y-27060303D01*
X44197630Y-27453629D01*
X44710900Y-27666757D01*
X45266661Y-27667242D01*
X45780303Y-27455010D01*
X45985457Y-27250213D01*
X46729392Y-27250213D01*
X46798857Y-27492397D01*
X47322302Y-27679144D01*
X47877368Y-27651362D01*
X48261143Y-27492397D01*
X48330608Y-27250213D01*
X47530000Y-26449605D01*
X46729392Y-27250213D01*
X45985457Y-27250213D01*
X46173629Y-27062370D01*
X46253395Y-26870273D01*
X46307603Y-27001143D01*
X46549787Y-27070608D01*
X47350395Y-26270000D01*
X46549787Y-25469392D01*
X46307603Y-25538857D01*
X46257491Y-25679318D01*
X46175010Y-25479697D01*
X45782370Y-25086371D01*
X45574488Y-25000051D01*
X45780303Y-24915010D01*
X46173629Y-24522370D01*
X46259949Y-24314488D01*
X46344990Y-24520303D01*
X46737630Y-24913629D01*
X46929727Y-24993395D01*
X46798857Y-25047603D01*
X46729392Y-25289787D01*
X47530000Y-26090395D01*
X48330608Y-25289787D01*
X48261143Y-25047603D01*
X48120682Y-24997491D01*
X48320303Y-24915010D01*
X48713629Y-24522370D01*
X48799949Y-24314488D01*
X48884990Y-24520303D01*
X49277630Y-24913629D01*
X49485512Y-24999949D01*
X49279697Y-25084990D01*
X48886371Y-25477630D01*
X48806605Y-25669727D01*
X48752397Y-25538857D01*
X48510213Y-25469392D01*
X47709605Y-26270000D01*
X48510213Y-27070608D01*
X48752397Y-27001143D01*
X48802509Y-26860682D01*
X48884990Y-27060303D01*
X49277630Y-27453629D01*
X49308000Y-27466240D01*
X49308000Y-46896369D01*
X46801370Y-49403000D01*
X43366366Y-49403000D01*
X43343162Y-49279683D01*
X43204090Y-49063559D01*
X42991890Y-48918569D01*
X42740000Y-48867560D01*
X41240000Y-48867560D01*
X41004683Y-48911838D01*
X40788559Y-49050910D01*
X40643569Y-49263110D01*
X40636809Y-49296490D01*
X40578327Y-49155301D01*
X40399698Y-48976673D01*
X40166309Y-48880000D01*
X39575750Y-48880000D01*
X39417000Y-49038750D01*
X39417000Y-50038000D01*
X39437000Y-50038000D01*
X39437000Y-50292000D01*
X39417000Y-50292000D01*
X39417000Y-51291250D01*
X39575750Y-51450000D01*
X40166309Y-51450000D01*
X40399698Y-51353327D01*
X40578327Y-51174699D01*
X40634654Y-51038713D01*
X40636838Y-51050317D01*
X40775910Y-51266441D01*
X40828000Y-51302033D01*
X40828000Y-51686754D01*
X40738509Y-51744340D01*
X40593519Y-51956540D01*
X40542510Y-52208430D01*
X40542510Y-54009290D01*
X40586788Y-54244607D01*
X40725860Y-54460731D01*
X40869963Y-54559192D01*
X40239950Y-54559192D01*
X40003151Y-54603749D01*
X39785665Y-54743697D01*
X39639762Y-54957233D01*
X39588432Y-55210710D01*
X39588432Y-55674170D01*
X39587701Y-55675264D01*
X39501000Y-56111140D01*
X39501000Y-57844499D01*
X39355715Y-57937987D01*
X39209812Y-58151523D01*
X39158482Y-58405000D01*
X39158482Y-59705000D01*
X39203039Y-59941799D01*
X39342987Y-60159285D01*
X39501000Y-60267251D01*
X39501000Y-62146486D01*
X39427690Y-62032559D01*
X39215490Y-61887569D01*
X38963600Y-61836560D01*
X37236400Y-61836560D01*
X37001083Y-61880838D01*
X36784959Y-62019910D01*
X36639969Y-62232110D01*
X36588960Y-62484000D01*
X36588960Y-64516000D01*
X36633238Y-64751317D01*
X36772310Y-64967441D01*
X36984510Y-65112431D01*
X37236400Y-65163440D01*
X38963600Y-65163440D01*
X39198917Y-65119162D01*
X39415041Y-64980090D01*
X39560031Y-64767890D01*
X39567291Y-64732041D01*
X39577501Y-64747322D01*
X40064980Y-65073044D01*
X40640000Y-65187423D01*
X41215020Y-65073044D01*
X41702499Y-64747322D01*
X41912385Y-64433204D01*
X42120330Y-64744415D01*
X42606511Y-65069271D01*
X43180000Y-65183345D01*
X43753489Y-65069271D01*
X44239670Y-64744415D01*
X44446461Y-64434931D01*
X44817964Y-64850732D01*
X45345209Y-65104709D01*
X45360974Y-65107358D01*
X45593000Y-64986217D01*
X45593000Y-63627000D01*
X45847000Y-63627000D01*
X45847000Y-64986217D01*
X46079026Y-65107358D01*
X46094791Y-65104709D01*
X46622036Y-64850732D01*
X47011954Y-64414320D01*
X47205184Y-63861913D01*
X47060924Y-63627000D01*
X45847000Y-63627000D01*
X45593000Y-63627000D01*
X45573000Y-63627000D01*
X45573000Y-63373000D01*
X45593000Y-63373000D01*
X45593000Y-62013783D01*
X45847000Y-62013783D01*
X45847000Y-63373000D01*
X47060924Y-63373000D01*
X47205184Y-63138087D01*
X47011954Y-62585680D01*
X46622036Y-62149268D01*
X46094791Y-61895291D01*
X46079026Y-61892642D01*
X45847000Y-62013783D01*
X45593000Y-62013783D01*
X45360974Y-61892642D01*
X45345209Y-61895291D01*
X44817964Y-62149268D01*
X44446461Y-62565069D01*
X44239670Y-62255585D01*
X43753489Y-61930729D01*
X43180000Y-61816655D01*
X42606511Y-61930729D01*
X42120330Y-62255585D01*
X41912385Y-62566796D01*
X41779000Y-62367170D01*
X41779000Y-60150477D01*
X41910188Y-59958477D01*
X41912183Y-59948624D01*
X42045910Y-60156441D01*
X42258110Y-60301431D01*
X42510000Y-60352440D01*
X44010000Y-60352440D01*
X44245317Y-60308162D01*
X44461441Y-60169090D01*
X44606431Y-59956890D01*
X44634759Y-59817000D01*
X45057560Y-59817000D01*
X45057560Y-59885000D01*
X45101838Y-60120317D01*
X45240910Y-60336441D01*
X45453110Y-60481431D01*
X45705000Y-60532440D01*
X47005000Y-60532440D01*
X47240317Y-60488162D01*
X47456441Y-60349090D01*
X47601431Y-60136890D01*
X47652440Y-59885000D01*
X47652440Y-58385000D01*
X47608162Y-58149683D01*
X47469090Y-57933559D01*
X47256890Y-57788569D01*
X47243803Y-57785919D01*
X47456441Y-57649090D01*
X47601431Y-57436890D01*
X47652440Y-57185000D01*
X47652440Y-56490028D01*
X47904622Y-56238286D01*
X48069313Y-55841668D01*
X48069687Y-55412216D01*
X47905689Y-55015311D01*
X47602286Y-54711378D01*
X47205668Y-54546687D01*
X46776216Y-54546313D01*
X46379311Y-54710311D01*
X46075378Y-55013714D01*
X46065476Y-55037560D01*
X45705000Y-55037560D01*
X45469683Y-55081838D01*
X45253559Y-55220910D01*
X45108569Y-55433110D01*
X45057560Y-55685000D01*
X45057560Y-57185000D01*
X45101838Y-57420317D01*
X45240910Y-57636441D01*
X45453110Y-57781431D01*
X45466197Y-57784081D01*
X45253559Y-57920910D01*
X45108569Y-58133110D01*
X45076190Y-58293000D01*
X44636366Y-58293000D01*
X44613162Y-58169683D01*
X44474090Y-57953559D01*
X44261890Y-57808569D01*
X44010000Y-57757560D01*
X42510000Y-57757560D01*
X42274683Y-57801838D01*
X42058559Y-57940910D01*
X41913569Y-58153110D01*
X41912056Y-58160579D01*
X41779000Y-57953803D01*
X41779000Y-56111140D01*
X41692299Y-55675264D01*
X41691568Y-55674170D01*
X41691568Y-55210710D01*
X41647011Y-54973911D01*
X41507063Y-54756425D01*
X41361155Y-54656730D01*
X41990050Y-54656730D01*
X42225367Y-54612452D01*
X42441491Y-54473380D01*
X42586481Y-54261180D01*
X42637490Y-54009290D01*
X42637490Y-52208430D01*
X42593212Y-51973113D01*
X42454140Y-51756989D01*
X42352000Y-51687200D01*
X42352000Y-51462440D01*
X42740000Y-51462440D01*
X42975317Y-51418162D01*
X43191441Y-51279090D01*
X43336431Y-51066890D01*
X43364759Y-50927000D01*
X47117000Y-50927000D01*
X47408605Y-50868996D01*
X47655815Y-50703815D01*
X47908880Y-50450750D01*
X51240000Y-50450750D01*
X51240000Y-50941310D01*
X51336673Y-51174699D01*
X51515302Y-51353327D01*
X51748691Y-51450000D01*
X52339250Y-51450000D01*
X52498000Y-51291250D01*
X52498000Y-50292000D01*
X51398750Y-50292000D01*
X51240000Y-50450750D01*
X47908880Y-50450750D01*
X48970940Y-49388690D01*
X51240000Y-49388690D01*
X51240000Y-49879250D01*
X51398750Y-50038000D01*
X52498000Y-50038000D01*
X52498000Y-49038750D01*
X52339250Y-48880000D01*
X51748691Y-48880000D01*
X51515302Y-48976673D01*
X51336673Y-49155301D01*
X51240000Y-49388690D01*
X48970940Y-49388690D01*
X50608816Y-47750815D01*
X50707834Y-47602623D01*
X50773996Y-47503605D01*
X50832000Y-47212000D01*
X50832000Y-36389568D01*
X51699437Y-36389568D01*
X51790723Y-36650180D01*
X52378633Y-36866645D01*
X53004628Y-36841649D01*
X53466877Y-36650180D01*
X53558163Y-36389568D01*
X52628800Y-35460205D01*
X51699437Y-36389568D01*
X50832000Y-36389568D01*
X50832000Y-35030433D01*
X51042755Y-35030433D01*
X51067751Y-35656428D01*
X51259220Y-36118677D01*
X51519832Y-36209963D01*
X52449195Y-35280600D01*
X52808405Y-35280600D01*
X53737768Y-36209963D01*
X53998380Y-36118677D01*
X54214845Y-35530767D01*
X54189849Y-34904772D01*
X53998380Y-34442523D01*
X53737768Y-34351237D01*
X52808405Y-35280600D01*
X52449195Y-35280600D01*
X51519832Y-34351237D01*
X51259220Y-34442523D01*
X51042755Y-35030433D01*
X50832000Y-35030433D01*
X50832000Y-34171632D01*
X51699437Y-34171632D01*
X52628800Y-35100995D01*
X53558163Y-34171632D01*
X53466877Y-33911020D01*
X52878967Y-33694555D01*
X52252972Y-33719551D01*
X51790723Y-33911020D01*
X51699437Y-34171632D01*
X50832000Y-34171632D01*
X50832000Y-31071273D01*
X51053727Y-31071273D01*
X51292971Y-31650287D01*
X51735583Y-32093672D01*
X52314179Y-32333926D01*
X52940673Y-32334473D01*
X53519687Y-32095229D01*
X53963072Y-31652617D01*
X54203326Y-31074021D01*
X54203873Y-30447527D01*
X53964629Y-29868513D01*
X53522017Y-29425128D01*
X52943421Y-29184874D01*
X52316927Y-29184327D01*
X51737913Y-29423571D01*
X51294528Y-29866183D01*
X51054274Y-30444779D01*
X51053727Y-31071273D01*
X50832000Y-31071273D01*
X50832000Y-27466705D01*
X50860303Y-27455010D01*
X51253629Y-27062370D01*
X51339949Y-26854488D01*
X51424990Y-27060303D01*
X51817630Y-27453629D01*
X52330900Y-27666757D01*
X52886661Y-27667242D01*
X53400303Y-27455010D01*
X53793629Y-27062370D01*
X53879949Y-26854488D01*
X53964990Y-27060303D01*
X54357630Y-27453629D01*
X54870900Y-27666757D01*
X55426661Y-27667242D01*
X55626000Y-27584877D01*
X55626000Y-48786370D01*
X55544810Y-48867560D01*
X54575000Y-48867560D01*
X54339683Y-48911838D01*
X54123559Y-49050910D01*
X53978569Y-49263110D01*
X53971809Y-49296490D01*
X53913327Y-49155301D01*
X53734698Y-48976673D01*
X53501309Y-48880000D01*
X52910750Y-48880000D01*
X52752000Y-49038750D01*
X52752000Y-50038000D01*
X52772000Y-50038000D01*
X52772000Y-50292000D01*
X52752000Y-50292000D01*
X52752000Y-51291250D01*
X52910750Y-51450000D01*
X53501309Y-51450000D01*
X53734698Y-51353327D01*
X53913327Y-51174699D01*
X53969654Y-51038713D01*
X53971838Y-51050317D01*
X54110910Y-51266441D01*
X54163000Y-51302033D01*
X54163000Y-51686754D01*
X54073509Y-51744340D01*
X53928519Y-51956540D01*
X53877510Y-52208430D01*
X53877510Y-54009290D01*
X53921788Y-54244607D01*
X54060860Y-54460731D01*
X54204963Y-54559192D01*
X53574950Y-54559192D01*
X53338151Y-54603749D01*
X53120665Y-54743697D01*
X52974762Y-54957233D01*
X52923432Y-55210710D01*
X52923432Y-55674170D01*
X52922701Y-55675264D01*
X52836000Y-56111140D01*
X52836000Y-57844499D01*
X52690715Y-57937987D01*
X52544812Y-58151523D01*
X52493482Y-58405000D01*
X52493482Y-59705000D01*
X52538039Y-59941799D01*
X52677987Y-60159285D01*
X52836000Y-60267251D01*
X52836000Y-62146486D01*
X52762690Y-62032559D01*
X52550490Y-61887569D01*
X52298600Y-61836560D01*
X50571400Y-61836560D01*
X50336083Y-61880838D01*
X50119959Y-62019910D01*
X49974969Y-62232110D01*
X49923960Y-62484000D01*
X49923960Y-64516000D01*
X49968238Y-64751317D01*
X50107310Y-64967441D01*
X50319510Y-65112431D01*
X50571400Y-65163440D01*
X52298600Y-65163440D01*
X52533917Y-65119162D01*
X52750041Y-64980090D01*
X52895031Y-64767890D01*
X52902291Y-64732041D01*
X52912501Y-64747322D01*
X53399980Y-65073044D01*
X53975000Y-65187423D01*
X54550020Y-65073044D01*
X55037499Y-64747322D01*
X55247385Y-64433204D01*
X55455330Y-64744415D01*
X55941511Y-65069271D01*
X56515000Y-65183345D01*
X57088489Y-65069271D01*
X57574670Y-64744415D01*
X57781461Y-64434931D01*
X58152964Y-64850732D01*
X58680209Y-65104709D01*
X58695974Y-65107358D01*
X58928000Y-64986217D01*
X58928000Y-63627000D01*
X59182000Y-63627000D01*
X59182000Y-64986217D01*
X59414026Y-65107358D01*
X59429791Y-65104709D01*
X59957036Y-64850732D01*
X60346954Y-64414320D01*
X60540184Y-63861913D01*
X60395924Y-63627000D01*
X59182000Y-63627000D01*
X58928000Y-63627000D01*
X58908000Y-63627000D01*
X58908000Y-63373000D01*
X58928000Y-63373000D01*
X58928000Y-62013783D01*
X59182000Y-62013783D01*
X59182000Y-63373000D01*
X60395924Y-63373000D01*
X60540184Y-63138087D01*
X60346954Y-62585680D01*
X59957036Y-62149268D01*
X59429791Y-61895291D01*
X59414026Y-61892642D01*
X59182000Y-62013783D01*
X58928000Y-62013783D01*
X58695974Y-61892642D01*
X58680209Y-61895291D01*
X58152964Y-62149268D01*
X57781461Y-62565069D01*
X57574670Y-62255585D01*
X57088489Y-61930729D01*
X56515000Y-61816655D01*
X55941511Y-61930729D01*
X55455330Y-62255585D01*
X55247385Y-62566796D01*
X55114000Y-62367170D01*
X55114000Y-60150477D01*
X55245188Y-59958477D01*
X55247183Y-59948624D01*
X55380910Y-60156441D01*
X55593110Y-60301431D01*
X55845000Y-60352440D01*
X57345000Y-60352440D01*
X57580317Y-60308162D01*
X57796441Y-60169090D01*
X57941431Y-59956890D01*
X57969759Y-59817000D01*
X58392560Y-59817000D01*
X58392560Y-59885000D01*
X58436838Y-60120317D01*
X58575910Y-60336441D01*
X58788110Y-60481431D01*
X59040000Y-60532440D01*
X60340000Y-60532440D01*
X60575317Y-60488162D01*
X60791441Y-60349090D01*
X60936431Y-60136890D01*
X60987440Y-59885000D01*
X60987440Y-58385000D01*
X60943162Y-58149683D01*
X60804090Y-57933559D01*
X60591890Y-57788569D01*
X60578803Y-57785919D01*
X60791441Y-57649090D01*
X60936431Y-57436890D01*
X60987440Y-57185000D01*
X60987440Y-56572781D01*
X61062689Y-56541689D01*
X61366622Y-56238286D01*
X61531313Y-55841668D01*
X61531687Y-55412216D01*
X61367689Y-55015311D01*
X61064286Y-54711378D01*
X60667668Y-54546687D01*
X60238216Y-54546313D01*
X59841311Y-54710311D01*
X59537378Y-55013714D01*
X59527476Y-55037560D01*
X59040000Y-55037560D01*
X58804683Y-55081838D01*
X58588559Y-55220910D01*
X58443569Y-55433110D01*
X58392560Y-55685000D01*
X58392560Y-57185000D01*
X58436838Y-57420317D01*
X58575910Y-57636441D01*
X58788110Y-57781431D01*
X58801197Y-57784081D01*
X58588559Y-57920910D01*
X58443569Y-58133110D01*
X58411190Y-58293000D01*
X57971366Y-58293000D01*
X57948162Y-58169683D01*
X57809090Y-57953559D01*
X57596890Y-57808569D01*
X57345000Y-57757560D01*
X55845000Y-57757560D01*
X55609683Y-57801838D01*
X55393559Y-57940910D01*
X55248569Y-58153110D01*
X55247056Y-58160579D01*
X55114000Y-57953803D01*
X55114000Y-56111140D01*
X55027299Y-55675264D01*
X55026568Y-55674170D01*
X55026568Y-55210710D01*
X54982011Y-54973911D01*
X54842063Y-54756425D01*
X54696155Y-54656730D01*
X55325050Y-54656730D01*
X55560367Y-54612452D01*
X55776491Y-54473380D01*
X55921481Y-54261180D01*
X55972490Y-54009290D01*
X55972490Y-52208430D01*
X55928212Y-51973113D01*
X55789140Y-51756989D01*
X55687000Y-51687200D01*
X55687000Y-51462440D01*
X56075000Y-51462440D01*
X56310317Y-51418162D01*
X56526441Y-51279090D01*
X56671431Y-51066890D01*
X56722440Y-50815000D01*
X56722440Y-50450750D01*
X64575000Y-50450750D01*
X64575000Y-50941310D01*
X64671673Y-51174699D01*
X64850302Y-51353327D01*
X65083691Y-51450000D01*
X65674250Y-51450000D01*
X65833000Y-51291250D01*
X65833000Y-50292000D01*
X64733750Y-50292000D01*
X64575000Y-50450750D01*
X56722440Y-50450750D01*
X56722440Y-49845190D01*
X56926815Y-49640815D01*
X57046961Y-49461004D01*
X57091996Y-49393605D01*
X57092973Y-49388690D01*
X64575000Y-49388690D01*
X64575000Y-49879250D01*
X64733750Y-50038000D01*
X65833000Y-50038000D01*
X65833000Y-49038750D01*
X65674250Y-48880000D01*
X65083691Y-48880000D01*
X64850302Y-48976673D01*
X64671673Y-49155301D01*
X64575000Y-49388690D01*
X57092973Y-49388690D01*
X57150000Y-49102000D01*
X57150000Y-36389568D01*
X58201837Y-36389568D01*
X58293123Y-36650180D01*
X58881033Y-36866645D01*
X59507028Y-36841649D01*
X59969277Y-36650180D01*
X60060563Y-36389568D01*
X64399437Y-36389568D01*
X64490723Y-36650180D01*
X65078633Y-36866645D01*
X65704628Y-36841649D01*
X66166877Y-36650180D01*
X66258163Y-36389568D01*
X65328800Y-35460205D01*
X64399437Y-36389568D01*
X60060563Y-36389568D01*
X59131200Y-35460205D01*
X58201837Y-36389568D01*
X57150000Y-36389568D01*
X57150000Y-35030433D01*
X57545155Y-35030433D01*
X57570151Y-35656428D01*
X57761620Y-36118677D01*
X58022232Y-36209963D01*
X58951595Y-35280600D01*
X59310805Y-35280600D01*
X60240168Y-36209963D01*
X60500780Y-36118677D01*
X60717245Y-35530767D01*
X60697267Y-35030433D01*
X63742755Y-35030433D01*
X63767751Y-35656428D01*
X63959220Y-36118677D01*
X64219832Y-36209963D01*
X65149195Y-35280600D01*
X65508405Y-35280600D01*
X66437768Y-36209963D01*
X66698380Y-36118677D01*
X66914845Y-35530767D01*
X66889849Y-34904772D01*
X66698380Y-34442523D01*
X66437768Y-34351237D01*
X65508405Y-35280600D01*
X65149195Y-35280600D01*
X64219832Y-34351237D01*
X63959220Y-34442523D01*
X63742755Y-35030433D01*
X60697267Y-35030433D01*
X60692249Y-34904772D01*
X60500780Y-34442523D01*
X60240168Y-34351237D01*
X59310805Y-35280600D01*
X58951595Y-35280600D01*
X58022232Y-34351237D01*
X57761620Y-34442523D01*
X57545155Y-35030433D01*
X57150000Y-35030433D01*
X57150000Y-34171632D01*
X58201837Y-34171632D01*
X59131200Y-35100995D01*
X60060563Y-34171632D01*
X64399437Y-34171632D01*
X65328800Y-35100995D01*
X66258163Y-34171632D01*
X66166877Y-33911020D01*
X65578967Y-33694555D01*
X64952972Y-33719551D01*
X64490723Y-33911020D01*
X64399437Y-34171632D01*
X60060563Y-34171632D01*
X59969277Y-33911020D01*
X59381367Y-33694555D01*
X58755372Y-33719551D01*
X58293123Y-33911020D01*
X58201837Y-34171632D01*
X57150000Y-34171632D01*
X57150000Y-31071273D01*
X57556127Y-31071273D01*
X57795371Y-31650287D01*
X58237983Y-32093672D01*
X58816579Y-32333926D01*
X59443073Y-32334473D01*
X60022087Y-32095229D01*
X60465472Y-31652617D01*
X60705726Y-31074021D01*
X60705728Y-31071273D01*
X63753727Y-31071273D01*
X63992971Y-31650287D01*
X64435583Y-32093672D01*
X65014179Y-32333926D01*
X65640673Y-32334473D01*
X66219687Y-32095229D01*
X66663072Y-31652617D01*
X66903326Y-31074021D01*
X66903873Y-30447527D01*
X66664629Y-29868513D01*
X66222017Y-29425128D01*
X65643421Y-29184874D01*
X65016927Y-29184327D01*
X64437913Y-29423571D01*
X63994528Y-29866183D01*
X63754274Y-30444779D01*
X63753727Y-31071273D01*
X60705728Y-31071273D01*
X60706273Y-30447527D01*
X60467029Y-29868513D01*
X60024417Y-29425128D01*
X59445821Y-29184874D01*
X58819327Y-29184327D01*
X58240313Y-29423571D01*
X57796928Y-29866183D01*
X57556674Y-30444779D01*
X57556127Y-31071273D01*
X57150000Y-31071273D01*
X57150000Y-27558422D01*
X57410900Y-27666757D01*
X57966661Y-27667242D01*
X58480303Y-27455010D01*
X58873629Y-27062370D01*
X58959949Y-26854488D01*
X59044990Y-27060303D01*
X59437630Y-27453629D01*
X59950900Y-27666757D01*
X60506661Y-27667242D01*
X61020303Y-27455010D01*
X61413629Y-27062370D01*
X61499949Y-26854488D01*
X61584990Y-27060303D01*
X61977630Y-27453629D01*
X62490900Y-27666757D01*
X63046661Y-27667242D01*
X63560303Y-27455010D01*
X63953629Y-27062370D01*
X64039949Y-26854488D01*
X64124990Y-27060303D01*
X64517630Y-27453629D01*
X65030900Y-27666757D01*
X65586661Y-27667242D01*
X66100303Y-27455010D01*
X66305457Y-27250213D01*
X67049392Y-27250213D01*
X67118857Y-27492397D01*
X67642302Y-27679144D01*
X68197368Y-27651362D01*
X68581143Y-27492397D01*
X68650608Y-27250213D01*
X67850000Y-26449605D01*
X67049392Y-27250213D01*
X66305457Y-27250213D01*
X66493629Y-27062370D01*
X66573395Y-26870273D01*
X66627603Y-27001143D01*
X66869787Y-27070608D01*
X67670395Y-26270000D01*
X66869787Y-25469392D01*
X66627603Y-25538857D01*
X66577491Y-25679318D01*
X66495010Y-25479697D01*
X66102370Y-25086371D01*
X65894488Y-25000051D01*
X66100303Y-24915010D01*
X66493629Y-24522370D01*
X66579949Y-24314488D01*
X66664990Y-24520303D01*
X67057630Y-24913629D01*
X67249727Y-24993395D01*
X67118857Y-25047603D01*
X67049392Y-25289787D01*
X67850000Y-26090395D01*
X68650608Y-25289787D01*
X68581143Y-25047603D01*
X68440682Y-24997491D01*
X68640303Y-24915010D01*
X69033629Y-24522370D01*
X69119949Y-24314488D01*
X69204990Y-24520303D01*
X69597630Y-24913629D01*
X69805512Y-24999949D01*
X69599697Y-25084990D01*
X69206371Y-25477630D01*
X69126605Y-25669727D01*
X69072397Y-25538857D01*
X68830213Y-25469392D01*
X68029605Y-26270000D01*
X68830213Y-27070608D01*
X69072397Y-27001143D01*
X69122509Y-26860682D01*
X69204990Y-27060303D01*
X69597630Y-27453629D01*
X70110900Y-27666757D01*
X70666661Y-27667242D01*
X71180303Y-27455010D01*
X71573629Y-27062370D01*
X71659949Y-26854488D01*
X71744990Y-27060303D01*
X71841444Y-27156926D01*
X68121185Y-30877185D01*
X67956004Y-31124395D01*
X67898000Y-31416000D01*
X67898000Y-48869818D01*
X67674683Y-48911838D01*
X67458559Y-49050910D01*
X67313569Y-49263110D01*
X67306809Y-49296490D01*
X67248327Y-49155301D01*
X67069698Y-48976673D01*
X66836309Y-48880000D01*
X66245750Y-48880000D01*
X66087000Y-49038750D01*
X66087000Y-50038000D01*
X66107000Y-50038000D01*
X66107000Y-50292000D01*
X66087000Y-50292000D01*
X66087000Y-51291250D01*
X66245750Y-51450000D01*
X66836309Y-51450000D01*
X67069698Y-51353327D01*
X67248327Y-51174699D01*
X67304654Y-51038713D01*
X67306838Y-51050317D01*
X67445910Y-51266441D01*
X67658110Y-51411431D01*
X67898000Y-51460010D01*
X67898000Y-51560990D01*
X67859950Y-51560990D01*
X67624633Y-51605268D01*
X67408509Y-51744340D01*
X67263519Y-51956540D01*
X67212510Y-52208430D01*
X67212510Y-54009290D01*
X67256788Y-54244607D01*
X67395860Y-54460731D01*
X67539963Y-54559192D01*
X66909950Y-54559192D01*
X66673151Y-54603749D01*
X66455665Y-54743697D01*
X66309762Y-54957233D01*
X66258432Y-55210710D01*
X66258432Y-55674170D01*
X66257701Y-55675264D01*
X66171000Y-56111140D01*
X66171000Y-57844499D01*
X66025715Y-57937987D01*
X65879812Y-58151523D01*
X65828482Y-58405000D01*
X65828482Y-59705000D01*
X65873039Y-59941799D01*
X66012987Y-60159285D01*
X66171000Y-60267251D01*
X66171000Y-62146486D01*
X66097690Y-62032559D01*
X65885490Y-61887569D01*
X65633600Y-61836560D01*
X63906400Y-61836560D01*
X63671083Y-61880838D01*
X63454959Y-62019910D01*
X63309969Y-62232110D01*
X63258960Y-62484000D01*
X63258960Y-64516000D01*
X63303238Y-64751317D01*
X63442310Y-64967441D01*
X63654510Y-65112431D01*
X63906400Y-65163440D01*
X65633600Y-65163440D01*
X65868917Y-65119162D01*
X66085041Y-64980090D01*
X66230031Y-64767890D01*
X66237291Y-64732041D01*
X66247501Y-64747322D01*
X66734980Y-65073044D01*
X67310000Y-65187423D01*
X67885020Y-65073044D01*
X68372499Y-64747322D01*
X68582385Y-64433204D01*
X68790330Y-64744415D01*
X69276511Y-65069271D01*
X69850000Y-65183345D01*
X70423489Y-65069271D01*
X70909670Y-64744415D01*
X71116461Y-64434931D01*
X71487964Y-64850732D01*
X72015209Y-65104709D01*
X72030974Y-65107358D01*
X72263000Y-64986217D01*
X72263000Y-63627000D01*
X72517000Y-63627000D01*
X72517000Y-64986217D01*
X72749026Y-65107358D01*
X72764791Y-65104709D01*
X73292036Y-64850732D01*
X73681954Y-64414320D01*
X73875184Y-63861913D01*
X73730924Y-63627000D01*
X72517000Y-63627000D01*
X72263000Y-63627000D01*
X72243000Y-63627000D01*
X72243000Y-63373000D01*
X72263000Y-63373000D01*
X72263000Y-62013783D01*
X72517000Y-62013783D01*
X72517000Y-63373000D01*
X73730924Y-63373000D01*
X73875184Y-63138087D01*
X73681954Y-62585680D01*
X73292036Y-62149268D01*
X72764791Y-61895291D01*
X72749026Y-61892642D01*
X72517000Y-62013783D01*
X72263000Y-62013783D01*
X72030974Y-61892642D01*
X72015209Y-61895291D01*
X71487964Y-62149268D01*
X71116461Y-62565069D01*
X70909670Y-62255585D01*
X70423489Y-61930729D01*
X69850000Y-61816655D01*
X69276511Y-61930729D01*
X68790330Y-62255585D01*
X68582385Y-62566796D01*
X68449000Y-62367170D01*
X68449000Y-60150477D01*
X68580188Y-59958477D01*
X68582183Y-59948624D01*
X68715910Y-60156441D01*
X68928110Y-60301431D01*
X69180000Y-60352440D01*
X70680000Y-60352440D01*
X70915317Y-60308162D01*
X71131441Y-60169090D01*
X71276431Y-59956890D01*
X71304759Y-59817000D01*
X71727560Y-59817000D01*
X71727560Y-59885000D01*
X71771838Y-60120317D01*
X71910910Y-60336441D01*
X72123110Y-60481431D01*
X72375000Y-60532440D01*
X73675000Y-60532440D01*
X73910317Y-60488162D01*
X74126441Y-60349090D01*
X74271431Y-60136890D01*
X74322440Y-59885000D01*
X74322440Y-58385000D01*
X74278162Y-58149683D01*
X74139090Y-57933559D01*
X73926890Y-57788569D01*
X73913803Y-57785919D01*
X74126441Y-57649090D01*
X74271431Y-57436890D01*
X74322440Y-57185000D01*
X74322440Y-56490028D01*
X74574622Y-56238286D01*
X74739313Y-55841668D01*
X74739687Y-55412216D01*
X74575689Y-55015311D01*
X74272286Y-54711378D01*
X73875668Y-54546687D01*
X73446216Y-54546313D01*
X73049311Y-54710311D01*
X72745378Y-55013714D01*
X72735476Y-55037560D01*
X72375000Y-55037560D01*
X72139683Y-55081838D01*
X71923559Y-55220910D01*
X71778569Y-55433110D01*
X71727560Y-55685000D01*
X71727560Y-57185000D01*
X71771838Y-57420317D01*
X71910910Y-57636441D01*
X72123110Y-57781431D01*
X72136197Y-57784081D01*
X71923559Y-57920910D01*
X71778569Y-58133110D01*
X71746190Y-58293000D01*
X71306366Y-58293000D01*
X71283162Y-58169683D01*
X71144090Y-57953559D01*
X70931890Y-57808569D01*
X70680000Y-57757560D01*
X69180000Y-57757560D01*
X68944683Y-57801838D01*
X68728559Y-57940910D01*
X68583569Y-58153110D01*
X68582056Y-58160579D01*
X68449000Y-57953803D01*
X68449000Y-56111140D01*
X68362299Y-55675264D01*
X68361568Y-55674170D01*
X68361568Y-55210710D01*
X68317011Y-54973911D01*
X68177063Y-54756425D01*
X68031155Y-54656730D01*
X68660050Y-54656730D01*
X68895367Y-54612452D01*
X69111491Y-54473380D01*
X69256481Y-54261180D01*
X69307490Y-54009290D01*
X69307490Y-53085032D01*
X69363996Y-53000465D01*
X69422000Y-52708860D01*
X69422000Y-51460182D01*
X69645317Y-51418162D01*
X69861441Y-51279090D01*
X70006431Y-51066890D01*
X70057440Y-50815000D01*
X70057440Y-50450750D01*
X77275000Y-50450750D01*
X77275000Y-50941310D01*
X77371673Y-51174699D01*
X77550302Y-51353327D01*
X77783691Y-51450000D01*
X78374250Y-51450000D01*
X78533000Y-51291250D01*
X78533000Y-50292000D01*
X77433750Y-50292000D01*
X77275000Y-50450750D01*
X70057440Y-50450750D01*
X70057440Y-49515000D01*
X70033674Y-49388690D01*
X77275000Y-49388690D01*
X77275000Y-49879250D01*
X77433750Y-50038000D01*
X78533000Y-50038000D01*
X78533000Y-49038750D01*
X78374250Y-48880000D01*
X77783691Y-48880000D01*
X77550302Y-48976673D01*
X77371673Y-49155301D01*
X77275000Y-49388690D01*
X70033674Y-49388690D01*
X70013162Y-49279683D01*
X69874090Y-49063559D01*
X69661890Y-48918569D01*
X69422000Y-48869990D01*
X69422000Y-36389568D01*
X70901837Y-36389568D01*
X70993123Y-36650180D01*
X71581033Y-36866645D01*
X72207028Y-36841649D01*
X72669277Y-36650180D01*
X72760563Y-36389568D01*
X77099437Y-36389568D01*
X77190723Y-36650180D01*
X77778633Y-36866645D01*
X78404628Y-36841649D01*
X78866877Y-36650180D01*
X78958163Y-36389568D01*
X78028800Y-35460205D01*
X77099437Y-36389568D01*
X72760563Y-36389568D01*
X71831200Y-35460205D01*
X70901837Y-36389568D01*
X69422000Y-36389568D01*
X69422000Y-35030433D01*
X70245155Y-35030433D01*
X70270151Y-35656428D01*
X70461620Y-36118677D01*
X70722232Y-36209963D01*
X71651595Y-35280600D01*
X72010805Y-35280600D01*
X72940168Y-36209963D01*
X73200780Y-36118677D01*
X73417245Y-35530767D01*
X73397267Y-35030433D01*
X76442755Y-35030433D01*
X76467751Y-35656428D01*
X76659220Y-36118677D01*
X76919832Y-36209963D01*
X77849195Y-35280600D01*
X78208405Y-35280600D01*
X79137768Y-36209963D01*
X79398380Y-36118677D01*
X79614845Y-35530767D01*
X79589849Y-34904772D01*
X79398380Y-34442523D01*
X79137768Y-34351237D01*
X78208405Y-35280600D01*
X77849195Y-35280600D01*
X76919832Y-34351237D01*
X76659220Y-34442523D01*
X76442755Y-35030433D01*
X73397267Y-35030433D01*
X73392249Y-34904772D01*
X73200780Y-34442523D01*
X72940168Y-34351237D01*
X72010805Y-35280600D01*
X71651595Y-35280600D01*
X70722232Y-34351237D01*
X70461620Y-34442523D01*
X70245155Y-35030433D01*
X69422000Y-35030433D01*
X69422000Y-34171632D01*
X70901837Y-34171632D01*
X71831200Y-35100995D01*
X72760563Y-34171632D01*
X77099437Y-34171632D01*
X78028800Y-35100995D01*
X78958163Y-34171632D01*
X78866877Y-33911020D01*
X78278967Y-33694555D01*
X77652972Y-33719551D01*
X77190723Y-33911020D01*
X77099437Y-34171632D01*
X72760563Y-34171632D01*
X72669277Y-33911020D01*
X72081367Y-33694555D01*
X71455372Y-33719551D01*
X70993123Y-33911020D01*
X70901837Y-34171632D01*
X69422000Y-34171632D01*
X69422000Y-31731630D01*
X70256279Y-30897351D01*
X70256127Y-31071273D01*
X70495371Y-31650287D01*
X70937983Y-32093672D01*
X71516579Y-32333926D01*
X72143073Y-32334473D01*
X72722087Y-32095229D01*
X73165472Y-31652617D01*
X73405726Y-31074021D01*
X73405728Y-31071273D01*
X76453727Y-31071273D01*
X76692971Y-31650287D01*
X77135583Y-32093672D01*
X77714179Y-32333926D01*
X78340673Y-32334473D01*
X78919687Y-32095229D01*
X79363072Y-31652617D01*
X79603326Y-31074021D01*
X79603873Y-30447527D01*
X79364629Y-29868513D01*
X78922017Y-29425128D01*
X78343421Y-29184874D01*
X77716927Y-29184327D01*
X77137913Y-29423571D01*
X76694528Y-29866183D01*
X76454274Y-30444779D01*
X76453727Y-31071273D01*
X73405728Y-31071273D01*
X73406273Y-30447527D01*
X73167029Y-29868513D01*
X72724417Y-29425128D01*
X72145821Y-29184874D01*
X71968910Y-29184720D01*
X73468815Y-27684815D01*
X73585015Y-27510910D01*
X73720303Y-27455010D01*
X74113629Y-27062370D01*
X74199949Y-26854488D01*
X74284990Y-27060303D01*
X74677630Y-27453629D01*
X75190900Y-27666757D01*
X75746661Y-27667242D01*
X76260303Y-27455010D01*
X76653629Y-27062370D01*
X76739949Y-26854488D01*
X76824990Y-27060303D01*
X77217630Y-27453629D01*
X77730900Y-27666757D01*
X77897272Y-27666902D01*
X80598000Y-30367631D01*
X80598000Y-48869818D01*
X80374683Y-48911838D01*
X80158559Y-49050910D01*
X80013569Y-49263110D01*
X80006809Y-49296490D01*
X79948327Y-49155301D01*
X79769698Y-48976673D01*
X79536309Y-48880000D01*
X78945750Y-48880000D01*
X78787000Y-49038750D01*
X78787000Y-50038000D01*
X78807000Y-50038000D01*
X78807000Y-50292000D01*
X78787000Y-50292000D01*
X78787000Y-51291250D01*
X78945750Y-51450000D01*
X79536309Y-51450000D01*
X79769698Y-51353327D01*
X79948327Y-51174699D01*
X80004654Y-51038713D01*
X80006838Y-51050317D01*
X80145910Y-51266441D01*
X80358110Y-51411431D01*
X80598000Y-51460010D01*
X80598000Y-51560990D01*
X80559950Y-51560990D01*
X80324633Y-51605268D01*
X80108509Y-51744340D01*
X79963519Y-51956540D01*
X79912510Y-52208430D01*
X79912510Y-54009290D01*
X79956788Y-54244607D01*
X80095860Y-54460731D01*
X80239963Y-54559192D01*
X79609950Y-54559192D01*
X79373151Y-54603749D01*
X79155665Y-54743697D01*
X79009762Y-54957233D01*
X78958432Y-55210710D01*
X78958432Y-55674170D01*
X78957701Y-55675264D01*
X78871000Y-56111140D01*
X78871000Y-57844499D01*
X78725715Y-57937987D01*
X78579812Y-58151523D01*
X78528482Y-58405000D01*
X78528482Y-59705000D01*
X78573039Y-59941799D01*
X78712987Y-60159285D01*
X78871000Y-60267251D01*
X78871000Y-62146486D01*
X78797690Y-62032559D01*
X78585490Y-61887569D01*
X78333600Y-61836560D01*
X76606400Y-61836560D01*
X76371083Y-61880838D01*
X76154959Y-62019910D01*
X76009969Y-62232110D01*
X75958960Y-62484000D01*
X75958960Y-64516000D01*
X76003238Y-64751317D01*
X76142310Y-64967441D01*
X76354510Y-65112431D01*
X76606400Y-65163440D01*
X78333600Y-65163440D01*
X78568917Y-65119162D01*
X78785041Y-64980090D01*
X78930031Y-64767890D01*
X78937291Y-64732041D01*
X78947501Y-64747322D01*
X79434980Y-65073044D01*
X80010000Y-65187423D01*
X80585020Y-65073044D01*
X81072499Y-64747322D01*
X81282385Y-64433204D01*
X81490330Y-64744415D01*
X81976511Y-65069271D01*
X82550000Y-65183345D01*
X83123489Y-65069271D01*
X83609670Y-64744415D01*
X83816461Y-64434931D01*
X84187964Y-64850732D01*
X84715209Y-65104709D01*
X84730974Y-65107358D01*
X84963000Y-64986217D01*
X84963000Y-63627000D01*
X85217000Y-63627000D01*
X85217000Y-64986217D01*
X85449026Y-65107358D01*
X85464791Y-65104709D01*
X85992036Y-64850732D01*
X86381954Y-64414320D01*
X86575184Y-63861913D01*
X86430924Y-63627000D01*
X85217000Y-63627000D01*
X84963000Y-63627000D01*
X84943000Y-63627000D01*
X84943000Y-63373000D01*
X84963000Y-63373000D01*
X84963000Y-62013783D01*
X85217000Y-62013783D01*
X85217000Y-63373000D01*
X86430924Y-63373000D01*
X86575184Y-63138087D01*
X86381954Y-62585680D01*
X85992036Y-62149268D01*
X85464791Y-61895291D01*
X85449026Y-61892642D01*
X85217000Y-62013783D01*
X84963000Y-62013783D01*
X84730974Y-61892642D01*
X84715209Y-61895291D01*
X84187964Y-62149268D01*
X83816461Y-62565069D01*
X83609670Y-62255585D01*
X83123489Y-61930729D01*
X82550000Y-61816655D01*
X81976511Y-61930729D01*
X81490330Y-62255585D01*
X81282385Y-62566796D01*
X81149000Y-62367170D01*
X81149000Y-60150477D01*
X81280188Y-59958477D01*
X81282183Y-59948624D01*
X81415910Y-60156441D01*
X81628110Y-60301431D01*
X81880000Y-60352440D01*
X83380000Y-60352440D01*
X83615317Y-60308162D01*
X83831441Y-60169090D01*
X83976431Y-59956890D01*
X84004759Y-59817000D01*
X84427560Y-59817000D01*
X84427560Y-59885000D01*
X84471838Y-60120317D01*
X84610910Y-60336441D01*
X84823110Y-60481431D01*
X85075000Y-60532440D01*
X86375000Y-60532440D01*
X86610317Y-60488162D01*
X86826441Y-60349090D01*
X86971431Y-60136890D01*
X87022440Y-59885000D01*
X87022440Y-58385000D01*
X86978162Y-58149683D01*
X86839090Y-57933559D01*
X86626890Y-57788569D01*
X86613803Y-57785919D01*
X86826441Y-57649090D01*
X86971431Y-57436890D01*
X87022440Y-57185000D01*
X87022440Y-56490028D01*
X87274622Y-56238286D01*
X87439313Y-55841668D01*
X87439687Y-55412216D01*
X87275689Y-55015311D01*
X86972286Y-54711378D01*
X86575668Y-54546687D01*
X86146216Y-54546313D01*
X85749311Y-54710311D01*
X85445378Y-55013714D01*
X85435476Y-55037560D01*
X85075000Y-55037560D01*
X84839683Y-55081838D01*
X84623559Y-55220910D01*
X84478569Y-55433110D01*
X84427560Y-55685000D01*
X84427560Y-57185000D01*
X84471838Y-57420317D01*
X84610910Y-57636441D01*
X84823110Y-57781431D01*
X84836197Y-57784081D01*
X84623559Y-57920910D01*
X84478569Y-58133110D01*
X84446190Y-58293000D01*
X84006366Y-58293000D01*
X83983162Y-58169683D01*
X83844090Y-57953559D01*
X83631890Y-57808569D01*
X83380000Y-57757560D01*
X81880000Y-57757560D01*
X81644683Y-57801838D01*
X81428559Y-57940910D01*
X81283569Y-58153110D01*
X81282056Y-58160579D01*
X81149000Y-57953803D01*
X81149000Y-56111140D01*
X81062299Y-55675264D01*
X81061568Y-55674170D01*
X81061568Y-55210710D01*
X81017011Y-54973911D01*
X80877063Y-54756425D01*
X80731155Y-54656730D01*
X81360050Y-54656730D01*
X81595367Y-54612452D01*
X81811491Y-54473380D01*
X81956481Y-54261180D01*
X82007490Y-54009290D01*
X82007490Y-53085032D01*
X82063996Y-53000465D01*
X82122000Y-52708860D01*
X82122000Y-51460182D01*
X82345317Y-51418162D01*
X82561441Y-51279090D01*
X82706431Y-51066890D01*
X82757440Y-50815000D01*
X82757440Y-49515000D01*
X82713162Y-49279683D01*
X82574090Y-49063559D01*
X82361890Y-48918569D01*
X82122000Y-48869990D01*
X82122000Y-36389568D01*
X83601837Y-36389568D01*
X83693123Y-36650180D01*
X84281033Y-36866645D01*
X84907028Y-36841649D01*
X85369277Y-36650180D01*
X85460563Y-36389568D01*
X84531200Y-35460205D01*
X83601837Y-36389568D01*
X82122000Y-36389568D01*
X82122000Y-35030433D01*
X82945155Y-35030433D01*
X82970151Y-35656428D01*
X83161620Y-36118677D01*
X83422232Y-36209963D01*
X84351595Y-35280600D01*
X84710805Y-35280600D01*
X85640168Y-36209963D01*
X85900780Y-36118677D01*
X86117245Y-35530767D01*
X86092249Y-34904772D01*
X85900780Y-34442523D01*
X85640168Y-34351237D01*
X84710805Y-35280600D01*
X84351595Y-35280600D01*
X83422232Y-34351237D01*
X83161620Y-34442523D01*
X82945155Y-35030433D01*
X82122000Y-35030433D01*
X82122000Y-34171632D01*
X83601837Y-34171632D01*
X84531200Y-35100995D01*
X85460563Y-34171632D01*
X85369277Y-33911020D01*
X84781367Y-33694555D01*
X84155372Y-33719551D01*
X83693123Y-33911020D01*
X83601837Y-34171632D01*
X82122000Y-34171632D01*
X82122000Y-31071273D01*
X82956127Y-31071273D01*
X83195371Y-31650287D01*
X83637983Y-32093672D01*
X84216579Y-32333926D01*
X84843073Y-32334473D01*
X85422087Y-32095229D01*
X85865472Y-31652617D01*
X86105726Y-31074021D01*
X86106273Y-30447527D01*
X85867029Y-29868513D01*
X85424417Y-29425128D01*
X84845821Y-29184874D01*
X84219327Y-29184327D01*
X83640313Y-29423571D01*
X83196928Y-29866183D01*
X82956674Y-30444779D01*
X82956127Y-31071273D01*
X82122000Y-31071273D01*
X82122000Y-30052000D01*
X82063996Y-29760395D01*
X81898815Y-29513184D01*
X79897224Y-27511593D01*
X80270900Y-27666757D01*
X80826661Y-27667242D01*
X81340303Y-27455010D01*
X81733629Y-27062370D01*
X81819949Y-26854488D01*
X81904990Y-27060303D01*
X82297630Y-27453629D01*
X82810900Y-27666757D01*
X83366661Y-27667242D01*
X83880303Y-27455010D01*
X84085457Y-27250213D01*
X84829392Y-27250213D01*
X84898857Y-27492397D01*
X85422302Y-27679144D01*
X85977368Y-27651362D01*
X86361143Y-27492397D01*
X86430608Y-27250213D01*
X85630000Y-26449605D01*
X84829392Y-27250213D01*
X84085457Y-27250213D01*
X84273629Y-27062370D01*
X84353395Y-26870273D01*
X84407603Y-27001143D01*
X84649787Y-27070608D01*
X85450395Y-26270000D01*
X85809605Y-26270000D01*
X86610213Y-27070608D01*
X86852397Y-27001143D01*
X87039144Y-26477698D01*
X87011362Y-25922632D01*
X86852397Y-25538857D01*
X86610213Y-25469392D01*
X85809605Y-26270000D01*
X85450395Y-26270000D01*
X84649787Y-25469392D01*
X84407603Y-25538857D01*
X84357491Y-25679318D01*
X84275010Y-25479697D01*
X83882370Y-25086371D01*
X83674488Y-25000051D01*
X83880303Y-24915010D01*
X84273629Y-24522370D01*
X84359949Y-24314488D01*
X84444990Y-24520303D01*
X84837630Y-24913629D01*
X85029727Y-24993395D01*
X84898857Y-25047603D01*
X84829392Y-25289787D01*
X85630000Y-26090395D01*
X86430608Y-25289787D01*
X86361143Y-25047603D01*
X86220682Y-24997491D01*
X86420303Y-24915010D01*
X86813629Y-24522370D01*
X87026757Y-24009100D01*
X87027242Y-23453339D01*
X86815010Y-22939697D01*
X86422370Y-22546371D01*
X85909100Y-22333243D01*
X85353339Y-22332758D01*
X84839697Y-22544990D01*
X84446371Y-22937630D01*
X84360051Y-23145512D01*
X84275010Y-22939697D01*
X83882370Y-22546371D01*
X83369100Y-22333243D01*
X82813339Y-22332758D01*
X82299697Y-22544990D01*
X81906371Y-22937630D01*
X81820051Y-23145512D01*
X81735010Y-22939697D01*
X81342370Y-22546371D01*
X80829100Y-22333243D01*
X80273339Y-22332758D01*
X79759697Y-22544990D01*
X79366371Y-22937630D01*
X79286605Y-23129727D01*
X79232397Y-22998857D01*
X78990213Y-22929392D01*
X78189605Y-23730000D01*
X78990213Y-24530608D01*
X79232397Y-24461143D01*
X79282509Y-24320682D01*
X79364990Y-24520303D01*
X79757630Y-24913629D01*
X79965512Y-24999949D01*
X79759697Y-25084990D01*
X79366371Y-25477630D01*
X79280051Y-25685512D01*
X79195010Y-25479697D01*
X78802370Y-25086371D01*
X78610273Y-25006605D01*
X78741143Y-24952397D01*
X78810608Y-24710213D01*
X78010000Y-23909605D01*
X77209392Y-24710213D01*
X77278857Y-24952397D01*
X77419318Y-25002509D01*
X77219697Y-25084990D01*
X76826371Y-25477630D01*
X76740051Y-25685512D01*
X76655010Y-25479697D01*
X76262370Y-25086371D01*
X76054488Y-25000051D01*
X76260303Y-24915010D01*
X76653629Y-24522370D01*
X76733395Y-24330273D01*
X76787603Y-24461143D01*
X77029787Y-24530608D01*
X77830395Y-23730000D01*
X77029787Y-22929392D01*
X76787603Y-22998857D01*
X76737491Y-23139318D01*
X76655010Y-22939697D01*
X76465432Y-22749787D01*
X77209392Y-22749787D01*
X78010000Y-23550395D01*
X78810608Y-22749787D01*
X78741143Y-22507603D01*
X78217698Y-22320856D01*
X77662632Y-22348638D01*
X77278857Y-22507603D01*
X77209392Y-22749787D01*
X76465432Y-22749787D01*
X76262370Y-22546371D01*
X75749100Y-22333243D01*
X75193339Y-22332758D01*
X74679697Y-22544990D01*
X74286371Y-22937630D01*
X74206605Y-23129727D01*
X74152397Y-22998857D01*
X73910213Y-22929392D01*
X73109605Y-23730000D01*
X73910213Y-24530608D01*
X74152397Y-24461143D01*
X74202509Y-24320682D01*
X74284990Y-24520303D01*
X74677630Y-24913629D01*
X74885512Y-24999949D01*
X74679697Y-25084990D01*
X74286371Y-25477630D01*
X74200051Y-25685512D01*
X74115010Y-25479697D01*
X73722370Y-25086371D01*
X73530273Y-25006605D01*
X73661143Y-24952397D01*
X73730608Y-24710213D01*
X72930000Y-23909605D01*
X72129392Y-24710213D01*
X72198857Y-24952397D01*
X72339318Y-25002509D01*
X72139697Y-25084990D01*
X71746371Y-25477630D01*
X71660051Y-25685512D01*
X71575010Y-25479697D01*
X71182370Y-25086371D01*
X70974488Y-25000051D01*
X71180303Y-24915010D01*
X71573629Y-24522370D01*
X71653395Y-24330273D01*
X71707603Y-24461143D01*
X71949787Y-24530608D01*
X72750395Y-23730000D01*
X71949787Y-22929392D01*
X71707603Y-22998857D01*
X71657491Y-23139318D01*
X71575010Y-22939697D01*
X71385432Y-22749787D01*
X72129392Y-22749787D01*
X72930000Y-23550395D01*
X73730608Y-22749787D01*
X73661143Y-22507603D01*
X73137698Y-22320856D01*
X72582632Y-22348638D01*
X72198857Y-22507603D01*
X72129392Y-22749787D01*
X71385432Y-22749787D01*
X71182370Y-22546371D01*
X70669100Y-22333243D01*
X70113339Y-22332758D01*
X69599697Y-22544990D01*
X69206371Y-22937630D01*
X69120051Y-23145512D01*
X69035010Y-22939697D01*
X68642370Y-22546371D01*
X68129100Y-22333243D01*
X67573339Y-22332758D01*
X67059697Y-22544990D01*
X66666371Y-22937630D01*
X66580051Y-23145512D01*
X66495010Y-22939697D01*
X66102370Y-22546371D01*
X65589100Y-22333243D01*
X65033339Y-22332758D01*
X64519697Y-22544990D01*
X64126371Y-22937630D01*
X64040051Y-23145512D01*
X63955010Y-22939697D01*
X63562370Y-22546371D01*
X63049100Y-22333243D01*
X62493339Y-22332758D01*
X61979697Y-22544990D01*
X61586371Y-22937630D01*
X61506605Y-23129727D01*
X61452397Y-22998857D01*
X61210213Y-22929392D01*
X60409605Y-23730000D01*
X61210213Y-24530608D01*
X61452397Y-24461143D01*
X61502509Y-24320682D01*
X61584990Y-24520303D01*
X61977630Y-24913629D01*
X62185512Y-24999949D01*
X61979697Y-25084990D01*
X61586371Y-25477630D01*
X61500051Y-25685512D01*
X61415010Y-25479697D01*
X61022370Y-25086371D01*
X60830273Y-25006605D01*
X60961143Y-24952397D01*
X61030608Y-24710213D01*
X60230000Y-23909605D01*
X59429392Y-24710213D01*
X59498857Y-24952397D01*
X59639318Y-25002509D01*
X59439697Y-25084990D01*
X59046371Y-25477630D01*
X58960051Y-25685512D01*
X58875010Y-25479697D01*
X58482370Y-25086371D01*
X58274488Y-25000051D01*
X58480303Y-24915010D01*
X58873629Y-24522370D01*
X58953395Y-24330273D01*
X59007603Y-24461143D01*
X59249787Y-24530608D01*
X60050395Y-23730000D01*
X59249787Y-22929392D01*
X59007603Y-22998857D01*
X58957491Y-23139318D01*
X58875010Y-22939697D01*
X58685432Y-22749787D01*
X59429392Y-22749787D01*
X60230000Y-23550395D01*
X61030608Y-22749787D01*
X60961143Y-22507603D01*
X60437698Y-22320856D01*
X59882632Y-22348638D01*
X59498857Y-22507603D01*
X59429392Y-22749787D01*
X58685432Y-22749787D01*
X58482370Y-22546371D01*
X57969100Y-22333243D01*
X57413339Y-22332758D01*
X56899697Y-22544990D01*
X56506371Y-22937630D01*
X56420051Y-23145512D01*
X56335010Y-22939697D01*
X55942370Y-22546371D01*
X55429100Y-22333243D01*
X54873339Y-22332758D01*
X54359697Y-22544990D01*
X53966371Y-22937630D01*
X53886605Y-23129727D01*
X53832397Y-22998857D01*
X53590213Y-22929392D01*
X52789605Y-23730000D01*
X53590213Y-24530608D01*
X53832397Y-24461143D01*
X53882509Y-24320682D01*
X53964990Y-24520303D01*
X54357630Y-24913629D01*
X54565512Y-24999949D01*
X54359697Y-25084990D01*
X53966371Y-25477630D01*
X53880051Y-25685512D01*
X53795010Y-25479697D01*
X53402370Y-25086371D01*
X53210273Y-25006605D01*
X53341143Y-24952397D01*
X53410608Y-24710213D01*
X52610000Y-23909605D01*
X51809392Y-24710213D01*
X51878857Y-24952397D01*
X52019318Y-25002509D01*
X51819697Y-25084990D01*
X51426371Y-25477630D01*
X51340051Y-25685512D01*
X51255010Y-25479697D01*
X50862370Y-25086371D01*
X50654488Y-25000051D01*
X50860303Y-24915010D01*
X51253629Y-24522370D01*
X51333395Y-24330273D01*
X51387603Y-24461143D01*
X51629787Y-24530608D01*
X52430395Y-23730000D01*
X51629787Y-22929392D01*
X51387603Y-22998857D01*
X51337491Y-23139318D01*
X51255010Y-22939697D01*
X51065432Y-22749787D01*
X51809392Y-22749787D01*
X52610000Y-23550395D01*
X53410608Y-22749787D01*
X53341143Y-22507603D01*
X52817698Y-22320856D01*
X52262632Y-22348638D01*
X51878857Y-22507603D01*
X51809392Y-22749787D01*
X51065432Y-22749787D01*
X50862370Y-22546371D01*
X50349100Y-22333243D01*
X49793339Y-22332758D01*
X49279697Y-22544990D01*
X48886371Y-22937630D01*
X48800051Y-23145512D01*
X48715010Y-22939697D01*
X48322370Y-22546371D01*
X47809100Y-22333243D01*
X47253339Y-22332758D01*
X46739697Y-22544990D01*
X46346371Y-22937630D01*
X46260051Y-23145512D01*
X46175010Y-22939697D01*
X45782370Y-22546371D01*
X45269100Y-22333243D01*
X44713339Y-22332758D01*
X44199697Y-22544990D01*
X43806371Y-22937630D01*
X43726605Y-23129727D01*
X43672397Y-22998857D01*
X43430213Y-22929392D01*
X42629605Y-23730000D01*
X43430213Y-24530608D01*
X43672397Y-24461143D01*
X43722509Y-24320682D01*
X43804990Y-24520303D01*
X44197630Y-24913629D01*
X44405512Y-24999949D01*
X44199697Y-25084990D01*
X43806371Y-25477630D01*
X43720051Y-25685512D01*
X43635010Y-25479697D01*
X43242370Y-25086371D01*
X43050273Y-25006605D01*
X43181143Y-24952397D01*
X43250608Y-24710213D01*
X42450000Y-23909605D01*
X41649392Y-24710213D01*
X41718857Y-24952397D01*
X41859318Y-25002509D01*
X41659697Y-25084990D01*
X41266371Y-25477630D01*
X41180051Y-25685512D01*
X41095010Y-25479697D01*
X40702370Y-25086371D01*
X40494488Y-25000051D01*
X40700303Y-24915010D01*
X41093629Y-24522370D01*
X41173395Y-24330273D01*
X41227603Y-24461143D01*
X41469787Y-24530608D01*
X42270395Y-23730000D01*
X41469787Y-22929392D01*
X41227603Y-22998857D01*
X41177491Y-23139318D01*
X41095010Y-22939697D01*
X40905432Y-22749787D01*
X41649392Y-22749787D01*
X42450000Y-23550395D01*
X43250608Y-22749787D01*
X43181143Y-22507603D01*
X42657698Y-22320856D01*
X42102632Y-22348638D01*
X41718857Y-22507603D01*
X41649392Y-22749787D01*
X40905432Y-22749787D01*
X40702370Y-22546371D01*
X40189100Y-22333243D01*
X39633339Y-22332758D01*
X39119697Y-22544990D01*
X38726371Y-22937630D01*
X38640051Y-23145512D01*
X38555010Y-22939697D01*
X38162370Y-22546371D01*
X37649100Y-22333243D01*
X37093339Y-22332758D01*
X36579697Y-22544990D01*
X36186371Y-22937630D01*
X35973243Y-23450900D01*
X35972758Y-24006661D01*
X36184990Y-24520303D01*
X36537833Y-24873763D01*
X36372683Y-24904838D01*
X36156559Y-25043910D01*
X36011569Y-25256110D01*
X35978853Y-25417665D01*
X35786794Y-22195000D01*
X87047593Y-22195000D01*
X87295180Y-26836764D01*
M02*
