M48
INCH,TZ
T1C0.015
T2C0.040
T3C0.108
%
G90
G05
T1
X18500Y-21900
X23800Y-21900
X29000Y-21900
X34000Y-21900
T2
X14713Y-9343
X14713Y-10343
X15000Y-25000
X15470Y-12110
X15470Y-13890
X15713Y-9343
X15713Y-10343
X16000Y-25000
X16713Y-9343
X16713Y-10343
X17000Y-25000
X17500Y-17000
X17500Y-18000
X17713Y-9343
X17713Y-10343
X18000Y-25000
X18030Y-12110
X18030Y-13890
X18713Y-9343
X18713Y-10343
X19713Y-9343
X19713Y-10343
X20250Y-25000
X20713Y-9343
X20713Y-10343
X20720Y-12110
X20720Y-13890
X21250Y-25000
X21713Y-9343
X21713Y-10343
X22250Y-25000
X22713Y-9343
X22713Y-10343
X23250Y-25000
X23280Y-12110
X23280Y-13890
X23713Y-9343
X23713Y-10343
X24713Y-9343
X24713Y-10343
X25500Y-25000
X25713Y-9343
X25713Y-10343
X25720Y-12110
X25720Y-13890
X26500Y-25000
X26713Y-9343
X26713Y-10343
X27500Y-25000
X27713Y-9343
X27713Y-10343
X28280Y-12110
X28280Y-13890
X28500Y-25000
X28713Y-9343
X28713Y-10343
X29713Y-9343
X29713Y-10343
X30500Y-25000
X30713Y-9343
X30713Y-10343
X30720Y-12110
X30720Y-13890
X31500Y-25000
X31713Y-9343
X31713Y-10343
X32500Y-25000
X32713Y-9343
X32713Y-10343
X33280Y-12110
X33280Y-13890
X33500Y-25000
X33713Y-9343
X33713Y-10343
T3
X12795Y-9843
X12795Y-29134
X35630Y-9843
X35630Y-29134
T0
M30
