G04 #@! TF.FileFunction,Copper,L2,Bot,Signal*
%FSLAX46Y46*%
G04 Gerber Fmt 4.6, Leading zero omitted, Abs format (unit mm)*
G04 Created by KiCad (PCBNEW (2015-09-17 BZR 6202)-product) date Sunday, October 11, 2015 'PMt' 02:52:04 PM*
%MOMM*%
G01*
G04 APERTURE LIST*
%ADD10C,0.200000*%
%ADD11R,1.524000X1.524000*%
%ADD12C,1.524000*%
%ADD13C,2.750000*%
%ADD14R,1.727200X2.032000*%
%ADD15O,1.727200X2.032000*%
%ADD16R,2.032000X2.032000*%
%ADD17O,2.032000X2.032000*%
%ADD18C,1.879600*%
%ADD19C,0.889000*%
%ADD20C,0.254000*%
G04 APERTURE END LIST*
D10*
D11*
X37370000Y-26270000D03*
D12*
X37370000Y-23730000D03*
X50070000Y-26270000D03*
X39910000Y-23730000D03*
X52610000Y-26270000D03*
X42450000Y-23730000D03*
X55150000Y-26270000D03*
X44990000Y-23730000D03*
X57690000Y-26270000D03*
X47530000Y-23730000D03*
X60230000Y-26270000D03*
X50070000Y-23730000D03*
X62770000Y-26270000D03*
X52610000Y-23730000D03*
X65310000Y-26270000D03*
X55150000Y-23730000D03*
X67850000Y-26270000D03*
X57690000Y-23730000D03*
X70390000Y-26270000D03*
X60230000Y-23730000D03*
X72930000Y-26270000D03*
X62770000Y-23730000D03*
X75470000Y-26270000D03*
X65310000Y-23730000D03*
X67850000Y-23730000D03*
X78010000Y-26270000D03*
X70390000Y-23730000D03*
X75470000Y-23730000D03*
X78010000Y-23730000D03*
X80550000Y-23730000D03*
X83090000Y-23730000D03*
X80550000Y-26270000D03*
X83090000Y-26270000D03*
X39910000Y-26270000D03*
X42450000Y-26270000D03*
X44990000Y-26270000D03*
X47530000Y-26270000D03*
X85630000Y-26270000D03*
X85630000Y-23730000D03*
X72930000Y-23730000D03*
D13*
X32500000Y-74000000D03*
X90500000Y-74000000D03*
X90500000Y-25000000D03*
X32500000Y-25000000D03*
D14*
X38100000Y-63500000D03*
D15*
X40640000Y-63500000D03*
X43180000Y-63500000D03*
X45720000Y-63500000D03*
D14*
X51435000Y-63500000D03*
D15*
X53975000Y-63500000D03*
X56515000Y-63500000D03*
X59055000Y-63500000D03*
D14*
X64770000Y-63500000D03*
D15*
X67310000Y-63500000D03*
X69850000Y-63500000D03*
X72390000Y-63500000D03*
D14*
X77470000Y-63500000D03*
D15*
X80010000Y-63500000D03*
X82550000Y-63500000D03*
X85090000Y-63500000D03*
D16*
X44450000Y-45720000D03*
D17*
X44450000Y-43180000D03*
D18*
X39293800Y-30759400D03*
X45796200Y-30759400D03*
X39293800Y-35280600D03*
X45796200Y-35280600D03*
X52628800Y-30759400D03*
X59131200Y-30759400D03*
X52628800Y-35280600D03*
X59131200Y-35280600D03*
X65328800Y-30759400D03*
X71831200Y-30759400D03*
X65328800Y-35280600D03*
X71831200Y-35280600D03*
X78028800Y-30759400D03*
X84531200Y-30759400D03*
X78028800Y-35280600D03*
X84531200Y-35280600D03*
D19*
X86360000Y-55626000D03*
X73660000Y-55626000D03*
X60452000Y-55626000D03*
X46990000Y-55626000D03*
D20*
X71831200Y-30759400D02*
X69875400Y-30759400D01*
X69850000Y-30784800D02*
X69850000Y-63500000D01*
X69875400Y-30759400D02*
X69850000Y-30784800D01*
X75470000Y-26270000D02*
X75470000Y-27120600D01*
X75470000Y-27120600D02*
X71831200Y-30759400D01*
X71831200Y-30759400D02*
X65328800Y-30759400D01*
X45796200Y-30759400D02*
X48031400Y-30759400D01*
X43180000Y-54610000D02*
X43180000Y-63500000D01*
X48006000Y-49784000D02*
X43180000Y-54610000D01*
X48006000Y-30784800D02*
X48006000Y-49784000D01*
X48031400Y-30759400D02*
X48006000Y-30784800D01*
X45796200Y-30759400D02*
X39293800Y-30759400D01*
X52610000Y-26270000D02*
X52610000Y-26380000D01*
X52610000Y-26380000D02*
X48230600Y-30759400D01*
X48230600Y-30759400D02*
X39293800Y-30759400D01*
X43180000Y-62230000D02*
X43180000Y-63500000D01*
X59131200Y-30759400D02*
X57124600Y-30759400D01*
X56896000Y-30988000D02*
X56896000Y-63119000D01*
X57124600Y-30759400D02*
X56896000Y-30988000D01*
X56896000Y-63119000D02*
X56515000Y-63500000D01*
X57690000Y-23730000D02*
X57690000Y-23908000D01*
X57690000Y-23908000D02*
X58928000Y-25146000D01*
X58928000Y-25146000D02*
X58928000Y-30556200D01*
X58928000Y-30556200D02*
X58724800Y-30759400D01*
X58724800Y-30759400D02*
X52628800Y-30759400D01*
X56515000Y-62230000D02*
X56515000Y-63500000D01*
X84531200Y-30759400D02*
X83083400Y-30759400D01*
X83058000Y-30734000D02*
X83058000Y-62992000D01*
X83083400Y-30759400D02*
X83058000Y-30734000D01*
X83058000Y-62992000D02*
X82550000Y-63500000D01*
X83090000Y-26270000D02*
X83090000Y-29318200D01*
X83090000Y-29318200D02*
X84531200Y-30759400D01*
X84531200Y-30759400D02*
X78028800Y-30759400D01*
X83090000Y-62960000D02*
X82550000Y-63500000D01*
G36*
X47244000Y-49468369D02*
X42641185Y-54071185D01*
X42476004Y-54318395D01*
X42418000Y-54610000D01*
X42418000Y-62056688D01*
X42120330Y-62255585D01*
X41912385Y-62566796D01*
X41702499Y-62252678D01*
X41215020Y-61926956D01*
X40640000Y-61812577D01*
X40064980Y-61926956D01*
X39577501Y-62252678D01*
X39563674Y-62273372D01*
X39501927Y-62124302D01*
X39323299Y-61945673D01*
X39089910Y-61849000D01*
X38385750Y-61849000D01*
X38227000Y-62007750D01*
X38227000Y-63373000D01*
X38247000Y-63373000D01*
X38247000Y-63627000D01*
X38227000Y-63627000D01*
X38227000Y-64992250D01*
X38385750Y-65151000D01*
X39089910Y-65151000D01*
X39323299Y-65054327D01*
X39501927Y-64875698D01*
X39563674Y-64726628D01*
X39577501Y-64747322D01*
X40064980Y-65073044D01*
X40640000Y-65187423D01*
X41215020Y-65073044D01*
X41702499Y-64747322D01*
X41912385Y-64433204D01*
X42120330Y-64744415D01*
X42606511Y-65069271D01*
X43180000Y-65183345D01*
X43753489Y-65069271D01*
X44239670Y-64744415D01*
X44450000Y-64429634D01*
X44660330Y-64744415D01*
X45146511Y-65069271D01*
X45720000Y-65183345D01*
X46293489Y-65069271D01*
X46779670Y-64744415D01*
X47104526Y-64258234D01*
X47198508Y-63785750D01*
X49936400Y-63785750D01*
X49936400Y-64642309D01*
X50033073Y-64875698D01*
X50211701Y-65054327D01*
X50445090Y-65151000D01*
X51149250Y-65151000D01*
X51308000Y-64992250D01*
X51308000Y-63627000D01*
X50095150Y-63627000D01*
X49936400Y-63785750D01*
X47198508Y-63785750D01*
X47218600Y-63684745D01*
X47218600Y-63315255D01*
X47104526Y-62741766D01*
X46847896Y-62357691D01*
X49936400Y-62357691D01*
X49936400Y-63214250D01*
X50095150Y-63373000D01*
X51308000Y-63373000D01*
X51308000Y-62007750D01*
X51149250Y-61849000D01*
X50445090Y-61849000D01*
X50211701Y-61945673D01*
X50033073Y-62124302D01*
X49936400Y-62357691D01*
X46847896Y-62357691D01*
X46779670Y-62255585D01*
X46293489Y-61930729D01*
X45720000Y-61816655D01*
X45146511Y-61930729D01*
X44660330Y-62255585D01*
X44450000Y-62570366D01*
X44239670Y-62255585D01*
X43942000Y-62056688D01*
X43942000Y-54925630D01*
X48544816Y-50322815D01*
X48643834Y-50174623D01*
X48709996Y-50075605D01*
X48768000Y-49784000D01*
X48768000Y-39957000D01*
X56134000Y-39957000D01*
X56134000Y-61585736D01*
X55976185Y-61691185D01*
X55811004Y-61938395D01*
X55792758Y-62030123D01*
X55455330Y-62255585D01*
X55247385Y-62566796D01*
X55037499Y-62252678D01*
X54550020Y-61926956D01*
X53975000Y-61812577D01*
X53399980Y-61926956D01*
X52912501Y-62252678D01*
X52898674Y-62273372D01*
X52836927Y-62124302D01*
X52658299Y-61945673D01*
X52424910Y-61849000D01*
X51720750Y-61849000D01*
X51562000Y-62007750D01*
X51562000Y-63373000D01*
X51582000Y-63373000D01*
X51582000Y-63627000D01*
X51562000Y-63627000D01*
X51562000Y-64992250D01*
X51720750Y-65151000D01*
X52424910Y-65151000D01*
X52658299Y-65054327D01*
X52836927Y-64875698D01*
X52898674Y-64726628D01*
X52912501Y-64747322D01*
X53399980Y-65073044D01*
X53975000Y-65187423D01*
X54550020Y-65073044D01*
X55037499Y-64747322D01*
X55247385Y-64433204D01*
X55455330Y-64744415D01*
X55941511Y-65069271D01*
X56515000Y-65183345D01*
X57088489Y-65069271D01*
X57574670Y-64744415D01*
X57785000Y-64429634D01*
X57995330Y-64744415D01*
X58481511Y-65069271D01*
X59055000Y-65183345D01*
X59628489Y-65069271D01*
X60114670Y-64744415D01*
X60439526Y-64258234D01*
X60533508Y-63785750D01*
X63271400Y-63785750D01*
X63271400Y-64642309D01*
X63368073Y-64875698D01*
X63546701Y-65054327D01*
X63780090Y-65151000D01*
X64484250Y-65151000D01*
X64643000Y-64992250D01*
X64643000Y-63627000D01*
X63430150Y-63627000D01*
X63271400Y-63785750D01*
X60533508Y-63785750D01*
X60553600Y-63684745D01*
X60553600Y-63315255D01*
X60439526Y-62741766D01*
X60182896Y-62357691D01*
X63271400Y-62357691D01*
X63271400Y-63214250D01*
X63430150Y-63373000D01*
X64643000Y-63373000D01*
X64643000Y-62007750D01*
X64484250Y-61849000D01*
X63780090Y-61849000D01*
X63546701Y-61945673D01*
X63368073Y-62124302D01*
X63271400Y-62357691D01*
X60182896Y-62357691D01*
X60114670Y-62255585D01*
X59628489Y-61930729D01*
X59055000Y-61816655D01*
X58481511Y-61930729D01*
X57995330Y-62255585D01*
X57785000Y-62570366D01*
X57658000Y-62380297D01*
X57658000Y-39957000D01*
X69088000Y-39957000D01*
X69088000Y-62056688D01*
X68790330Y-62255585D01*
X68582385Y-62566796D01*
X68372499Y-62252678D01*
X67885020Y-61926956D01*
X67310000Y-61812577D01*
X66734980Y-61926956D01*
X66247501Y-62252678D01*
X66233674Y-62273372D01*
X66171927Y-62124302D01*
X65993299Y-61945673D01*
X65759910Y-61849000D01*
X65055750Y-61849000D01*
X64897000Y-62007750D01*
X64897000Y-63373000D01*
X64917000Y-63373000D01*
X64917000Y-63627000D01*
X64897000Y-63627000D01*
X64897000Y-64992250D01*
X65055750Y-65151000D01*
X65759910Y-65151000D01*
X65993299Y-65054327D01*
X66171927Y-64875698D01*
X66233674Y-64726628D01*
X66247501Y-64747322D01*
X66734980Y-65073044D01*
X67310000Y-65187423D01*
X67885020Y-65073044D01*
X68372499Y-64747322D01*
X68582385Y-64433204D01*
X68790330Y-64744415D01*
X69276511Y-65069271D01*
X69850000Y-65183345D01*
X70423489Y-65069271D01*
X70909670Y-64744415D01*
X71120000Y-64429634D01*
X71330330Y-64744415D01*
X71816511Y-65069271D01*
X72390000Y-65183345D01*
X72963489Y-65069271D01*
X73449670Y-64744415D01*
X73774526Y-64258234D01*
X73868508Y-63785750D01*
X75971400Y-63785750D01*
X75971400Y-64642309D01*
X76068073Y-64875698D01*
X76246701Y-65054327D01*
X76480090Y-65151000D01*
X77184250Y-65151000D01*
X77343000Y-64992250D01*
X77343000Y-63627000D01*
X76130150Y-63627000D01*
X75971400Y-63785750D01*
X73868508Y-63785750D01*
X73888600Y-63684745D01*
X73888600Y-63315255D01*
X73774526Y-62741766D01*
X73517896Y-62357691D01*
X75971400Y-62357691D01*
X75971400Y-63214250D01*
X76130150Y-63373000D01*
X77343000Y-63373000D01*
X77343000Y-62007750D01*
X77184250Y-61849000D01*
X76480090Y-61849000D01*
X76246701Y-61945673D01*
X76068073Y-62124302D01*
X75971400Y-62357691D01*
X73517896Y-62357691D01*
X73449670Y-62255585D01*
X72963489Y-61930729D01*
X72390000Y-61816655D01*
X71816511Y-61930729D01*
X71330330Y-62255585D01*
X71120000Y-62570366D01*
X70909670Y-62255585D01*
X70612000Y-62056688D01*
X70612000Y-39957000D01*
X82296000Y-39957000D01*
X82296000Y-61867179D01*
X81976511Y-61930729D01*
X81490330Y-62255585D01*
X81282385Y-62566796D01*
X81072499Y-62252678D01*
X80585020Y-61926956D01*
X80010000Y-61812577D01*
X79434980Y-61926956D01*
X78947501Y-62252678D01*
X78933674Y-62273372D01*
X78871927Y-62124302D01*
X78693299Y-61945673D01*
X78459910Y-61849000D01*
X77755750Y-61849000D01*
X77597000Y-62007750D01*
X77597000Y-63373000D01*
X77617000Y-63373000D01*
X77617000Y-63627000D01*
X77597000Y-63627000D01*
X77597000Y-64992250D01*
X77755750Y-65151000D01*
X78459910Y-65151000D01*
X78693299Y-65054327D01*
X78871927Y-64875698D01*
X78933674Y-64726628D01*
X78947501Y-64747322D01*
X79434980Y-65073044D01*
X80010000Y-65187423D01*
X80585020Y-65073044D01*
X81072499Y-64747322D01*
X81282385Y-64433204D01*
X81490330Y-64744415D01*
X81976511Y-65069271D01*
X82550000Y-65183345D01*
X83123489Y-65069271D01*
X83609670Y-64744415D01*
X83820000Y-64429634D01*
X84030330Y-64744415D01*
X84516511Y-65069271D01*
X85090000Y-65183345D01*
X85663489Y-65069271D01*
X86149670Y-64744415D01*
X86474526Y-64258234D01*
X86588600Y-63684745D01*
X86588600Y-63315255D01*
X86474526Y-62741766D01*
X86149670Y-62255585D01*
X85663489Y-61930729D01*
X85090000Y-61816655D01*
X84516511Y-61930729D01*
X84030330Y-62255585D01*
X83820000Y-62570366D01*
X83820000Y-39957000D01*
X92533000Y-39957000D01*
X92533000Y-69703000D01*
X89660000Y-69703000D01*
X89610590Y-69713006D01*
X89570197Y-69740197D01*
X86570197Y-72740197D01*
X86542334Y-72782211D01*
X86533000Y-72830000D01*
X86533000Y-76203000D01*
X36787000Y-76203000D01*
X36787000Y-72830000D01*
X36776994Y-72780590D01*
X36749803Y-72740197D01*
X33749803Y-69740197D01*
X33707789Y-69712334D01*
X33660000Y-69703000D01*
X30787000Y-69703000D01*
X30787000Y-63785750D01*
X36601400Y-63785750D01*
X36601400Y-64642309D01*
X36698073Y-64875698D01*
X36876701Y-65054327D01*
X37110090Y-65151000D01*
X37814250Y-65151000D01*
X37973000Y-64992250D01*
X37973000Y-63627000D01*
X36760150Y-63627000D01*
X36601400Y-63785750D01*
X30787000Y-63785750D01*
X30787000Y-62357691D01*
X36601400Y-62357691D01*
X36601400Y-63214250D01*
X36760150Y-63373000D01*
X37973000Y-63373000D01*
X37973000Y-62007750D01*
X37814250Y-61849000D01*
X37110090Y-61849000D01*
X36876701Y-61945673D01*
X36698073Y-62124302D01*
X36601400Y-62357691D01*
X30787000Y-62357691D01*
X30787000Y-59457000D01*
X35660000Y-59457000D01*
X35709410Y-59446994D01*
X35751035Y-59418553D01*
X35778315Y-59376159D01*
X35787000Y-59330000D01*
X35787000Y-43180000D01*
X42766655Y-43180000D01*
X42892330Y-43811810D01*
X43250222Y-44347433D01*
X43785845Y-44705325D01*
X44417655Y-44831000D01*
X44482345Y-44831000D01*
X45114155Y-44705325D01*
X45649778Y-44347433D01*
X46007670Y-43811810D01*
X46133345Y-43180000D01*
X46007670Y-42548190D01*
X45649778Y-42012567D01*
X45114155Y-41654675D01*
X44482345Y-41529000D01*
X44417655Y-41529000D01*
X43785845Y-41654675D01*
X43250222Y-42012567D01*
X42892330Y-42548190D01*
X42766655Y-43180000D01*
X35787000Y-43180000D01*
X35787000Y-39957000D01*
X47244000Y-39957000D01*
X47244000Y-49468369D01*
X47244000Y-49468369D01*
G37*
X47244000Y-49468369D02*
X42641185Y-54071185D01*
X42476004Y-54318395D01*
X42418000Y-54610000D01*
X42418000Y-62056688D01*
X42120330Y-62255585D01*
X41912385Y-62566796D01*
X41702499Y-62252678D01*
X41215020Y-61926956D01*
X40640000Y-61812577D01*
X40064980Y-61926956D01*
X39577501Y-62252678D01*
X39563674Y-62273372D01*
X39501927Y-62124302D01*
X39323299Y-61945673D01*
X39089910Y-61849000D01*
X38385750Y-61849000D01*
X38227000Y-62007750D01*
X38227000Y-63373000D01*
X38247000Y-63373000D01*
X38247000Y-63627000D01*
X38227000Y-63627000D01*
X38227000Y-64992250D01*
X38385750Y-65151000D01*
X39089910Y-65151000D01*
X39323299Y-65054327D01*
X39501927Y-64875698D01*
X39563674Y-64726628D01*
X39577501Y-64747322D01*
X40064980Y-65073044D01*
X40640000Y-65187423D01*
X41215020Y-65073044D01*
X41702499Y-64747322D01*
X41912385Y-64433204D01*
X42120330Y-64744415D01*
X42606511Y-65069271D01*
X43180000Y-65183345D01*
X43753489Y-65069271D01*
X44239670Y-64744415D01*
X44450000Y-64429634D01*
X44660330Y-64744415D01*
X45146511Y-65069271D01*
X45720000Y-65183345D01*
X46293489Y-65069271D01*
X46779670Y-64744415D01*
X47104526Y-64258234D01*
X47198508Y-63785750D01*
X49936400Y-63785750D01*
X49936400Y-64642309D01*
X50033073Y-64875698D01*
X50211701Y-65054327D01*
X50445090Y-65151000D01*
X51149250Y-65151000D01*
X51308000Y-64992250D01*
X51308000Y-63627000D01*
X50095150Y-63627000D01*
X49936400Y-63785750D01*
X47198508Y-63785750D01*
X47218600Y-63684745D01*
X47218600Y-63315255D01*
X47104526Y-62741766D01*
X46847896Y-62357691D01*
X49936400Y-62357691D01*
X49936400Y-63214250D01*
X50095150Y-63373000D01*
X51308000Y-63373000D01*
X51308000Y-62007750D01*
X51149250Y-61849000D01*
X50445090Y-61849000D01*
X50211701Y-61945673D01*
X50033073Y-62124302D01*
X49936400Y-62357691D01*
X46847896Y-62357691D01*
X46779670Y-62255585D01*
X46293489Y-61930729D01*
X45720000Y-61816655D01*
X45146511Y-61930729D01*
X44660330Y-62255585D01*
X44450000Y-62570366D01*
X44239670Y-62255585D01*
X43942000Y-62056688D01*
X43942000Y-54925630D01*
X48544816Y-50322815D01*
X48643834Y-50174623D01*
X48709996Y-50075605D01*
X48768000Y-49784000D01*
X48768000Y-39957000D01*
X56134000Y-39957000D01*
X56134000Y-61585736D01*
X55976185Y-61691185D01*
X55811004Y-61938395D01*
X55792758Y-62030123D01*
X55455330Y-62255585D01*
X55247385Y-62566796D01*
X55037499Y-62252678D01*
X54550020Y-61926956D01*
X53975000Y-61812577D01*
X53399980Y-61926956D01*
X52912501Y-62252678D01*
X52898674Y-62273372D01*
X52836927Y-62124302D01*
X52658299Y-61945673D01*
X52424910Y-61849000D01*
X51720750Y-61849000D01*
X51562000Y-62007750D01*
X51562000Y-63373000D01*
X51582000Y-63373000D01*
X51582000Y-63627000D01*
X51562000Y-63627000D01*
X51562000Y-64992250D01*
X51720750Y-65151000D01*
X52424910Y-65151000D01*
X52658299Y-65054327D01*
X52836927Y-64875698D01*
X52898674Y-64726628D01*
X52912501Y-64747322D01*
X53399980Y-65073044D01*
X53975000Y-65187423D01*
X54550020Y-65073044D01*
X55037499Y-64747322D01*
X55247385Y-64433204D01*
X55455330Y-64744415D01*
X55941511Y-65069271D01*
X56515000Y-65183345D01*
X57088489Y-65069271D01*
X57574670Y-64744415D01*
X57785000Y-64429634D01*
X57995330Y-64744415D01*
X58481511Y-65069271D01*
X59055000Y-65183345D01*
X59628489Y-65069271D01*
X60114670Y-64744415D01*
X60439526Y-64258234D01*
X60533508Y-63785750D01*
X63271400Y-63785750D01*
X63271400Y-64642309D01*
X63368073Y-64875698D01*
X63546701Y-65054327D01*
X63780090Y-65151000D01*
X64484250Y-65151000D01*
X64643000Y-64992250D01*
X64643000Y-63627000D01*
X63430150Y-63627000D01*
X63271400Y-63785750D01*
X60533508Y-63785750D01*
X60553600Y-63684745D01*
X60553600Y-63315255D01*
X60439526Y-62741766D01*
X60182896Y-62357691D01*
X63271400Y-62357691D01*
X63271400Y-63214250D01*
X63430150Y-63373000D01*
X64643000Y-63373000D01*
X64643000Y-62007750D01*
X64484250Y-61849000D01*
X63780090Y-61849000D01*
X63546701Y-61945673D01*
X63368073Y-62124302D01*
X63271400Y-62357691D01*
X60182896Y-62357691D01*
X60114670Y-62255585D01*
X59628489Y-61930729D01*
X59055000Y-61816655D01*
X58481511Y-61930729D01*
X57995330Y-62255585D01*
X57785000Y-62570366D01*
X57658000Y-62380297D01*
X57658000Y-39957000D01*
X69088000Y-39957000D01*
X69088000Y-62056688D01*
X68790330Y-62255585D01*
X68582385Y-62566796D01*
X68372499Y-62252678D01*
X67885020Y-61926956D01*
X67310000Y-61812577D01*
X66734980Y-61926956D01*
X66247501Y-62252678D01*
X66233674Y-62273372D01*
X66171927Y-62124302D01*
X65993299Y-61945673D01*
X65759910Y-61849000D01*
X65055750Y-61849000D01*
X64897000Y-62007750D01*
X64897000Y-63373000D01*
X64917000Y-63373000D01*
X64917000Y-63627000D01*
X64897000Y-63627000D01*
X64897000Y-64992250D01*
X65055750Y-65151000D01*
X65759910Y-65151000D01*
X65993299Y-65054327D01*
X66171927Y-64875698D01*
X66233674Y-64726628D01*
X66247501Y-64747322D01*
X66734980Y-65073044D01*
X67310000Y-65187423D01*
X67885020Y-65073044D01*
X68372499Y-64747322D01*
X68582385Y-64433204D01*
X68790330Y-64744415D01*
X69276511Y-65069271D01*
X69850000Y-65183345D01*
X70423489Y-65069271D01*
X70909670Y-64744415D01*
X71120000Y-64429634D01*
X71330330Y-64744415D01*
X71816511Y-65069271D01*
X72390000Y-65183345D01*
X72963489Y-65069271D01*
X73449670Y-64744415D01*
X73774526Y-64258234D01*
X73868508Y-63785750D01*
X75971400Y-63785750D01*
X75971400Y-64642309D01*
X76068073Y-64875698D01*
X76246701Y-65054327D01*
X76480090Y-65151000D01*
X77184250Y-65151000D01*
X77343000Y-64992250D01*
X77343000Y-63627000D01*
X76130150Y-63627000D01*
X75971400Y-63785750D01*
X73868508Y-63785750D01*
X73888600Y-63684745D01*
X73888600Y-63315255D01*
X73774526Y-62741766D01*
X73517896Y-62357691D01*
X75971400Y-62357691D01*
X75971400Y-63214250D01*
X76130150Y-63373000D01*
X77343000Y-63373000D01*
X77343000Y-62007750D01*
X77184250Y-61849000D01*
X76480090Y-61849000D01*
X76246701Y-61945673D01*
X76068073Y-62124302D01*
X75971400Y-62357691D01*
X73517896Y-62357691D01*
X73449670Y-62255585D01*
X72963489Y-61930729D01*
X72390000Y-61816655D01*
X71816511Y-61930729D01*
X71330330Y-62255585D01*
X71120000Y-62570366D01*
X70909670Y-62255585D01*
X70612000Y-62056688D01*
X70612000Y-39957000D01*
X82296000Y-39957000D01*
X82296000Y-61867179D01*
X81976511Y-61930729D01*
X81490330Y-62255585D01*
X81282385Y-62566796D01*
X81072499Y-62252678D01*
X80585020Y-61926956D01*
X80010000Y-61812577D01*
X79434980Y-61926956D01*
X78947501Y-62252678D01*
X78933674Y-62273372D01*
X78871927Y-62124302D01*
X78693299Y-61945673D01*
X78459910Y-61849000D01*
X77755750Y-61849000D01*
X77597000Y-62007750D01*
X77597000Y-63373000D01*
X77617000Y-63373000D01*
X77617000Y-63627000D01*
X77597000Y-63627000D01*
X77597000Y-64992250D01*
X77755750Y-65151000D01*
X78459910Y-65151000D01*
X78693299Y-65054327D01*
X78871927Y-64875698D01*
X78933674Y-64726628D01*
X78947501Y-64747322D01*
X79434980Y-65073044D01*
X80010000Y-65187423D01*
X80585020Y-65073044D01*
X81072499Y-64747322D01*
X81282385Y-64433204D01*
X81490330Y-64744415D01*
X81976511Y-65069271D01*
X82550000Y-65183345D01*
X83123489Y-65069271D01*
X83609670Y-64744415D01*
X83820000Y-64429634D01*
X84030330Y-64744415D01*
X84516511Y-65069271D01*
X85090000Y-65183345D01*
X85663489Y-65069271D01*
X86149670Y-64744415D01*
X86474526Y-64258234D01*
X86588600Y-63684745D01*
X86588600Y-63315255D01*
X86474526Y-62741766D01*
X86149670Y-62255585D01*
X85663489Y-61930729D01*
X85090000Y-61816655D01*
X84516511Y-61930729D01*
X84030330Y-62255585D01*
X83820000Y-62570366D01*
X83820000Y-39957000D01*
X92533000Y-39957000D01*
X92533000Y-69703000D01*
X89660000Y-69703000D01*
X89610590Y-69713006D01*
X89570197Y-69740197D01*
X86570197Y-72740197D01*
X86542334Y-72782211D01*
X86533000Y-72830000D01*
X86533000Y-76203000D01*
X36787000Y-76203000D01*
X36787000Y-72830000D01*
X36776994Y-72780590D01*
X36749803Y-72740197D01*
X33749803Y-69740197D01*
X33707789Y-69712334D01*
X33660000Y-69703000D01*
X30787000Y-69703000D01*
X30787000Y-63785750D01*
X36601400Y-63785750D01*
X36601400Y-64642309D01*
X36698073Y-64875698D01*
X36876701Y-65054327D01*
X37110090Y-65151000D01*
X37814250Y-65151000D01*
X37973000Y-64992250D01*
X37973000Y-63627000D01*
X36760150Y-63627000D01*
X36601400Y-63785750D01*
X30787000Y-63785750D01*
X30787000Y-62357691D01*
X36601400Y-62357691D01*
X36601400Y-63214250D01*
X36760150Y-63373000D01*
X37973000Y-63373000D01*
X37973000Y-62007750D01*
X37814250Y-61849000D01*
X37110090Y-61849000D01*
X36876701Y-61945673D01*
X36698073Y-62124302D01*
X36601400Y-62357691D01*
X30787000Y-62357691D01*
X30787000Y-59457000D01*
X35660000Y-59457000D01*
X35709410Y-59446994D01*
X35751035Y-59418553D01*
X35778315Y-59376159D01*
X35787000Y-59330000D01*
X35787000Y-43180000D01*
X42766655Y-43180000D01*
X42892330Y-43811810D01*
X43250222Y-44347433D01*
X43785845Y-44705325D01*
X44417655Y-44831000D01*
X44482345Y-44831000D01*
X45114155Y-44705325D01*
X45649778Y-44347433D01*
X46007670Y-43811810D01*
X46133345Y-43180000D01*
X46007670Y-42548190D01*
X45649778Y-42012567D01*
X45114155Y-41654675D01*
X44482345Y-41529000D01*
X44417655Y-41529000D01*
X43785845Y-41654675D01*
X43250222Y-42012567D01*
X42892330Y-42548190D01*
X42766655Y-43180000D01*
X35787000Y-43180000D01*
X35787000Y-39957000D01*
X47244000Y-39957000D01*
X47244000Y-49468369D01*
M02*
