G04 #@! TF.FileFunction,Legend,Top*
%FSLAX46Y46*%
G04 Gerber Fmt 4.6, Leading zero omitted, Abs format (unit mm)*
G04 Created by KiCad (PCBNEW (2015-09-17 BZR 6202)-product) date Sunday, October 11, 2015 'PMt' 02:52:04 PM*
%MOMM*%
G01*
G04 APERTURE LIST*
%ADD10C,0.200000*%
%ADD11C,0.250000*%
%ADD12C,0.304800*%
%ADD13C,0.150000*%
%ADD14C,0.127000*%
%ADD15C,0.010000*%
%ADD16C,0.076200*%
G04 APERTURE END LIST*
D10*
X91225714Y-36067144D02*
X91225714Y-35543334D01*
X91892381Y-36067144D01*
X91892381Y-35543334D01*
X90987619Y-35210001D02*
X90940000Y-35162382D01*
X90892381Y-35067144D01*
X90892381Y-34829048D01*
X90940000Y-34733810D01*
X90987619Y-34686191D01*
X91082857Y-34638572D01*
X91178095Y-34638572D01*
X91320952Y-34686191D01*
X91892381Y-35257620D01*
X91892381Y-34638572D01*
X91892381Y-33781429D02*
X91368571Y-33781429D01*
X91273333Y-33829048D01*
X91225714Y-33924286D01*
X91225714Y-34114763D01*
X91273333Y-34210001D01*
X91844762Y-33781429D02*
X91892381Y-33876667D01*
X91892381Y-34114763D01*
X91844762Y-34210001D01*
X91749524Y-34257620D01*
X91654286Y-34257620D01*
X91559048Y-34210001D01*
X91511429Y-34114763D01*
X91511429Y-33876667D01*
X91463810Y-33781429D01*
X91892381Y-33305239D02*
X91225714Y-33305239D01*
X91320952Y-33305239D02*
X91273333Y-33257620D01*
X91225714Y-33162382D01*
X91225714Y-33019524D01*
X91273333Y-32924286D01*
X91368571Y-32876667D01*
X91892381Y-32876667D01*
X91368571Y-32876667D02*
X91273333Y-32829048D01*
X91225714Y-32733810D01*
X91225714Y-32590953D01*
X91273333Y-32495715D01*
X91368571Y-32448096D01*
X91892381Y-32448096D01*
X91892381Y-31971906D02*
X91225714Y-31971906D01*
X90892381Y-31971906D02*
X90940000Y-32019525D01*
X90987619Y-31971906D01*
X90940000Y-31924287D01*
X90892381Y-31971906D01*
X90987619Y-31971906D01*
X91892381Y-31352859D02*
X91844762Y-31448097D01*
X91749524Y-31495716D01*
X90892381Y-31495716D01*
X91892381Y-30829049D02*
X91844762Y-30924287D01*
X91749524Y-30971906D01*
X90892381Y-30971906D01*
X91844762Y-30067143D02*
X91892381Y-30162381D01*
X91892381Y-30352858D01*
X91844762Y-30448096D01*
X91749524Y-30495715D01*
X91368571Y-30495715D01*
X91273333Y-30448096D01*
X91225714Y-30352858D01*
X91225714Y-30162381D01*
X91273333Y-30067143D01*
X91368571Y-30019524D01*
X91463810Y-30019524D01*
X91559048Y-30495715D01*
X91892381Y-29590953D02*
X91225714Y-29590953D01*
X91416190Y-29590953D02*
X91320952Y-29543334D01*
X91273333Y-29495715D01*
X91225714Y-29400477D01*
X91225714Y-29305238D01*
X91892381Y-69460476D02*
X90892381Y-69460476D01*
X90892381Y-69079523D01*
X90940000Y-68984285D01*
X90987619Y-68936666D01*
X91082857Y-68889047D01*
X91225714Y-68889047D01*
X91320952Y-68936666D01*
X91368571Y-68984285D01*
X91416190Y-69079523D01*
X91416190Y-69460476D01*
X91892381Y-68460476D02*
X91225714Y-68460476D01*
X90892381Y-68460476D02*
X90940000Y-68508095D01*
X90987619Y-68460476D01*
X90940000Y-68412857D01*
X90892381Y-68460476D01*
X90987619Y-68460476D01*
X91892381Y-67984286D02*
X91225714Y-67984286D01*
X91416190Y-67984286D02*
X91320952Y-67936667D01*
X91273333Y-67889048D01*
X91225714Y-67793810D01*
X91225714Y-67698571D01*
X91892381Y-66936666D02*
X91368571Y-66936666D01*
X91273333Y-66984285D01*
X91225714Y-67079523D01*
X91225714Y-67270000D01*
X91273333Y-67365238D01*
X91844762Y-66936666D02*
X91892381Y-67031904D01*
X91892381Y-67270000D01*
X91844762Y-67365238D01*
X91749524Y-67412857D01*
X91654286Y-67412857D01*
X91559048Y-67365238D01*
X91511429Y-67270000D01*
X91511429Y-67031904D01*
X91463810Y-66936666D01*
X91225714Y-66603333D02*
X91225714Y-66222381D01*
X90892381Y-66460476D02*
X91749524Y-66460476D01*
X91844762Y-66412857D01*
X91892381Y-66317619D01*
X91892381Y-66222381D01*
X91844762Y-65508094D02*
X91892381Y-65603332D01*
X91892381Y-65793809D01*
X91844762Y-65889047D01*
X91749524Y-65936666D01*
X91368571Y-65936666D01*
X91273333Y-65889047D01*
X91225714Y-65793809D01*
X91225714Y-65603332D01*
X91273333Y-65508094D01*
X91368571Y-65460475D01*
X91463810Y-65460475D01*
X91559048Y-65936666D01*
X91892381Y-65031904D02*
X90892381Y-65031904D01*
X90892381Y-64365238D02*
X90892381Y-64174761D01*
X90940000Y-64079523D01*
X91035238Y-63984285D01*
X91225714Y-63936666D01*
X91559048Y-63936666D01*
X91749524Y-63984285D01*
X91844762Y-64079523D01*
X91892381Y-64174761D01*
X91892381Y-64365238D01*
X91844762Y-64460476D01*
X91749524Y-64555714D01*
X91559048Y-64603333D01*
X91225714Y-64603333D01*
X91035238Y-64555714D01*
X90940000Y-64460476D01*
X90892381Y-64365238D01*
X91225714Y-62841428D02*
X91892381Y-62603333D01*
X91225714Y-62365237D01*
X90987619Y-62031904D02*
X90940000Y-61984285D01*
X90892381Y-61889047D01*
X90892381Y-61650951D01*
X90940000Y-61555713D01*
X90987619Y-61508094D01*
X91082857Y-61460475D01*
X91178095Y-61460475D01*
X91320952Y-61508094D01*
X91892381Y-62079523D01*
X91892381Y-61460475D01*
X91797143Y-61031904D02*
X91844762Y-60984285D01*
X91892381Y-61031904D01*
X91844762Y-61079523D01*
X91797143Y-61031904D01*
X91892381Y-61031904D01*
X90892381Y-60365238D02*
X90892381Y-60269999D01*
X90940000Y-60174761D01*
X90987619Y-60127142D01*
X91082857Y-60079523D01*
X91273333Y-60031904D01*
X91511429Y-60031904D01*
X91701905Y-60079523D01*
X91797143Y-60127142D01*
X91844762Y-60174761D01*
X91892381Y-60269999D01*
X91892381Y-60365238D01*
X91844762Y-60460476D01*
X91797143Y-60508095D01*
X91701905Y-60555714D01*
X91511429Y-60603333D01*
X91273333Y-60603333D01*
X91082857Y-60555714D01*
X90987619Y-60508095D01*
X90940000Y-60460476D01*
X90892381Y-60365238D01*
D11*
X84121905Y-61666381D02*
X84121905Y-60666381D01*
X84598095Y-61666381D02*
X84598095Y-60666381D01*
X85169524Y-61666381D01*
X85169524Y-60666381D01*
X86074286Y-60999714D02*
X86074286Y-61666381D01*
X85836190Y-60618762D02*
X85598095Y-61333048D01*
X86217143Y-61333048D01*
X71421905Y-61412381D02*
X71421905Y-60412381D01*
X71898095Y-61412381D02*
X71898095Y-60412381D01*
X72469524Y-61412381D01*
X72469524Y-60412381D01*
X72850476Y-60412381D02*
X73469524Y-60412381D01*
X73136190Y-60793333D01*
X73279048Y-60793333D01*
X73374286Y-60840952D01*
X73421905Y-60888571D01*
X73469524Y-60983810D01*
X73469524Y-61221905D01*
X73421905Y-61317143D01*
X73374286Y-61364762D01*
X73279048Y-61412381D01*
X72993333Y-61412381D01*
X72898095Y-61364762D01*
X72850476Y-61317143D01*
X58213905Y-61412381D02*
X58213905Y-60412381D01*
X58690095Y-61412381D02*
X58690095Y-60412381D01*
X59261524Y-61412381D01*
X59261524Y-60412381D01*
X59690095Y-60507619D02*
X59737714Y-60460000D01*
X59832952Y-60412381D01*
X60071048Y-60412381D01*
X60166286Y-60460000D01*
X60213905Y-60507619D01*
X60261524Y-60602857D01*
X60261524Y-60698095D01*
X60213905Y-60840952D01*
X59642476Y-61412381D01*
X60261524Y-61412381D01*
X44751905Y-61412381D02*
X44751905Y-60412381D01*
X45228095Y-61412381D02*
X45228095Y-60412381D01*
X45799524Y-61412381D01*
X45799524Y-60412381D01*
X46799524Y-61412381D02*
X46228095Y-61412381D01*
X46513809Y-61412381D02*
X46513809Y-60412381D01*
X46418571Y-60555238D01*
X46323333Y-60650476D01*
X46228095Y-60698095D01*
X76120571Y-60412381D02*
X76311048Y-60412381D01*
X76406286Y-60460000D01*
X76501524Y-60555238D01*
X76549143Y-60745714D01*
X76549143Y-61079048D01*
X76501524Y-61269524D01*
X76406286Y-61364762D01*
X76311048Y-61412381D01*
X76120571Y-61412381D01*
X76025333Y-61364762D01*
X75930095Y-61269524D01*
X75882476Y-61079048D01*
X75882476Y-60745714D01*
X75930095Y-60555238D01*
X76025333Y-60460000D01*
X76120571Y-60412381D01*
X76977714Y-60412381D02*
X76977714Y-61221905D01*
X77025333Y-61317143D01*
X77072952Y-61364762D01*
X77168190Y-61412381D01*
X77358667Y-61412381D01*
X77453905Y-61364762D01*
X77501524Y-61317143D01*
X77549143Y-61221905D01*
X77549143Y-60412381D01*
X77882476Y-60412381D02*
X78453905Y-60412381D01*
X78168190Y-61412381D02*
X78168190Y-60412381D01*
X79215810Y-60745714D02*
X79215810Y-61412381D01*
X78977714Y-60364762D02*
X78739619Y-61079048D01*
X79358667Y-61079048D01*
X63420571Y-60412381D02*
X63611048Y-60412381D01*
X63706286Y-60460000D01*
X63801524Y-60555238D01*
X63849143Y-60745714D01*
X63849143Y-61079048D01*
X63801524Y-61269524D01*
X63706286Y-61364762D01*
X63611048Y-61412381D01*
X63420571Y-61412381D01*
X63325333Y-61364762D01*
X63230095Y-61269524D01*
X63182476Y-61079048D01*
X63182476Y-60745714D01*
X63230095Y-60555238D01*
X63325333Y-60460000D01*
X63420571Y-60412381D01*
X64277714Y-60412381D02*
X64277714Y-61221905D01*
X64325333Y-61317143D01*
X64372952Y-61364762D01*
X64468190Y-61412381D01*
X64658667Y-61412381D01*
X64753905Y-61364762D01*
X64801524Y-61317143D01*
X64849143Y-61221905D01*
X64849143Y-60412381D01*
X65182476Y-60412381D02*
X65753905Y-60412381D01*
X65468190Y-61412381D02*
X65468190Y-60412381D01*
X65992000Y-60412381D02*
X66611048Y-60412381D01*
X66277714Y-60793333D01*
X66420572Y-60793333D01*
X66515810Y-60840952D01*
X66563429Y-60888571D01*
X66611048Y-60983810D01*
X66611048Y-61221905D01*
X66563429Y-61317143D01*
X66515810Y-61364762D01*
X66420572Y-61412381D01*
X66134857Y-61412381D01*
X66039619Y-61364762D01*
X65992000Y-61317143D01*
X50212571Y-60412381D02*
X50403048Y-60412381D01*
X50498286Y-60460000D01*
X50593524Y-60555238D01*
X50641143Y-60745714D01*
X50641143Y-61079048D01*
X50593524Y-61269524D01*
X50498286Y-61364762D01*
X50403048Y-61412381D01*
X50212571Y-61412381D01*
X50117333Y-61364762D01*
X50022095Y-61269524D01*
X49974476Y-61079048D01*
X49974476Y-60745714D01*
X50022095Y-60555238D01*
X50117333Y-60460000D01*
X50212571Y-60412381D01*
X51069714Y-60412381D02*
X51069714Y-61221905D01*
X51117333Y-61317143D01*
X51164952Y-61364762D01*
X51260190Y-61412381D01*
X51450667Y-61412381D01*
X51545905Y-61364762D01*
X51593524Y-61317143D01*
X51641143Y-61221905D01*
X51641143Y-60412381D01*
X51974476Y-60412381D02*
X52545905Y-60412381D01*
X52260190Y-61412381D02*
X52260190Y-60412381D01*
X52831619Y-60507619D02*
X52879238Y-60460000D01*
X52974476Y-60412381D01*
X53212572Y-60412381D01*
X53307810Y-60460000D01*
X53355429Y-60507619D01*
X53403048Y-60602857D01*
X53403048Y-60698095D01*
X53355429Y-60840952D01*
X52784000Y-61412381D01*
X53403048Y-61412381D01*
X37004571Y-60412381D02*
X37195048Y-60412381D01*
X37290286Y-60460000D01*
X37385524Y-60555238D01*
X37433143Y-60745714D01*
X37433143Y-61079048D01*
X37385524Y-61269524D01*
X37290286Y-61364762D01*
X37195048Y-61412381D01*
X37004571Y-61412381D01*
X36909333Y-61364762D01*
X36814095Y-61269524D01*
X36766476Y-61079048D01*
X36766476Y-60745714D01*
X36814095Y-60555238D01*
X36909333Y-60460000D01*
X37004571Y-60412381D01*
X37861714Y-60412381D02*
X37861714Y-61221905D01*
X37909333Y-61317143D01*
X37956952Y-61364762D01*
X38052190Y-61412381D01*
X38242667Y-61412381D01*
X38337905Y-61364762D01*
X38385524Y-61317143D01*
X38433143Y-61221905D01*
X38433143Y-60412381D01*
X38766476Y-60412381D02*
X39337905Y-60412381D01*
X39052190Y-61412381D02*
X39052190Y-60412381D01*
X40195048Y-61412381D02*
X39623619Y-61412381D01*
X39909333Y-61412381D02*
X39909333Y-60412381D01*
X39814095Y-60555238D01*
X39718857Y-60650476D01*
X39623619Y-60698095D01*
X46609048Y-45791429D02*
X47370953Y-45791429D01*
X46990001Y-46172381D02*
X46990001Y-45410476D01*
D10*
X35601612Y-74000000D02*
G75*
G03X35601612Y-74000000I-3101612J0D01*
G01*
X34000000Y-74000000D02*
G75*
G03X34000000Y-74000000I-1500000J0D01*
G01*
X93601612Y-74000000D02*
G75*
G03X93601612Y-74000000I-3101612J0D01*
G01*
X92000000Y-74000000D02*
G75*
G03X92000000Y-74000000I-1500000J0D01*
G01*
X35606445Y-25000000D02*
G75*
G03X35606445Y-25000000I-3106445J0D01*
G01*
X93601612Y-25000000D02*
G75*
G03X93601612Y-25000000I-3101612J0D01*
G01*
X92000000Y-25000000D02*
G75*
G03X92000000Y-25000000I-1500000J0D01*
G01*
X34081139Y-25000000D02*
G75*
G03X34081139Y-25000000I-1581139J0D01*
G01*
X61500000Y-25000000D02*
X61500000Y-24250000D01*
X61500000Y-25000000D02*
X62500000Y-25000000D01*
X61500000Y-25000000D02*
X60750000Y-25000000D01*
X61500000Y-24750000D02*
X61500000Y-25750000D01*
D12*
X86900000Y-27540000D02*
X36100000Y-27540000D01*
X86900000Y-22460000D02*
X36100000Y-22460000D01*
X86900000Y-22460000D02*
X86900000Y-27540000D01*
X36100000Y-22460000D02*
X36100000Y-27540000D01*
D13*
X39370000Y-64770000D02*
X46990000Y-64770000D01*
X39370000Y-62230000D02*
X46990000Y-62230000D01*
X36550000Y-61950000D02*
X38100000Y-61950000D01*
X46990000Y-64770000D02*
X46990000Y-62230000D01*
X39370000Y-62230000D02*
X39370000Y-64770000D01*
X38100000Y-65050000D02*
X36550000Y-65050000D01*
X36550000Y-65050000D02*
X36550000Y-61950000D01*
X52705000Y-64770000D02*
X60325000Y-64770000D01*
X52705000Y-62230000D02*
X60325000Y-62230000D01*
X49885000Y-61950000D02*
X51435000Y-61950000D01*
X60325000Y-64770000D02*
X60325000Y-62230000D01*
X52705000Y-62230000D02*
X52705000Y-64770000D01*
X51435000Y-65050000D02*
X49885000Y-65050000D01*
X49885000Y-65050000D02*
X49885000Y-61950000D01*
X66040000Y-64770000D02*
X73660000Y-64770000D01*
X66040000Y-62230000D02*
X73660000Y-62230000D01*
X63220000Y-61950000D02*
X64770000Y-61950000D01*
X73660000Y-64770000D02*
X73660000Y-62230000D01*
X66040000Y-62230000D02*
X66040000Y-64770000D01*
X64770000Y-65050000D02*
X63220000Y-65050000D01*
X63220000Y-65050000D02*
X63220000Y-61950000D01*
X78740000Y-64770000D02*
X86360000Y-64770000D01*
X78740000Y-62230000D02*
X86360000Y-62230000D01*
X75920000Y-61950000D02*
X77470000Y-61950000D01*
X86360000Y-64770000D02*
X86360000Y-62230000D01*
X78740000Y-62230000D02*
X78740000Y-64770000D01*
X77470000Y-65050000D02*
X75920000Y-65050000D01*
X75920000Y-65050000D02*
X75920000Y-61950000D01*
X43180000Y-44450000D02*
X43180000Y-41910000D01*
X42900000Y-47270000D02*
X42900000Y-45720000D01*
X43180000Y-44450000D02*
X45720000Y-44450000D01*
X46000000Y-45720000D02*
X46000000Y-47270000D01*
X46000000Y-47270000D02*
X42900000Y-47270000D01*
X45720000Y-44450000D02*
X45720000Y-41910000D01*
X45720000Y-41910000D02*
X43180000Y-41910000D01*
X40040000Y-49290000D02*
X41240000Y-49290000D01*
X41240000Y-51040000D02*
X40040000Y-51040000D01*
X53375000Y-49290000D02*
X54575000Y-49290000D01*
X54575000Y-51040000D02*
X53375000Y-51040000D01*
X66710000Y-49290000D02*
X67910000Y-49290000D01*
X67910000Y-51040000D02*
X66710000Y-51040000D01*
X79410000Y-49290000D02*
X80610000Y-49290000D01*
X80610000Y-51040000D02*
X79410000Y-51040000D01*
X47230000Y-57185000D02*
X47230000Y-58385000D01*
X45480000Y-58385000D02*
X45480000Y-57185000D01*
X60565000Y-57185000D02*
X60565000Y-58385000D01*
X58815000Y-58385000D02*
X58815000Y-57185000D01*
X73900000Y-57185000D02*
X73900000Y-58385000D01*
X72150000Y-58385000D02*
X72150000Y-57185000D01*
X86600000Y-57185000D02*
X86600000Y-58385000D01*
X84850000Y-58385000D02*
X84850000Y-57185000D01*
D14*
X40005000Y-32512000D02*
X40386000Y-33401000D01*
X40005000Y-34290000D02*
X40005000Y-33528000D01*
X40005000Y-31750000D02*
X40005000Y-32512000D01*
X40005000Y-29972000D02*
X45085000Y-29972000D01*
X45085000Y-29972000D02*
X45593000Y-30480000D01*
X45593000Y-30480000D02*
X45593000Y-35560000D01*
X45593000Y-35560000D02*
X45085000Y-36068000D01*
X45085000Y-36068000D02*
X40005000Y-36068000D01*
X40005000Y-36068000D02*
X39497000Y-35560000D01*
X39497000Y-35560000D02*
X39497000Y-30480000D01*
X39497000Y-30480000D02*
X40005000Y-29972000D01*
X44323000Y-33020000D02*
G75*
G03X44323000Y-33020000I-1778000J0D01*
G01*
X53340000Y-32512000D02*
X53721000Y-33401000D01*
X53340000Y-34290000D02*
X53340000Y-33528000D01*
X53340000Y-31750000D02*
X53340000Y-32512000D01*
X53340000Y-29972000D02*
X58420000Y-29972000D01*
X58420000Y-29972000D02*
X58928000Y-30480000D01*
X58928000Y-30480000D02*
X58928000Y-35560000D01*
X58928000Y-35560000D02*
X58420000Y-36068000D01*
X58420000Y-36068000D02*
X53340000Y-36068000D01*
X53340000Y-36068000D02*
X52832000Y-35560000D01*
X52832000Y-35560000D02*
X52832000Y-30480000D01*
X52832000Y-30480000D02*
X53340000Y-29972000D01*
X57658000Y-33020000D02*
G75*
G03X57658000Y-33020000I-1778000J0D01*
G01*
X66040000Y-32512000D02*
X66421000Y-33401000D01*
X66040000Y-34290000D02*
X66040000Y-33528000D01*
X66040000Y-31750000D02*
X66040000Y-32512000D01*
X66040000Y-29972000D02*
X71120000Y-29972000D01*
X71120000Y-29972000D02*
X71628000Y-30480000D01*
X71628000Y-30480000D02*
X71628000Y-35560000D01*
X71628000Y-35560000D02*
X71120000Y-36068000D01*
X71120000Y-36068000D02*
X66040000Y-36068000D01*
X66040000Y-36068000D02*
X65532000Y-35560000D01*
X65532000Y-35560000D02*
X65532000Y-30480000D01*
X65532000Y-30480000D02*
X66040000Y-29972000D01*
X70358000Y-33020000D02*
G75*
G03X70358000Y-33020000I-1778000J0D01*
G01*
X78740000Y-32512000D02*
X79121000Y-33401000D01*
X78740000Y-34290000D02*
X78740000Y-33528000D01*
X78740000Y-31750000D02*
X78740000Y-32512000D01*
X78740000Y-29972000D02*
X83820000Y-29972000D01*
X83820000Y-29972000D02*
X84328000Y-30480000D01*
X84328000Y-30480000D02*
X84328000Y-35560000D01*
X84328000Y-35560000D02*
X83820000Y-36068000D01*
X83820000Y-36068000D02*
X78740000Y-36068000D01*
X78740000Y-36068000D02*
X78232000Y-35560000D01*
X78232000Y-35560000D02*
X78232000Y-30480000D01*
X78232000Y-30480000D02*
X78740000Y-29972000D01*
X83058000Y-33020000D02*
G75*
G03X83058000Y-33020000I-1778000J0D01*
G01*
D13*
X81509820Y-54559200D02*
X81509820Y-55260240D01*
X81509820Y-55260240D02*
X81260900Y-55260240D01*
X78710840Y-55260240D02*
X78510180Y-55260240D01*
X78510180Y-55260240D02*
X78510180Y-54559200D01*
X68809820Y-54559200D02*
X68809820Y-55260240D01*
X68809820Y-55260240D02*
X68560900Y-55260240D01*
X66010840Y-55260240D02*
X65810180Y-55260240D01*
X65810180Y-55260240D02*
X65810180Y-54559200D01*
X55474820Y-54559200D02*
X55474820Y-55260240D01*
X55474820Y-55260240D02*
X55225900Y-55260240D01*
X52675840Y-55260240D02*
X52475180Y-55260240D01*
X52475180Y-55260240D02*
X52475180Y-54559200D01*
X42139820Y-54559200D02*
X42139820Y-55260240D01*
X42139820Y-55260240D02*
X41890900Y-55260240D01*
X39340840Y-55260240D02*
X39140180Y-55260240D01*
X39140180Y-55260240D02*
X39140180Y-54559200D01*
X55845000Y-59930000D02*
X54645000Y-59930000D01*
X54645000Y-58180000D02*
X55845000Y-58180000D01*
X42510000Y-59930000D02*
X41310000Y-59930000D01*
X41310000Y-58180000D02*
X42510000Y-58180000D01*
X81880000Y-59930000D02*
X80680000Y-59930000D01*
X80680000Y-58180000D02*
X81880000Y-58180000D01*
X69180000Y-59930000D02*
X67980000Y-59930000D01*
X67980000Y-58180000D02*
X69180000Y-58180000D01*
D15*
G36*
X89663154Y-41379516D02*
X89730082Y-41276989D01*
X89783887Y-41224903D01*
X89880986Y-41150767D01*
X89954042Y-41137922D01*
X90021073Y-41192121D01*
X90100098Y-41319117D01*
X90104581Y-41327286D01*
X90181966Y-41428418D01*
X90301199Y-41542496D01*
X90393048Y-41613667D01*
X90552099Y-41731334D01*
X90719266Y-41865419D01*
X90795703Y-41931167D01*
X90902927Y-42019896D01*
X91000503Y-42076683D01*
X91118034Y-42113769D01*
X91285122Y-42143393D01*
X91321976Y-42148767D01*
X91595651Y-42210747D01*
X91803889Y-42312838D01*
X91959558Y-42462959D01*
X92038416Y-42589590D01*
X92089234Y-42737696D01*
X92124369Y-42936567D01*
X92140614Y-43153226D01*
X92134764Y-43354694D01*
X92121534Y-43444395D01*
X92072008Y-43572377D01*
X91990713Y-43685423D01*
X91898923Y-43758211D01*
X91846273Y-43772019D01*
X91742514Y-43736866D01*
X91674115Y-43632797D01*
X91640049Y-43456799D01*
X91639290Y-43205856D01*
X91641400Y-43170388D01*
X91646906Y-42957155D01*
X91623678Y-42808188D01*
X91561176Y-42705065D01*
X91448858Y-42629364D01*
X91297814Y-42569909D01*
X91148058Y-42525120D01*
X91046625Y-42513416D01*
X90965064Y-42532191D01*
X90951276Y-42538159D01*
X90852967Y-42577029D01*
X90792891Y-42570574D01*
X90745231Y-42506463D01*
X90705473Y-42420771D01*
X90627537Y-42296228D01*
X90500060Y-42173873D01*
X90312634Y-42045513D01*
X90054850Y-41902956D01*
X90033950Y-41892259D01*
X89856410Y-41798102D01*
X89742505Y-41724514D01*
X89678489Y-41657707D01*
X89650615Y-41583892D01*
X89645067Y-41502195D01*
X89663154Y-41379516D01*
X89663154Y-41379516D01*
G37*
X89663154Y-41379516D02*
X89730082Y-41276989D01*
X89783887Y-41224903D01*
X89880986Y-41150767D01*
X89954042Y-41137922D01*
X90021073Y-41192121D01*
X90100098Y-41319117D01*
X90104581Y-41327286D01*
X90181966Y-41428418D01*
X90301199Y-41542496D01*
X90393048Y-41613667D01*
X90552099Y-41731334D01*
X90719266Y-41865419D01*
X90795703Y-41931167D01*
X90902927Y-42019896D01*
X91000503Y-42076683D01*
X91118034Y-42113769D01*
X91285122Y-42143393D01*
X91321976Y-42148767D01*
X91595651Y-42210747D01*
X91803889Y-42312838D01*
X91959558Y-42462959D01*
X92038416Y-42589590D01*
X92089234Y-42737696D01*
X92124369Y-42936567D01*
X92140614Y-43153226D01*
X92134764Y-43354694D01*
X92121534Y-43444395D01*
X92072008Y-43572377D01*
X91990713Y-43685423D01*
X91898923Y-43758211D01*
X91846273Y-43772019D01*
X91742514Y-43736866D01*
X91674115Y-43632797D01*
X91640049Y-43456799D01*
X91639290Y-43205856D01*
X91641400Y-43170388D01*
X91646906Y-42957155D01*
X91623678Y-42808188D01*
X91561176Y-42705065D01*
X91448858Y-42629364D01*
X91297814Y-42569909D01*
X91148058Y-42525120D01*
X91046625Y-42513416D01*
X90965064Y-42532191D01*
X90951276Y-42538159D01*
X90852967Y-42577029D01*
X90792891Y-42570574D01*
X90745231Y-42506463D01*
X90705473Y-42420771D01*
X90627537Y-42296228D01*
X90500060Y-42173873D01*
X90312634Y-42045513D01*
X90054850Y-41902956D01*
X90033950Y-41892259D01*
X89856410Y-41798102D01*
X89742505Y-41724514D01*
X89678489Y-41657707D01*
X89650615Y-41583892D01*
X89645067Y-41502195D01*
X89663154Y-41379516D01*
G36*
X89545605Y-48834707D02*
X89590547Y-48694589D01*
X89646906Y-48636040D01*
X89760210Y-48548570D01*
X89913453Y-48444476D01*
X90071927Y-48346470D01*
X90253710Y-48232819D01*
X90417575Y-48119201D01*
X90543742Y-48019991D01*
X90606229Y-47958165D01*
X90664195Y-47889309D01*
X90719696Y-47849801D01*
X90796902Y-47832415D01*
X90919986Y-47829926D01*
X91026304Y-47832588D01*
X91191466Y-47834951D01*
X91298574Y-47825616D01*
X91374101Y-47797728D01*
X91444521Y-47744436D01*
X91475123Y-47716403D01*
X91576177Y-47577666D01*
X91609786Y-47407553D01*
X91577018Y-47196506D01*
X91544613Y-47095834D01*
X91492966Y-46913335D01*
X91493035Y-46787595D01*
X91545526Y-46707802D01*
X91570943Y-46691557D01*
X91689613Y-46656431D01*
X91795979Y-46690899D01*
X91898060Y-46800026D01*
X91987016Y-46954403D01*
X92079659Y-47177858D01*
X92110528Y-47370927D01*
X92080222Y-47560476D01*
X92004617Y-47743317D01*
X91928957Y-47873908D01*
X91851029Y-47975333D01*
X91804958Y-48014586D01*
X91709343Y-48076714D01*
X91661695Y-48116924D01*
X91559981Y-48177647D01*
X91390578Y-48232130D01*
X91170456Y-48275485D01*
X91061141Y-48289864D01*
X90915478Y-48314385D01*
X90809510Y-48360646D01*
X90705165Y-48448081D01*
X90658975Y-48495146D01*
X90517867Y-48621099D01*
X90348827Y-48742886D01*
X90260546Y-48795269D01*
X90084171Y-48906759D01*
X89936464Y-49032981D01*
X89833027Y-49158022D01*
X89789466Y-49265969D01*
X89789000Y-49276145D01*
X89767909Y-49333590D01*
X89715694Y-49328676D01*
X89648936Y-49268985D01*
X89596934Y-49188306D01*
X89545121Y-49017793D01*
X89545605Y-48834707D01*
X89545605Y-48834707D01*
G37*
X89545605Y-48834707D02*
X89590547Y-48694589D01*
X89646906Y-48636040D01*
X89760210Y-48548570D01*
X89913453Y-48444476D01*
X90071927Y-48346470D01*
X90253710Y-48232819D01*
X90417575Y-48119201D01*
X90543742Y-48019991D01*
X90606229Y-47958165D01*
X90664195Y-47889309D01*
X90719696Y-47849801D01*
X90796902Y-47832415D01*
X90919986Y-47829926D01*
X91026304Y-47832588D01*
X91191466Y-47834951D01*
X91298574Y-47825616D01*
X91374101Y-47797728D01*
X91444521Y-47744436D01*
X91475123Y-47716403D01*
X91576177Y-47577666D01*
X91609786Y-47407553D01*
X91577018Y-47196506D01*
X91544613Y-47095834D01*
X91492966Y-46913335D01*
X91493035Y-46787595D01*
X91545526Y-46707802D01*
X91570943Y-46691557D01*
X91689613Y-46656431D01*
X91795979Y-46690899D01*
X91898060Y-46800026D01*
X91987016Y-46954403D01*
X92079659Y-47177858D01*
X92110528Y-47370927D01*
X92080222Y-47560476D01*
X92004617Y-47743317D01*
X91928957Y-47873908D01*
X91851029Y-47975333D01*
X91804958Y-48014586D01*
X91709343Y-48076714D01*
X91661695Y-48116924D01*
X91559981Y-48177647D01*
X91390578Y-48232130D01*
X91170456Y-48275485D01*
X91061141Y-48289864D01*
X90915478Y-48314385D01*
X90809510Y-48360646D01*
X90705165Y-48448081D01*
X90658975Y-48495146D01*
X90517867Y-48621099D01*
X90348827Y-48742886D01*
X90260546Y-48795269D01*
X90084171Y-48906759D01*
X89936464Y-49032981D01*
X89833027Y-49158022D01*
X89789466Y-49265969D01*
X89789000Y-49276145D01*
X89767909Y-49333590D01*
X89715694Y-49328676D01*
X89648936Y-49268985D01*
X89596934Y-49188306D01*
X89545121Y-49017793D01*
X89545605Y-48834707D01*
G36*
X91596832Y-40237005D02*
X91621866Y-40197441D01*
X91704326Y-40093499D01*
X91768121Y-40066359D01*
X91808034Y-40114268D01*
X91796101Y-40175650D01*
X91755363Y-40249206D01*
X91678071Y-40320251D01*
X91608882Y-40343667D01*
X91561391Y-40338435D01*
X91556787Y-40309499D01*
X91596832Y-40237005D01*
X91596832Y-40237005D01*
G37*
X91596832Y-40237005D02*
X91621866Y-40197441D01*
X91704326Y-40093499D01*
X91768121Y-40066359D01*
X91808034Y-40114268D01*
X91796101Y-40175650D01*
X91755363Y-40249206D01*
X91678071Y-40320251D01*
X91608882Y-40343667D01*
X91561391Y-40338435D01*
X91556787Y-40309499D01*
X91596832Y-40237005D01*
G36*
X91345176Y-50039909D02*
X91419528Y-50043262D01*
X91502886Y-50074774D01*
X91542810Y-50104524D01*
X91584820Y-50175704D01*
X91607540Y-50266815D01*
X91606590Y-50344809D01*
X91578863Y-50376667D01*
X91534290Y-50346730D01*
X91462834Y-50274405D01*
X91387212Y-50185926D01*
X91330139Y-50107524D01*
X91313099Y-50069750D01*
X91345176Y-50039909D01*
X91345176Y-50039909D01*
G37*
X91345176Y-50039909D02*
X91419528Y-50043262D01*
X91502886Y-50074774D01*
X91542810Y-50104524D01*
X91584820Y-50175704D01*
X91607540Y-50266815D01*
X91606590Y-50344809D01*
X91578863Y-50376667D01*
X91534290Y-50346730D01*
X91462834Y-50274405D01*
X91387212Y-50185926D01*
X91330139Y-50107524D01*
X91313099Y-50069750D01*
X91345176Y-50039909D01*
G36*
X90536356Y-39583263D02*
X90607158Y-39438252D01*
X90702672Y-39310761D01*
X90804497Y-39229033D01*
X90834502Y-39217397D01*
X90981163Y-39216995D01*
X91147444Y-39274832D01*
X91309663Y-39376388D01*
X91444135Y-39507148D01*
X91522335Y-39639034D01*
X91558023Y-39758312D01*
X91553786Y-39858252D01*
X91519889Y-39962667D01*
X91465146Y-40054816D01*
X91386269Y-40135268D01*
X91305468Y-40187039D01*
X91244955Y-40193146D01*
X91233062Y-40181984D01*
X91170075Y-40129823D01*
X91055201Y-40069259D01*
X90918527Y-40013058D01*
X90790145Y-39973982D01*
X90718217Y-39963597D01*
X90594318Y-39934674D01*
X90526391Y-39846370D01*
X90508667Y-39717548D01*
X90536356Y-39583263D01*
X90536356Y-39583263D01*
G37*
X90536356Y-39583263D02*
X90607158Y-39438252D01*
X90702672Y-39310761D01*
X90804497Y-39229033D01*
X90834502Y-39217397D01*
X90981163Y-39216995D01*
X91147444Y-39274832D01*
X91309663Y-39376388D01*
X91444135Y-39507148D01*
X91522335Y-39639034D01*
X91558023Y-39758312D01*
X91553786Y-39858252D01*
X91519889Y-39962667D01*
X91465146Y-40054816D01*
X91386269Y-40135268D01*
X91305468Y-40187039D01*
X91244955Y-40193146D01*
X91233062Y-40181984D01*
X91170075Y-40129823D01*
X91055201Y-40069259D01*
X90918527Y-40013058D01*
X90790145Y-39973982D01*
X90718217Y-39963597D01*
X90594318Y-39934674D01*
X90526391Y-39846370D01*
X90508667Y-39717548D01*
X90536356Y-39583263D01*
G36*
X90433187Y-50529724D02*
X90440418Y-50486350D01*
X90467921Y-50418919D01*
X90522849Y-50388918D01*
X90632014Y-50383138D01*
X90649280Y-50383429D01*
X90802341Y-50368242D01*
X90947162Y-50326099D01*
X90970184Y-50315313D01*
X91101541Y-50267013D01*
X91195362Y-50287764D01*
X91269010Y-50384161D01*
X91293745Y-50438212D01*
X91344612Y-50591611D01*
X91344109Y-50713625D01*
X91290176Y-50841698D01*
X91269634Y-50876545D01*
X91165906Y-50989776D01*
X91015312Y-51091085D01*
X90853004Y-51160331D01*
X90741500Y-51179129D01*
X90602049Y-51140936D01*
X90499626Y-51032132D01*
X90441356Y-50861316D01*
X90434379Y-50808457D01*
X90427344Y-50659884D01*
X90433187Y-50529724D01*
X90433187Y-50529724D01*
G37*
X90433187Y-50529724D02*
X90440418Y-50486350D01*
X90467921Y-50418919D01*
X90522849Y-50388918D01*
X90632014Y-50383138D01*
X90649280Y-50383429D01*
X90802341Y-50368242D01*
X90947162Y-50326099D01*
X90970184Y-50315313D01*
X91101541Y-50267013D01*
X91195362Y-50287764D01*
X91269010Y-50384161D01*
X91293745Y-50438212D01*
X91344612Y-50591611D01*
X91344109Y-50713625D01*
X91290176Y-50841698D01*
X91269634Y-50876545D01*
X91165906Y-50989776D01*
X91015312Y-51091085D01*
X90853004Y-51160331D01*
X90741500Y-51179129D01*
X90602049Y-51140936D01*
X90499626Y-51032132D01*
X90441356Y-50861316D01*
X90434379Y-50808457D01*
X90427344Y-50659884D01*
X90433187Y-50529724D01*
G36*
X90528463Y-49907588D02*
X90531355Y-49891620D01*
X90547565Y-49774480D01*
X90565122Y-49601145D01*
X90581330Y-49399993D01*
X90588665Y-49288233D01*
X90601357Y-49092520D01*
X90615856Y-48959958D01*
X90638831Y-48869170D01*
X90676948Y-48798783D01*
X90736874Y-48727418D01*
X90776820Y-48684983D01*
X90882718Y-48583135D01*
X90970976Y-48531977D01*
X91075403Y-48514959D01*
X91126070Y-48514000D01*
X91242092Y-48518738D01*
X91295394Y-48540586D01*
X91307734Y-48591002D01*
X91306979Y-48609250D01*
X91301650Y-48688072D01*
X91291701Y-48830548D01*
X91278595Y-49015888D01*
X91264961Y-49206995D01*
X91244862Y-49444471D01*
X91221843Y-49615516D01*
X91192338Y-49738363D01*
X91152780Y-49831243D01*
X91137845Y-49856920D01*
X91027790Y-49982440D01*
X90885588Y-50074685D01*
X90737037Y-50121635D01*
X90607936Y-50111269D01*
X90599523Y-50107741D01*
X90537200Y-50069497D01*
X90516668Y-50012781D01*
X90528463Y-49907588D01*
X90528463Y-49907588D01*
G37*
X90528463Y-49907588D02*
X90531355Y-49891620D01*
X90547565Y-49774480D01*
X90565122Y-49601145D01*
X90581330Y-49399993D01*
X90588665Y-49288233D01*
X90601357Y-49092520D01*
X90615856Y-48959958D01*
X90638831Y-48869170D01*
X90676948Y-48798783D01*
X90736874Y-48727418D01*
X90776820Y-48684983D01*
X90882718Y-48583135D01*
X90970976Y-48531977D01*
X91075403Y-48514959D01*
X91126070Y-48514000D01*
X91242092Y-48518738D01*
X91295394Y-48540586D01*
X91307734Y-48591002D01*
X91306979Y-48609250D01*
X91301650Y-48688072D01*
X91291701Y-48830548D01*
X91278595Y-49015888D01*
X91264961Y-49206995D01*
X91244862Y-49444471D01*
X91221843Y-49615516D01*
X91192338Y-49738363D01*
X91152780Y-49831243D01*
X91137845Y-49856920D01*
X91027790Y-49982440D01*
X90885588Y-50074685D01*
X90737037Y-50121635D01*
X90607936Y-50111269D01*
X90599523Y-50107741D01*
X90537200Y-50069497D01*
X90516668Y-50012781D01*
X90528463Y-49907588D01*
G36*
X90789420Y-40259000D02*
X90937851Y-40293467D01*
X91087489Y-40381711D01*
X91203285Y-40500995D01*
X91228299Y-40543711D01*
X91255614Y-40644364D01*
X91278559Y-40818789D01*
X91295962Y-41056153D01*
X91303820Y-41241360D01*
X91322504Y-41821553D01*
X91159002Y-41795814D01*
X91012102Y-41749396D01*
X90876534Y-41671463D01*
X90868500Y-41665020D01*
X90803159Y-41598559D01*
X90754960Y-41514110D01*
X90721317Y-41398509D01*
X90699646Y-41238591D01*
X90687359Y-41021191D01*
X90681872Y-40733147D01*
X90681709Y-40714084D01*
X90678000Y-40259000D01*
X90789420Y-40259000D01*
X90789420Y-40259000D01*
G37*
X90789420Y-40259000D02*
X90937851Y-40293467D01*
X91087489Y-40381711D01*
X91203285Y-40500995D01*
X91228299Y-40543711D01*
X91255614Y-40644364D01*
X91278559Y-40818789D01*
X91295962Y-41056153D01*
X91303820Y-41241360D01*
X91322504Y-41821553D01*
X91159002Y-41795814D01*
X91012102Y-41749396D01*
X90876534Y-41671463D01*
X90868500Y-41665020D01*
X90803159Y-41598559D01*
X90754960Y-41514110D01*
X90721317Y-41398509D01*
X90699646Y-41238591D01*
X90687359Y-41021191D01*
X90681872Y-40733147D01*
X90681709Y-40714084D01*
X90678000Y-40259000D01*
X90789420Y-40259000D01*
G36*
X90162545Y-45599378D02*
X90171547Y-45566310D01*
X90209410Y-45455853D01*
X90245473Y-45389713D01*
X90258161Y-45381334D01*
X90298834Y-45419122D01*
X90362031Y-45523862D01*
X90442236Y-45682619D01*
X90533931Y-45882457D01*
X90631599Y-46110441D01*
X90729723Y-46353633D01*
X90822786Y-46599100D01*
X90905270Y-46833904D01*
X90971658Y-47045111D01*
X90979520Y-47072649D01*
X91024677Y-47230784D01*
X91062925Y-47360308D01*
X91087024Y-47436787D01*
X91089174Y-47442709D01*
X91074288Y-47501068D01*
X91039526Y-47524375D01*
X90923714Y-47533830D01*
X90822302Y-47465505D01*
X90732771Y-47316947D01*
X90678673Y-47172841D01*
X90623639Y-47007253D01*
X90570407Y-46856185D01*
X90532432Y-46757167D01*
X90479029Y-46625153D01*
X90424739Y-46483975D01*
X90424005Y-46482000D01*
X90379161Y-46367330D01*
X90314552Y-46209288D01*
X90244366Y-46042560D01*
X90180837Y-45887394D01*
X90148904Y-45780644D01*
X90144247Y-45694057D01*
X90162545Y-45599378D01*
X90162545Y-45599378D01*
G37*
X90162545Y-45599378D02*
X90171547Y-45566310D01*
X90209410Y-45455853D01*
X90245473Y-45389713D01*
X90258161Y-45381334D01*
X90298834Y-45419122D01*
X90362031Y-45523862D01*
X90442236Y-45682619D01*
X90533931Y-45882457D01*
X90631599Y-46110441D01*
X90729723Y-46353633D01*
X90822786Y-46599100D01*
X90905270Y-46833904D01*
X90971658Y-47045111D01*
X90979520Y-47072649D01*
X91024677Y-47230784D01*
X91062925Y-47360308D01*
X91087024Y-47436787D01*
X91089174Y-47442709D01*
X91074288Y-47501068D01*
X91039526Y-47524375D01*
X90923714Y-47533830D01*
X90822302Y-47465505D01*
X90732771Y-47316947D01*
X90678673Y-47172841D01*
X90623639Y-47007253D01*
X90570407Y-46856185D01*
X90532432Y-46757167D01*
X90479029Y-46625153D01*
X90424739Y-46483975D01*
X90424005Y-46482000D01*
X90379161Y-46367330D01*
X90314552Y-46209288D01*
X90244366Y-46042560D01*
X90180837Y-45887394D01*
X90148904Y-45780644D01*
X90144247Y-45694057D01*
X90162545Y-45599378D01*
G36*
X83673180Y-53716792D02*
X83773198Y-53595371D01*
X83920300Y-53426540D01*
X84064789Y-53265476D01*
X84141860Y-53179293D01*
X84227259Y-53081223D01*
X84328887Y-52961852D01*
X84454647Y-52811768D01*
X84612442Y-52621557D01*
X84810173Y-52381806D01*
X84979563Y-52175834D01*
X85144146Y-51975703D01*
X85297456Y-51789567D01*
X85428398Y-51630872D01*
X85525878Y-51513069D01*
X85573267Y-51456167D01*
X85651415Y-51360908D01*
X85760100Y-51225633D01*
X85877833Y-51077122D01*
X85896011Y-51054000D01*
X86006671Y-50913748D01*
X86105261Y-50789990D01*
X86173745Y-50705337D01*
X86183015Y-50694167D01*
X86286377Y-50567790D01*
X86394004Y-50431361D01*
X86492738Y-50302206D01*
X86569419Y-50197648D01*
X86610889Y-50135012D01*
X86614676Y-50125851D01*
X86640655Y-50082193D01*
X86705459Y-50000263D01*
X86741676Y-49958181D01*
X86817694Y-49866575D01*
X86862716Y-49801965D01*
X86868000Y-49788415D01*
X86893650Y-49742024D01*
X86956117Y-49664535D01*
X86963250Y-49656568D01*
X87019775Y-49584322D01*
X87111405Y-49456555D01*
X87227575Y-49289035D01*
X87357717Y-49097535D01*
X87491267Y-48897824D01*
X87617658Y-48705672D01*
X87726324Y-48536850D01*
X87806698Y-48407128D01*
X87842220Y-48344667D01*
X87891295Y-48259772D01*
X87924118Y-48217667D01*
X87959648Y-48170050D01*
X88024558Y-48066219D01*
X88108301Y-47924618D01*
X88200327Y-47763692D01*
X88290088Y-47601886D01*
X88367035Y-47457646D01*
X88420429Y-47349834D01*
X88473110Y-47241828D01*
X88513912Y-47170773D01*
X88523257Y-47159334D01*
X88551235Y-47113783D01*
X88608024Y-47005297D01*
X88687003Y-46847738D01*
X88781554Y-46654970D01*
X88885055Y-46440854D01*
X88990888Y-46219253D01*
X89092433Y-46004030D01*
X89183069Y-45809046D01*
X89256177Y-45648164D01*
X89305137Y-45535247D01*
X89323329Y-45484156D01*
X89323334Y-45483916D01*
X89339374Y-45435141D01*
X89379951Y-45337735D01*
X89403999Y-45283761D01*
X89477203Y-45111829D01*
X89569500Y-44878788D01*
X89673759Y-44604033D01*
X89782847Y-44306958D01*
X89889631Y-44006958D01*
X89986980Y-43723426D01*
X90060903Y-43497500D01*
X90125000Y-43297958D01*
X90182479Y-43124223D01*
X90227275Y-42994278D01*
X90253326Y-42926107D01*
X90254161Y-42924373D01*
X90281479Y-42842691D01*
X90309701Y-42719354D01*
X90316654Y-42680956D01*
X90341748Y-42571969D01*
X90369199Y-42508917D01*
X90378593Y-42502667D01*
X90421568Y-42539323D01*
X90465731Y-42628775D01*
X90498691Y-42740247D01*
X90508667Y-42825689D01*
X90496156Y-42935023D01*
X90462841Y-43100065D01*
X90415044Y-43296320D01*
X90359090Y-43499295D01*
X90301302Y-43684494D01*
X90253255Y-43815000D01*
X90206827Y-43929428D01*
X90139051Y-44099746D01*
X90059067Y-44302856D01*
X89976854Y-44513500D01*
X89893848Y-44724956D01*
X89813758Y-44925032D01*
X89745714Y-45091155D01*
X89698892Y-45200654D01*
X89653878Y-45309229D01*
X89589398Y-45475878D01*
X89513750Y-45678690D01*
X89435229Y-45895754D01*
X89428125Y-45915747D01*
X89345652Y-46138133D01*
X89259756Y-46352730D01*
X89180345Y-46535758D01*
X89117323Y-46663436D01*
X89114787Y-46667927D01*
X89029679Y-46828742D01*
X88950310Y-46997211D01*
X88918052Y-47074667D01*
X88860421Y-47205330D01*
X88801268Y-47311551D01*
X88780804Y-47339510D01*
X88741659Y-47407374D01*
X88744778Y-47441556D01*
X88793471Y-47438130D01*
X88867831Y-47380652D01*
X88949114Y-47287153D01*
X89016074Y-47180600D01*
X89068642Y-47087757D01*
X89108440Y-47033922D01*
X89110416Y-47032334D01*
X89151072Y-46979156D01*
X89220220Y-46863911D01*
X89310356Y-46701164D01*
X89413975Y-46505482D01*
X89523574Y-46291431D01*
X89631646Y-46073576D01*
X89730688Y-45866483D01*
X89813194Y-45684719D01*
X89851995Y-45593000D01*
X89923472Y-45420372D01*
X89996329Y-45249793D01*
X90045695Y-45138379D01*
X90094813Y-45022164D01*
X90124082Y-44936145D01*
X90127667Y-44915667D01*
X90144295Y-44853832D01*
X90186328Y-44747528D01*
X90210692Y-44692956D01*
X90270357Y-44551181D01*
X90346920Y-44350754D01*
X90433405Y-44111987D01*
X90522839Y-43855194D01*
X90608245Y-43600688D01*
X90682651Y-43368781D01*
X90739080Y-43179787D01*
X90766082Y-43075440D01*
X90811653Y-42914806D01*
X90864936Y-42826825D01*
X90935700Y-42799506D01*
X90985647Y-42806004D01*
X91011784Y-42827494D01*
X91014749Y-42884389D01*
X90993028Y-42992313D01*
X90953503Y-43137667D01*
X90906696Y-43297814D01*
X90865904Y-43430938D01*
X90838863Y-43511910D01*
X90836196Y-43518667D01*
X90811464Y-43589155D01*
X90771491Y-43714612D01*
X90724656Y-43868701D01*
X90721745Y-43878500D01*
X90675041Y-44028640D01*
X90611169Y-44224092D01*
X90536855Y-44445332D01*
X90458825Y-44672833D01*
X90383806Y-44887072D01*
X90318525Y-45068524D01*
X90269708Y-45197663D01*
X90255052Y-45233167D01*
X90223879Y-45306219D01*
X90168759Y-45437012D01*
X90098281Y-45605121D01*
X90041444Y-45741167D01*
X89847629Y-46190193D01*
X89634539Y-46656696D01*
X89413714Y-47116678D01*
X89196693Y-47546142D01*
X88995013Y-47921090D01*
X88982993Y-47942500D01*
X88876220Y-48133793D01*
X88760739Y-48343234D01*
X88667771Y-48514000D01*
X88567634Y-48688034D01*
X88426317Y-48916886D01*
X88252581Y-49187008D01*
X88055192Y-49484852D01*
X87842911Y-49796869D01*
X87767332Y-49906033D01*
X87661116Y-50059527D01*
X87554097Y-50215427D01*
X87492854Y-50305431D01*
X87418278Y-50410622D01*
X87359912Y-50483971D01*
X87342647Y-50500899D01*
X87299021Y-50548534D01*
X87231473Y-50638583D01*
X87207575Y-50673000D01*
X87129815Y-50782719D01*
X87062632Y-50870187D01*
X87050309Y-50884667D01*
X87002266Y-50940975D01*
X86913111Y-51047404D01*
X86795557Y-51188721D01*
X86662313Y-51349689D01*
X86661781Y-51350334D01*
X86500142Y-51538240D01*
X86307397Y-51750029D01*
X86098346Y-51970598D01*
X85887788Y-52184841D01*
X85690520Y-52377655D01*
X85521342Y-52533936D01*
X85412670Y-52625229D01*
X85297082Y-52719523D01*
X85174295Y-52826206D01*
X85159581Y-52839548D01*
X85058487Y-52921540D01*
X84970318Y-52976365D01*
X84953328Y-52983237D01*
X84890319Y-53017286D01*
X84878334Y-53037627D01*
X84844731Y-53073737D01*
X84757766Y-53135633D01*
X84666667Y-53191834D01*
X84552629Y-53262956D01*
X84475783Y-53319538D01*
X84455000Y-53343956D01*
X84420700Y-53379220D01*
X84380917Y-53396757D01*
X84300987Y-53433381D01*
X84186586Y-53497123D01*
X84137500Y-53526989D01*
X83995782Y-53610968D01*
X83852852Y-53688746D01*
X83820000Y-53705247D01*
X83713330Y-53757476D01*
X83638135Y-53794576D01*
X83629500Y-53798896D01*
X83624022Y-53786176D01*
X83673180Y-53716792D01*
X83673180Y-53716792D01*
G37*
X83673180Y-53716792D02*
X83773198Y-53595371D01*
X83920300Y-53426540D01*
X84064789Y-53265476D01*
X84141860Y-53179293D01*
X84227259Y-53081223D01*
X84328887Y-52961852D01*
X84454647Y-52811768D01*
X84612442Y-52621557D01*
X84810173Y-52381806D01*
X84979563Y-52175834D01*
X85144146Y-51975703D01*
X85297456Y-51789567D01*
X85428398Y-51630872D01*
X85525878Y-51513069D01*
X85573267Y-51456167D01*
X85651415Y-51360908D01*
X85760100Y-51225633D01*
X85877833Y-51077122D01*
X85896011Y-51054000D01*
X86006671Y-50913748D01*
X86105261Y-50789990D01*
X86173745Y-50705337D01*
X86183015Y-50694167D01*
X86286377Y-50567790D01*
X86394004Y-50431361D01*
X86492738Y-50302206D01*
X86569419Y-50197648D01*
X86610889Y-50135012D01*
X86614676Y-50125851D01*
X86640655Y-50082193D01*
X86705459Y-50000263D01*
X86741676Y-49958181D01*
X86817694Y-49866575D01*
X86862716Y-49801965D01*
X86868000Y-49788415D01*
X86893650Y-49742024D01*
X86956117Y-49664535D01*
X86963250Y-49656568D01*
X87019775Y-49584322D01*
X87111405Y-49456555D01*
X87227575Y-49289035D01*
X87357717Y-49097535D01*
X87491267Y-48897824D01*
X87617658Y-48705672D01*
X87726324Y-48536850D01*
X87806698Y-48407128D01*
X87842220Y-48344667D01*
X87891295Y-48259772D01*
X87924118Y-48217667D01*
X87959648Y-48170050D01*
X88024558Y-48066219D01*
X88108301Y-47924618D01*
X88200327Y-47763692D01*
X88290088Y-47601886D01*
X88367035Y-47457646D01*
X88420429Y-47349834D01*
X88473110Y-47241828D01*
X88513912Y-47170773D01*
X88523257Y-47159334D01*
X88551235Y-47113783D01*
X88608024Y-47005297D01*
X88687003Y-46847738D01*
X88781554Y-46654970D01*
X88885055Y-46440854D01*
X88990888Y-46219253D01*
X89092433Y-46004030D01*
X89183069Y-45809046D01*
X89256177Y-45648164D01*
X89305137Y-45535247D01*
X89323329Y-45484156D01*
X89323334Y-45483916D01*
X89339374Y-45435141D01*
X89379951Y-45337735D01*
X89403999Y-45283761D01*
X89477203Y-45111829D01*
X89569500Y-44878788D01*
X89673759Y-44604033D01*
X89782847Y-44306958D01*
X89889631Y-44006958D01*
X89986980Y-43723426D01*
X90060903Y-43497500D01*
X90125000Y-43297958D01*
X90182479Y-43124223D01*
X90227275Y-42994278D01*
X90253326Y-42926107D01*
X90254161Y-42924373D01*
X90281479Y-42842691D01*
X90309701Y-42719354D01*
X90316654Y-42680956D01*
X90341748Y-42571969D01*
X90369199Y-42508917D01*
X90378593Y-42502667D01*
X90421568Y-42539323D01*
X90465731Y-42628775D01*
X90498691Y-42740247D01*
X90508667Y-42825689D01*
X90496156Y-42935023D01*
X90462841Y-43100065D01*
X90415044Y-43296320D01*
X90359090Y-43499295D01*
X90301302Y-43684494D01*
X90253255Y-43815000D01*
X90206827Y-43929428D01*
X90139051Y-44099746D01*
X90059067Y-44302856D01*
X89976854Y-44513500D01*
X89893848Y-44724956D01*
X89813758Y-44925032D01*
X89745714Y-45091155D01*
X89698892Y-45200654D01*
X89653878Y-45309229D01*
X89589398Y-45475878D01*
X89513750Y-45678690D01*
X89435229Y-45895754D01*
X89428125Y-45915747D01*
X89345652Y-46138133D01*
X89259756Y-46352730D01*
X89180345Y-46535758D01*
X89117323Y-46663436D01*
X89114787Y-46667927D01*
X89029679Y-46828742D01*
X88950310Y-46997211D01*
X88918052Y-47074667D01*
X88860421Y-47205330D01*
X88801268Y-47311551D01*
X88780804Y-47339510D01*
X88741659Y-47407374D01*
X88744778Y-47441556D01*
X88793471Y-47438130D01*
X88867831Y-47380652D01*
X88949114Y-47287153D01*
X89016074Y-47180600D01*
X89068642Y-47087757D01*
X89108440Y-47033922D01*
X89110416Y-47032334D01*
X89151072Y-46979156D01*
X89220220Y-46863911D01*
X89310356Y-46701164D01*
X89413975Y-46505482D01*
X89523574Y-46291431D01*
X89631646Y-46073576D01*
X89730688Y-45866483D01*
X89813194Y-45684719D01*
X89851995Y-45593000D01*
X89923472Y-45420372D01*
X89996329Y-45249793D01*
X90045695Y-45138379D01*
X90094813Y-45022164D01*
X90124082Y-44936145D01*
X90127667Y-44915667D01*
X90144295Y-44853832D01*
X90186328Y-44747528D01*
X90210692Y-44692956D01*
X90270357Y-44551181D01*
X90346920Y-44350754D01*
X90433405Y-44111987D01*
X90522839Y-43855194D01*
X90608245Y-43600688D01*
X90682651Y-43368781D01*
X90739080Y-43179787D01*
X90766082Y-43075440D01*
X90811653Y-42914806D01*
X90864936Y-42826825D01*
X90935700Y-42799506D01*
X90985647Y-42806004D01*
X91011784Y-42827494D01*
X91014749Y-42884389D01*
X90993028Y-42992313D01*
X90953503Y-43137667D01*
X90906696Y-43297814D01*
X90865904Y-43430938D01*
X90838863Y-43511910D01*
X90836196Y-43518667D01*
X90811464Y-43589155D01*
X90771491Y-43714612D01*
X90724656Y-43868701D01*
X90721745Y-43878500D01*
X90675041Y-44028640D01*
X90611169Y-44224092D01*
X90536855Y-44445332D01*
X90458825Y-44672833D01*
X90383806Y-44887072D01*
X90318525Y-45068524D01*
X90269708Y-45197663D01*
X90255052Y-45233167D01*
X90223879Y-45306219D01*
X90168759Y-45437012D01*
X90098281Y-45605121D01*
X90041444Y-45741167D01*
X89847629Y-46190193D01*
X89634539Y-46656696D01*
X89413714Y-47116678D01*
X89196693Y-47546142D01*
X88995013Y-47921090D01*
X88982993Y-47942500D01*
X88876220Y-48133793D01*
X88760739Y-48343234D01*
X88667771Y-48514000D01*
X88567634Y-48688034D01*
X88426317Y-48916886D01*
X88252581Y-49187008D01*
X88055192Y-49484852D01*
X87842911Y-49796869D01*
X87767332Y-49906033D01*
X87661116Y-50059527D01*
X87554097Y-50215427D01*
X87492854Y-50305431D01*
X87418278Y-50410622D01*
X87359912Y-50483971D01*
X87342647Y-50500899D01*
X87299021Y-50548534D01*
X87231473Y-50638583D01*
X87207575Y-50673000D01*
X87129815Y-50782719D01*
X87062632Y-50870187D01*
X87050309Y-50884667D01*
X87002266Y-50940975D01*
X86913111Y-51047404D01*
X86795557Y-51188721D01*
X86662313Y-51349689D01*
X86661781Y-51350334D01*
X86500142Y-51538240D01*
X86307397Y-51750029D01*
X86098346Y-51970598D01*
X85887788Y-52184841D01*
X85690520Y-52377655D01*
X85521342Y-52533936D01*
X85412670Y-52625229D01*
X85297082Y-52719523D01*
X85174295Y-52826206D01*
X85159581Y-52839548D01*
X85058487Y-52921540D01*
X84970318Y-52976365D01*
X84953328Y-52983237D01*
X84890319Y-53017286D01*
X84878334Y-53037627D01*
X84844731Y-53073737D01*
X84757766Y-53135633D01*
X84666667Y-53191834D01*
X84552629Y-53262956D01*
X84475783Y-53319538D01*
X84455000Y-53343956D01*
X84420700Y-53379220D01*
X84380917Y-53396757D01*
X84300987Y-53433381D01*
X84186586Y-53497123D01*
X84137500Y-53526989D01*
X83995782Y-53610968D01*
X83852852Y-53688746D01*
X83820000Y-53705247D01*
X83713330Y-53757476D01*
X83638135Y-53794576D01*
X83629500Y-53798896D01*
X83624022Y-53786176D01*
X83673180Y-53716792D01*
G36*
X89871899Y-46303799D02*
X89893099Y-46233222D01*
X89938174Y-46112984D01*
X89977554Y-46034226D01*
X89995565Y-46016334D01*
X90027595Y-46052163D01*
X90070115Y-46141478D01*
X90082839Y-46175084D01*
X90135025Y-46310102D01*
X90202563Y-46471544D01*
X90235192Y-46545500D01*
X90324172Y-46763884D01*
X90402415Y-46994927D01*
X90463007Y-47214469D01*
X90499036Y-47398348D01*
X90505959Y-47491876D01*
X90483765Y-47641950D01*
X90434779Y-47783750D01*
X90383936Y-47873966D01*
X90346464Y-47919822D01*
X90342236Y-47921275D01*
X90320339Y-47883561D01*
X90280980Y-47782145D01*
X90230635Y-47634539D01*
X90197418Y-47529692D01*
X90135389Y-47336740D01*
X90072318Y-47154088D01*
X90018447Y-47010935D01*
X90000680Y-46968834D01*
X89910552Y-46752165D01*
X89861301Y-46584531D01*
X89849545Y-46442789D01*
X89871899Y-46303799D01*
X89871899Y-46303799D01*
G37*
X89871899Y-46303799D02*
X89893099Y-46233222D01*
X89938174Y-46112984D01*
X89977554Y-46034226D01*
X89995565Y-46016334D01*
X90027595Y-46052163D01*
X90070115Y-46141478D01*
X90082839Y-46175084D01*
X90135025Y-46310102D01*
X90202563Y-46471544D01*
X90235192Y-46545500D01*
X90324172Y-46763884D01*
X90402415Y-46994927D01*
X90463007Y-47214469D01*
X90499036Y-47398348D01*
X90505959Y-47491876D01*
X90483765Y-47641950D01*
X90434779Y-47783750D01*
X90383936Y-47873966D01*
X90346464Y-47919822D01*
X90342236Y-47921275D01*
X90320339Y-47883561D01*
X90280980Y-47782145D01*
X90230635Y-47634539D01*
X90197418Y-47529692D01*
X90135389Y-47336740D01*
X90072318Y-47154088D01*
X90018447Y-47010935D01*
X90000680Y-46968834D01*
X89910552Y-46752165D01*
X89861301Y-46584531D01*
X89849545Y-46442789D01*
X89871899Y-46303799D01*
G36*
X83955601Y-36592067D02*
X84032506Y-36625322D01*
X84152504Y-36687118D01*
X84301186Y-36769383D01*
X84464141Y-36864042D01*
X84626961Y-36963023D01*
X84775235Y-37058252D01*
X84836000Y-37099557D01*
X85099144Y-37296986D01*
X85397799Y-37545351D01*
X85714821Y-37829290D01*
X86033064Y-38133441D01*
X86335382Y-38442439D01*
X86338834Y-38446103D01*
X86516784Y-38635821D01*
X86651350Y-38782555D01*
X86757451Y-38904714D01*
X86850008Y-39020706D01*
X86943940Y-39148940D01*
X87054168Y-39307825D01*
X87143047Y-39438355D01*
X87230106Y-39564372D01*
X87299453Y-39660781D01*
X87336851Y-39707818D01*
X87337802Y-39708667D01*
X87373220Y-39754061D01*
X87435977Y-39847124D01*
X87480622Y-39917015D01*
X87555283Y-40033074D01*
X87616023Y-40122097D01*
X87637111Y-40149848D01*
X87739911Y-40286048D01*
X87872892Y-40487647D01*
X88030043Y-40743501D01*
X88205353Y-41042468D01*
X88392811Y-41373404D01*
X88586407Y-41725167D01*
X88780129Y-42086614D01*
X88967968Y-42446602D01*
X89143912Y-42793987D01*
X89301951Y-43117627D01*
X89436073Y-43406378D01*
X89540268Y-43649099D01*
X89579922Y-43751500D01*
X89633177Y-43890533D01*
X89678602Y-43998819D01*
X89703392Y-44047834D01*
X89754364Y-44160296D01*
X89745577Y-44289020D01*
X89715916Y-44376786D01*
X89669528Y-44476131D01*
X89630799Y-44530923D01*
X89622781Y-44534667D01*
X89592556Y-44498754D01*
X89540617Y-44403958D01*
X89477461Y-44269697D01*
X89468559Y-44249403D01*
X89384011Y-44062610D01*
X89277384Y-43838241D01*
X89158635Y-43596121D01*
X89037720Y-43356075D01*
X88924596Y-43137929D01*
X88829219Y-42961508D01*
X88773878Y-42866151D01*
X88704827Y-42766491D01*
X88666909Y-42737464D01*
X88659607Y-42771174D01*
X88682405Y-42859727D01*
X88734783Y-42995228D01*
X88790308Y-43116980D01*
X88860244Y-43265014D01*
X88913199Y-43382181D01*
X88940460Y-43449017D01*
X88942334Y-43456612D01*
X88959012Y-43503518D01*
X89003269Y-43606876D01*
X89066434Y-43746622D01*
X89084311Y-43785208D01*
X89165818Y-43970563D01*
X89243152Y-44163631D01*
X89299601Y-44322686D01*
X89299701Y-44323000D01*
X89352328Y-44479805D01*
X89406398Y-44625453D01*
X89432890Y-44689232D01*
X89473944Y-44796417D01*
X89492567Y-44875784D01*
X89492667Y-44879287D01*
X89477768Y-44952152D01*
X89441001Y-45058707D01*
X89394260Y-45170550D01*
X89349436Y-45259276D01*
X89318424Y-45296484D01*
X89317963Y-45296508D01*
X89288330Y-45261014D01*
X89239191Y-45169061D01*
X89196009Y-45074417D01*
X89102967Y-44862748D01*
X88981115Y-44593088D01*
X88838840Y-44283506D01*
X88684526Y-43952070D01*
X88526560Y-43616850D01*
X88373327Y-43295912D01*
X88302881Y-43150100D01*
X88203142Y-42942105D01*
X88118065Y-42759936D01*
X88053992Y-42617557D01*
X88017270Y-42528937D01*
X88011000Y-42507540D01*
X87984766Y-42444301D01*
X87958084Y-42410441D01*
X87917303Y-42350018D01*
X87850500Y-42232815D01*
X87768485Y-42078289D01*
X87715347Y-41973500D01*
X87520552Y-41596111D01*
X87303829Y-41199392D01*
X87080087Y-40809511D01*
X86864239Y-40452635D01*
X86723659Y-40233188D01*
X86672231Y-40155356D01*
X86584565Y-40022684D01*
X86471099Y-39850970D01*
X86342274Y-39656015D01*
X86279159Y-39560500D01*
X86152761Y-39370142D01*
X86042307Y-39205537D01*
X85956368Y-39079321D01*
X85903514Y-39004130D01*
X85891540Y-38989000D01*
X85855716Y-38945489D01*
X85787605Y-38854596D01*
X85722206Y-38764235D01*
X85585236Y-38576000D01*
X85427969Y-38365665D01*
X85261317Y-38147219D01*
X85096193Y-37934652D01*
X84943511Y-37741953D01*
X84814182Y-37583111D01*
X84719121Y-37472117D01*
X84690126Y-37441200D01*
X84604943Y-37352361D01*
X84490187Y-37228253D01*
X84359395Y-37084063D01*
X84226106Y-36934978D01*
X84103856Y-36796184D01*
X84006183Y-36682868D01*
X83946624Y-36610217D01*
X83936199Y-36595427D01*
X83955601Y-36592067D01*
X83955601Y-36592067D01*
G37*
X83955601Y-36592067D02*
X84032506Y-36625322D01*
X84152504Y-36687118D01*
X84301186Y-36769383D01*
X84464141Y-36864042D01*
X84626961Y-36963023D01*
X84775235Y-37058252D01*
X84836000Y-37099557D01*
X85099144Y-37296986D01*
X85397799Y-37545351D01*
X85714821Y-37829290D01*
X86033064Y-38133441D01*
X86335382Y-38442439D01*
X86338834Y-38446103D01*
X86516784Y-38635821D01*
X86651350Y-38782555D01*
X86757451Y-38904714D01*
X86850008Y-39020706D01*
X86943940Y-39148940D01*
X87054168Y-39307825D01*
X87143047Y-39438355D01*
X87230106Y-39564372D01*
X87299453Y-39660781D01*
X87336851Y-39707818D01*
X87337802Y-39708667D01*
X87373220Y-39754061D01*
X87435977Y-39847124D01*
X87480622Y-39917015D01*
X87555283Y-40033074D01*
X87616023Y-40122097D01*
X87637111Y-40149848D01*
X87739911Y-40286048D01*
X87872892Y-40487647D01*
X88030043Y-40743501D01*
X88205353Y-41042468D01*
X88392811Y-41373404D01*
X88586407Y-41725167D01*
X88780129Y-42086614D01*
X88967968Y-42446602D01*
X89143912Y-42793987D01*
X89301951Y-43117627D01*
X89436073Y-43406378D01*
X89540268Y-43649099D01*
X89579922Y-43751500D01*
X89633177Y-43890533D01*
X89678602Y-43998819D01*
X89703392Y-44047834D01*
X89754364Y-44160296D01*
X89745577Y-44289020D01*
X89715916Y-44376786D01*
X89669528Y-44476131D01*
X89630799Y-44530923D01*
X89622781Y-44534667D01*
X89592556Y-44498754D01*
X89540617Y-44403958D01*
X89477461Y-44269697D01*
X89468559Y-44249403D01*
X89384011Y-44062610D01*
X89277384Y-43838241D01*
X89158635Y-43596121D01*
X89037720Y-43356075D01*
X88924596Y-43137929D01*
X88829219Y-42961508D01*
X88773878Y-42866151D01*
X88704827Y-42766491D01*
X88666909Y-42737464D01*
X88659607Y-42771174D01*
X88682405Y-42859727D01*
X88734783Y-42995228D01*
X88790308Y-43116980D01*
X88860244Y-43265014D01*
X88913199Y-43382181D01*
X88940460Y-43449017D01*
X88942334Y-43456612D01*
X88959012Y-43503518D01*
X89003269Y-43606876D01*
X89066434Y-43746622D01*
X89084311Y-43785208D01*
X89165818Y-43970563D01*
X89243152Y-44163631D01*
X89299601Y-44322686D01*
X89299701Y-44323000D01*
X89352328Y-44479805D01*
X89406398Y-44625453D01*
X89432890Y-44689232D01*
X89473944Y-44796417D01*
X89492567Y-44875784D01*
X89492667Y-44879287D01*
X89477768Y-44952152D01*
X89441001Y-45058707D01*
X89394260Y-45170550D01*
X89349436Y-45259276D01*
X89318424Y-45296484D01*
X89317963Y-45296508D01*
X89288330Y-45261014D01*
X89239191Y-45169061D01*
X89196009Y-45074417D01*
X89102967Y-44862748D01*
X88981115Y-44593088D01*
X88838840Y-44283506D01*
X88684526Y-43952070D01*
X88526560Y-43616850D01*
X88373327Y-43295912D01*
X88302881Y-43150100D01*
X88203142Y-42942105D01*
X88118065Y-42759936D01*
X88053992Y-42617557D01*
X88017270Y-42528937D01*
X88011000Y-42507540D01*
X87984766Y-42444301D01*
X87958084Y-42410441D01*
X87917303Y-42350018D01*
X87850500Y-42232815D01*
X87768485Y-42078289D01*
X87715347Y-41973500D01*
X87520552Y-41596111D01*
X87303829Y-41199392D01*
X87080087Y-40809511D01*
X86864239Y-40452635D01*
X86723659Y-40233188D01*
X86672231Y-40155356D01*
X86584565Y-40022684D01*
X86471099Y-39850970D01*
X86342274Y-39656015D01*
X86279159Y-39560500D01*
X86152761Y-39370142D01*
X86042307Y-39205537D01*
X85956368Y-39079321D01*
X85903514Y-39004130D01*
X85891540Y-38989000D01*
X85855716Y-38945489D01*
X85787605Y-38854596D01*
X85722206Y-38764235D01*
X85585236Y-38576000D01*
X85427969Y-38365665D01*
X85261317Y-38147219D01*
X85096193Y-37934652D01*
X84943511Y-37741953D01*
X84814182Y-37583111D01*
X84719121Y-37472117D01*
X84690126Y-37441200D01*
X84604943Y-37352361D01*
X84490187Y-37228253D01*
X84359395Y-37084063D01*
X84226106Y-36934978D01*
X84103856Y-36796184D01*
X84006183Y-36682868D01*
X83946624Y-36610217D01*
X83936199Y-36595427D01*
X83955601Y-36592067D01*
G36*
X84747200Y-47476827D02*
X84767604Y-47369880D01*
X84807950Y-47200589D01*
X84824017Y-47135671D01*
X84879329Y-46928038D01*
X84926351Y-46790242D01*
X84970747Y-46708612D01*
X85017010Y-46670004D01*
X85071872Y-46620524D01*
X85124497Y-46516503D01*
X85180807Y-46345212D01*
X85199682Y-46277410D01*
X85258492Y-46081305D01*
X85317696Y-45948097D01*
X85391638Y-45857172D01*
X85494661Y-45787918D01*
X85564005Y-45753849D01*
X85654188Y-45687989D01*
X85699159Y-45615410D01*
X85728291Y-45462445D01*
X85757753Y-45250678D01*
X85784877Y-45005925D01*
X85806994Y-44753997D01*
X85821435Y-44520708D01*
X85825401Y-44394269D01*
X85826401Y-44212552D01*
X85820239Y-44095807D01*
X85802722Y-44024389D01*
X85769657Y-43978656D01*
X85730152Y-43948023D01*
X85556737Y-43815540D01*
X85449811Y-43697941D01*
X85397295Y-43578553D01*
X85386334Y-43473493D01*
X85374882Y-43347300D01*
X85327742Y-43253465D01*
X85238952Y-43163320D01*
X85160729Y-43087680D01*
X85115432Y-43017326D01*
X85092829Y-42924551D01*
X85082683Y-42781651D01*
X85080917Y-42735500D01*
X85077726Y-42583618D01*
X85076342Y-42371963D01*
X85076786Y-42125411D01*
X85079079Y-41868838D01*
X85080132Y-41793584D01*
X85084549Y-41546856D01*
X85090196Y-41372371D01*
X85098825Y-41257704D01*
X85112188Y-41190434D01*
X85132038Y-41158135D01*
X85160127Y-41148387D01*
X85171204Y-41148000D01*
X85305058Y-41170972D01*
X85390071Y-41250696D01*
X85429902Y-41342244D01*
X85478924Y-41445129D01*
X85546877Y-41484209D01*
X85580117Y-41486667D01*
X85658089Y-41471754D01*
X85682667Y-41444334D01*
X85716955Y-41406777D01*
X85746167Y-41402000D01*
X85797547Y-41438256D01*
X85809667Y-41498553D01*
X85839204Y-41574329D01*
X85909330Y-41634896D01*
X85992317Y-41666799D01*
X86060434Y-41656578D01*
X86080781Y-41630129D01*
X86130946Y-41575210D01*
X86194262Y-41587784D01*
X86244998Y-41660135D01*
X86251421Y-41681297D01*
X86311295Y-41780223D01*
X86441949Y-41855260D01*
X86442398Y-41855436D01*
X86584190Y-41945259D01*
X86703755Y-42097006D01*
X86802508Y-42314841D01*
X86881863Y-42602927D01*
X86943235Y-42965426D01*
X86988038Y-43406502D01*
X86993180Y-43476334D01*
X87016608Y-43857406D01*
X87027860Y-44182544D01*
X87026948Y-44479596D01*
X87013881Y-44776415D01*
X86993804Y-45042667D01*
X86940542Y-45598525D01*
X86882256Y-46083176D01*
X86816883Y-46510028D01*
X86742362Y-46892490D01*
X86656630Y-47243970D01*
X86653571Y-47255252D01*
X86625767Y-47333548D01*
X86581315Y-47402343D01*
X86508347Y-47470944D01*
X86394992Y-47548663D01*
X86229379Y-47644810D01*
X85999639Y-47768693D01*
X85997467Y-47769844D01*
X85823458Y-47870462D01*
X85697168Y-47970244D01*
X85586815Y-48097476D01*
X85514199Y-48199986D01*
X85415970Y-48339211D01*
X85343942Y-48420954D01*
X85280321Y-48460072D01*
X85207314Y-48471421D01*
X85188816Y-48471667D01*
X85104284Y-48468507D01*
X85062108Y-48447159D01*
X85057304Y-48389821D01*
X85084889Y-48278689D01*
X85110709Y-48192645D01*
X85146495Y-48073546D01*
X85169553Y-47994642D01*
X85174209Y-47976933D01*
X85137572Y-47967996D01*
X85047699Y-47956813D01*
X85037084Y-47955766D01*
X84949469Y-47940259D01*
X84907182Y-47899187D01*
X84889940Y-47806865D01*
X84886612Y-47765226D01*
X84867040Y-47642679D01*
X84825775Y-47584923D01*
X84796012Y-47574726D01*
X84762369Y-47564138D01*
X84745777Y-47536542D01*
X84747200Y-47476827D01*
X84747200Y-47476827D01*
G37*
X84747200Y-47476827D02*
X84767604Y-47369880D01*
X84807950Y-47200589D01*
X84824017Y-47135671D01*
X84879329Y-46928038D01*
X84926351Y-46790242D01*
X84970747Y-46708612D01*
X85017010Y-46670004D01*
X85071872Y-46620524D01*
X85124497Y-46516503D01*
X85180807Y-46345212D01*
X85199682Y-46277410D01*
X85258492Y-46081305D01*
X85317696Y-45948097D01*
X85391638Y-45857172D01*
X85494661Y-45787918D01*
X85564005Y-45753849D01*
X85654188Y-45687989D01*
X85699159Y-45615410D01*
X85728291Y-45462445D01*
X85757753Y-45250678D01*
X85784877Y-45005925D01*
X85806994Y-44753997D01*
X85821435Y-44520708D01*
X85825401Y-44394269D01*
X85826401Y-44212552D01*
X85820239Y-44095807D01*
X85802722Y-44024389D01*
X85769657Y-43978656D01*
X85730152Y-43948023D01*
X85556737Y-43815540D01*
X85449811Y-43697941D01*
X85397295Y-43578553D01*
X85386334Y-43473493D01*
X85374882Y-43347300D01*
X85327742Y-43253465D01*
X85238952Y-43163320D01*
X85160729Y-43087680D01*
X85115432Y-43017326D01*
X85092829Y-42924551D01*
X85082683Y-42781651D01*
X85080917Y-42735500D01*
X85077726Y-42583618D01*
X85076342Y-42371963D01*
X85076786Y-42125411D01*
X85079079Y-41868838D01*
X85080132Y-41793584D01*
X85084549Y-41546856D01*
X85090196Y-41372371D01*
X85098825Y-41257704D01*
X85112188Y-41190434D01*
X85132038Y-41158135D01*
X85160127Y-41148387D01*
X85171204Y-41148000D01*
X85305058Y-41170972D01*
X85390071Y-41250696D01*
X85429902Y-41342244D01*
X85478924Y-41445129D01*
X85546877Y-41484209D01*
X85580117Y-41486667D01*
X85658089Y-41471754D01*
X85682667Y-41444334D01*
X85716955Y-41406777D01*
X85746167Y-41402000D01*
X85797547Y-41438256D01*
X85809667Y-41498553D01*
X85839204Y-41574329D01*
X85909330Y-41634896D01*
X85992317Y-41666799D01*
X86060434Y-41656578D01*
X86080781Y-41630129D01*
X86130946Y-41575210D01*
X86194262Y-41587784D01*
X86244998Y-41660135D01*
X86251421Y-41681297D01*
X86311295Y-41780223D01*
X86441949Y-41855260D01*
X86442398Y-41855436D01*
X86584190Y-41945259D01*
X86703755Y-42097006D01*
X86802508Y-42314841D01*
X86881863Y-42602927D01*
X86943235Y-42965426D01*
X86988038Y-43406502D01*
X86993180Y-43476334D01*
X87016608Y-43857406D01*
X87027860Y-44182544D01*
X87026948Y-44479596D01*
X87013881Y-44776415D01*
X86993804Y-45042667D01*
X86940542Y-45598525D01*
X86882256Y-46083176D01*
X86816883Y-46510028D01*
X86742362Y-46892490D01*
X86656630Y-47243970D01*
X86653571Y-47255252D01*
X86625767Y-47333548D01*
X86581315Y-47402343D01*
X86508347Y-47470944D01*
X86394992Y-47548663D01*
X86229379Y-47644810D01*
X85999639Y-47768693D01*
X85997467Y-47769844D01*
X85823458Y-47870462D01*
X85697168Y-47970244D01*
X85586815Y-48097476D01*
X85514199Y-48199986D01*
X85415970Y-48339211D01*
X85343942Y-48420954D01*
X85280321Y-48460072D01*
X85207314Y-48471421D01*
X85188816Y-48471667D01*
X85104284Y-48468507D01*
X85062108Y-48447159D01*
X85057304Y-48389821D01*
X85084889Y-48278689D01*
X85110709Y-48192645D01*
X85146495Y-48073546D01*
X85169553Y-47994642D01*
X85174209Y-47976933D01*
X85137572Y-47967996D01*
X85047699Y-47956813D01*
X85037084Y-47955766D01*
X84949469Y-47940259D01*
X84907182Y-47899187D01*
X84889940Y-47806865D01*
X84886612Y-47765226D01*
X84867040Y-47642679D01*
X84825775Y-47584923D01*
X84796012Y-47574726D01*
X84762369Y-47564138D01*
X84745777Y-47536542D01*
X84747200Y-47476827D01*
G36*
X84879236Y-43539300D02*
X84886927Y-43495518D01*
X84908882Y-43508179D01*
X84952575Y-43583223D01*
X85025482Y-43726590D01*
X85045409Y-43766343D01*
X85180186Y-44035185D01*
X85029260Y-43920068D01*
X84931302Y-43832937D01*
X84887765Y-43747128D01*
X84878334Y-43633587D01*
X84879236Y-43539300D01*
X84879236Y-43539300D01*
G37*
X84879236Y-43539300D02*
X84886927Y-43495518D01*
X84908882Y-43508179D01*
X84952575Y-43583223D01*
X85025482Y-43726590D01*
X85045409Y-43766343D01*
X85180186Y-44035185D01*
X85029260Y-43920068D01*
X84931302Y-43832937D01*
X84887765Y-43747128D01*
X84878334Y-43633587D01*
X84879236Y-43539300D01*
G36*
X83249905Y-50810584D02*
X83273823Y-50737324D01*
X83310519Y-50605354D01*
X83353509Y-50438408D01*
X83370851Y-50367834D01*
X83460167Y-49999167D01*
X83754071Y-50102010D01*
X83936053Y-50154747D01*
X84088520Y-50178372D01*
X84195878Y-50172085D01*
X84242533Y-50135080D01*
X84243334Y-50127205D01*
X84276038Y-50088591D01*
X84355947Y-50032192D01*
X84367621Y-50025170D01*
X84465596Y-49956481D01*
X84592772Y-49853313D01*
X84695705Y-49761741D01*
X84804959Y-49662011D01*
X84868678Y-49614462D01*
X84902475Y-49612715D01*
X84921969Y-49650395D01*
X84927030Y-49667283D01*
X84956386Y-49846028D01*
X84950034Y-50026120D01*
X84910320Y-50173058D01*
X84890219Y-50208498D01*
X84768076Y-50357630D01*
X84627852Y-50468691D01*
X84452129Y-50550198D01*
X84223485Y-50610668D01*
X83986945Y-50650158D01*
X83743936Y-50692262D01*
X83547148Y-50742420D01*
X83415523Y-50795774D01*
X83412901Y-50797302D01*
X83298281Y-50861331D01*
X83242703Y-50879436D01*
X83234693Y-50852553D01*
X83249905Y-50810584D01*
X83249905Y-50810584D01*
G37*
X83249905Y-50810584D02*
X83273823Y-50737324D01*
X83310519Y-50605354D01*
X83353509Y-50438408D01*
X83370851Y-50367834D01*
X83460167Y-49999167D01*
X83754071Y-50102010D01*
X83936053Y-50154747D01*
X84088520Y-50178372D01*
X84195878Y-50172085D01*
X84242533Y-50135080D01*
X84243334Y-50127205D01*
X84276038Y-50088591D01*
X84355947Y-50032192D01*
X84367621Y-50025170D01*
X84465596Y-49956481D01*
X84592772Y-49853313D01*
X84695705Y-49761741D01*
X84804959Y-49662011D01*
X84868678Y-49614462D01*
X84902475Y-49612715D01*
X84921969Y-49650395D01*
X84927030Y-49667283D01*
X84956386Y-49846028D01*
X84950034Y-50026120D01*
X84910320Y-50173058D01*
X84890219Y-50208498D01*
X84768076Y-50357630D01*
X84627852Y-50468691D01*
X84452129Y-50550198D01*
X84223485Y-50610668D01*
X83986945Y-50650158D01*
X83743936Y-50692262D01*
X83547148Y-50742420D01*
X83415523Y-50795774D01*
X83412901Y-50797302D01*
X83298281Y-50861331D01*
X83242703Y-50879436D01*
X83234693Y-50852553D01*
X83249905Y-50810584D01*
G36*
X83475661Y-49548320D02*
X83480580Y-49369022D01*
X83491500Y-49239236D01*
X83519550Y-49143140D01*
X83575860Y-49064910D01*
X83671559Y-48988725D01*
X83817775Y-48898761D01*
X84010500Y-48787909D01*
X84175280Y-48695459D01*
X84292923Y-48639457D01*
X84388646Y-48612383D01*
X84487668Y-48606718D01*
X84595928Y-48613337D01*
X84730103Y-48626433D01*
X84824513Y-48639591D01*
X84854619Y-48647873D01*
X84862206Y-48693518D01*
X84872894Y-48804626D01*
X84884987Y-48962130D01*
X84892175Y-49070373D01*
X84917801Y-49478578D01*
X84766567Y-49620706D01*
X84660892Y-49722284D01*
X84571176Y-49812315D01*
X84545750Y-49839299D01*
X84455705Y-49917340D01*
X84332752Y-49998568D01*
X84199950Y-50070903D01*
X84080361Y-50122262D01*
X83997048Y-50140564D01*
X83979261Y-50136065D01*
X83910697Y-50105707D01*
X83791075Y-50064338D01*
X83695095Y-50035154D01*
X83464357Y-49968807D01*
X83475661Y-49548320D01*
X83475661Y-49548320D01*
G37*
X83475661Y-49548320D02*
X83480580Y-49369022D01*
X83491500Y-49239236D01*
X83519550Y-49143140D01*
X83575860Y-49064910D01*
X83671559Y-48988725D01*
X83817775Y-48898761D01*
X84010500Y-48787909D01*
X84175280Y-48695459D01*
X84292923Y-48639457D01*
X84388646Y-48612383D01*
X84487668Y-48606718D01*
X84595928Y-48613337D01*
X84730103Y-48626433D01*
X84824513Y-48639591D01*
X84854619Y-48647873D01*
X84862206Y-48693518D01*
X84872894Y-48804626D01*
X84884987Y-48962130D01*
X84892175Y-49070373D01*
X84917801Y-49478578D01*
X84766567Y-49620706D01*
X84660892Y-49722284D01*
X84571176Y-49812315D01*
X84545750Y-49839299D01*
X84455705Y-49917340D01*
X84332752Y-49998568D01*
X84199950Y-50070903D01*
X84080361Y-50122262D01*
X83997048Y-50140564D01*
X83979261Y-50136065D01*
X83910697Y-50105707D01*
X83791075Y-50064338D01*
X83695095Y-50035154D01*
X83464357Y-49968807D01*
X83475661Y-49548320D01*
G36*
X83493187Y-48679645D02*
X83501857Y-48523841D01*
X83531933Y-48063455D01*
X83845098Y-48010834D01*
X84080812Y-47956500D01*
X84273660Y-47874234D01*
X84378423Y-47810057D01*
X84516218Y-47726276D01*
X84645105Y-47662691D01*
X84717291Y-47638159D01*
X84836000Y-47614417D01*
X84836466Y-47947792D01*
X84840002Y-48131442D01*
X84848878Y-48303029D01*
X84861242Y-48427798D01*
X84862443Y-48435429D01*
X84887955Y-48589690D01*
X84613998Y-48567699D01*
X84496162Y-48560647D01*
X84397199Y-48564847D01*
X84301088Y-48586396D01*
X84191811Y-48631393D01*
X84053349Y-48705936D01*
X83869683Y-48816124D01*
X83723141Y-48906845D01*
X83609026Y-48971426D01*
X83525243Y-49007037D01*
X83496115Y-49008560D01*
X83488846Y-48958886D01*
X83487942Y-48843136D01*
X83493187Y-48679645D01*
X83493187Y-48679645D01*
G37*
X83493187Y-48679645D02*
X83501857Y-48523841D01*
X83531933Y-48063455D01*
X83845098Y-48010834D01*
X84080812Y-47956500D01*
X84273660Y-47874234D01*
X84378423Y-47810057D01*
X84516218Y-47726276D01*
X84645105Y-47662691D01*
X84717291Y-47638159D01*
X84836000Y-47614417D01*
X84836466Y-47947792D01*
X84840002Y-48131442D01*
X84848878Y-48303029D01*
X84861242Y-48427798D01*
X84862443Y-48435429D01*
X84887955Y-48589690D01*
X84613998Y-48567699D01*
X84496162Y-48560647D01*
X84397199Y-48564847D01*
X84301088Y-48586396D01*
X84191811Y-48631393D01*
X84053349Y-48705936D01*
X83869683Y-48816124D01*
X83723141Y-48906845D01*
X83609026Y-48971426D01*
X83525243Y-49007037D01*
X83496115Y-49008560D01*
X83488846Y-48958886D01*
X83487942Y-48843136D01*
X83493187Y-48679645D01*
G36*
X80454687Y-42895641D02*
X80494457Y-42902968D01*
X80600335Y-42929543D01*
X80757020Y-42971360D01*
X80949208Y-43024412D01*
X80985805Y-43034680D01*
X81474895Y-43144618D01*
X81975939Y-43206037D01*
X82470940Y-43218925D01*
X82941902Y-43183269D01*
X83370828Y-43099059D01*
X83570410Y-43036394D01*
X83809252Y-42939071D01*
X84056911Y-42820014D01*
X84288936Y-42692365D01*
X84480880Y-42569262D01*
X84572890Y-42497625D01*
X84666848Y-42422806D01*
X84737654Y-42379762D01*
X84752807Y-42375667D01*
X84764218Y-42415884D01*
X84773227Y-42528141D01*
X84779855Y-42699846D01*
X84784128Y-42918407D01*
X84786068Y-43171231D01*
X84785701Y-43445726D01*
X84783050Y-43729301D01*
X84778139Y-44009364D01*
X84770992Y-44273321D01*
X84761633Y-44508582D01*
X84750085Y-44702554D01*
X84748338Y-44725167D01*
X84735999Y-44893019D01*
X84720589Y-45123401D01*
X84703499Y-45394296D01*
X84686126Y-45683685D01*
X84671958Y-45931667D01*
X84655862Y-46195806D01*
X84638470Y-46438147D01*
X84621100Y-46643182D01*
X84605072Y-46795400D01*
X84591707Y-46879290D01*
X84591164Y-46881300D01*
X84545925Y-46971636D01*
X84471929Y-47060858D01*
X84390727Y-47128998D01*
X84323874Y-47156089D01*
X84302903Y-47148348D01*
X84290780Y-47094634D01*
X84281672Y-46969886D01*
X84275460Y-46787676D01*
X84272022Y-46561578D01*
X84271238Y-46305165D01*
X84272987Y-46032011D01*
X84277149Y-45755689D01*
X84283603Y-45489773D01*
X84292228Y-45247836D01*
X84302904Y-45043452D01*
X84315510Y-44890193D01*
X84323498Y-44831000D01*
X84368439Y-44603852D01*
X84428976Y-44342995D01*
X84497961Y-44075739D01*
X84568245Y-43829398D01*
X84632679Y-43631284D01*
X84648973Y-43587466D01*
X84685639Y-43483541D01*
X84701279Y-43419841D01*
X84700188Y-43412155D01*
X84661912Y-43428441D01*
X84572404Y-43481853D01*
X84450054Y-43561340D01*
X84433834Y-43572243D01*
X84113767Y-43746774D01*
X83737708Y-43882494D01*
X83327441Y-43974049D01*
X82904748Y-44016086D01*
X82634667Y-44014373D01*
X82294360Y-43993146D01*
X82003733Y-43964738D01*
X81739654Y-43924477D01*
X81478992Y-43867691D01*
X81198615Y-43789709D01*
X80875392Y-43685858D01*
X80683061Y-43620206D01*
X80601477Y-43628263D01*
X80549529Y-43662519D01*
X80519085Y-43685251D01*
X80498525Y-43672313D01*
X80484863Y-43611157D01*
X80475111Y-43489232D01*
X80467184Y-43316556D01*
X80460511Y-43140305D01*
X80455998Y-42999739D01*
X80454201Y-42913553D01*
X80454687Y-42895641D01*
X80454687Y-42895641D01*
G37*
X80454687Y-42895641D02*
X80494457Y-42902968D01*
X80600335Y-42929543D01*
X80757020Y-42971360D01*
X80949208Y-43024412D01*
X80985805Y-43034680D01*
X81474895Y-43144618D01*
X81975939Y-43206037D01*
X82470940Y-43218925D01*
X82941902Y-43183269D01*
X83370828Y-43099059D01*
X83570410Y-43036394D01*
X83809252Y-42939071D01*
X84056911Y-42820014D01*
X84288936Y-42692365D01*
X84480880Y-42569262D01*
X84572890Y-42497625D01*
X84666848Y-42422806D01*
X84737654Y-42379762D01*
X84752807Y-42375667D01*
X84764218Y-42415884D01*
X84773227Y-42528141D01*
X84779855Y-42699846D01*
X84784128Y-42918407D01*
X84786068Y-43171231D01*
X84785701Y-43445726D01*
X84783050Y-43729301D01*
X84778139Y-44009364D01*
X84770992Y-44273321D01*
X84761633Y-44508582D01*
X84750085Y-44702554D01*
X84748338Y-44725167D01*
X84735999Y-44893019D01*
X84720589Y-45123401D01*
X84703499Y-45394296D01*
X84686126Y-45683685D01*
X84671958Y-45931667D01*
X84655862Y-46195806D01*
X84638470Y-46438147D01*
X84621100Y-46643182D01*
X84605072Y-46795400D01*
X84591707Y-46879290D01*
X84591164Y-46881300D01*
X84545925Y-46971636D01*
X84471929Y-47060858D01*
X84390727Y-47128998D01*
X84323874Y-47156089D01*
X84302903Y-47148348D01*
X84290780Y-47094634D01*
X84281672Y-46969886D01*
X84275460Y-46787676D01*
X84272022Y-46561578D01*
X84271238Y-46305165D01*
X84272987Y-46032011D01*
X84277149Y-45755689D01*
X84283603Y-45489773D01*
X84292228Y-45247836D01*
X84302904Y-45043452D01*
X84315510Y-44890193D01*
X84323498Y-44831000D01*
X84368439Y-44603852D01*
X84428976Y-44342995D01*
X84497961Y-44075739D01*
X84568245Y-43829398D01*
X84632679Y-43631284D01*
X84648973Y-43587466D01*
X84685639Y-43483541D01*
X84701279Y-43419841D01*
X84700188Y-43412155D01*
X84661912Y-43428441D01*
X84572404Y-43481853D01*
X84450054Y-43561340D01*
X84433834Y-43572243D01*
X84113767Y-43746774D01*
X83737708Y-43882494D01*
X83327441Y-43974049D01*
X82904748Y-44016086D01*
X82634667Y-44014373D01*
X82294360Y-43993146D01*
X82003733Y-43964738D01*
X81739654Y-43924477D01*
X81478992Y-43867691D01*
X81198615Y-43789709D01*
X80875392Y-43685858D01*
X80683061Y-43620206D01*
X80601477Y-43628263D01*
X80549529Y-43662519D01*
X80519085Y-43685251D01*
X80498525Y-43672313D01*
X80484863Y-43611157D01*
X80475111Y-43489232D01*
X80467184Y-43316556D01*
X80460511Y-43140305D01*
X80455998Y-42999739D01*
X80454201Y-42913553D01*
X80454687Y-42895641D01*
G36*
X81502675Y-40610279D02*
X81606062Y-40641643D01*
X81751427Y-40686483D01*
X81809167Y-40704434D01*
X82067947Y-40773315D01*
X82372401Y-40835261D01*
X82706953Y-40888867D01*
X83056031Y-40932728D01*
X83404060Y-40965440D01*
X83735468Y-40985596D01*
X84034681Y-40991793D01*
X84286125Y-40982624D01*
X84474226Y-40956687D01*
X84507917Y-40947898D01*
X84597828Y-40924189D01*
X84646945Y-40929285D01*
X84661482Y-40977553D01*
X84647650Y-41083360D01*
X84621905Y-41211500D01*
X84607768Y-41321505D01*
X84595912Y-41491920D01*
X84587668Y-41698492D01*
X84584440Y-41894393D01*
X84582000Y-42407952D01*
X84439627Y-42516545D01*
X84310055Y-42603900D01*
X84156241Y-42692468D01*
X84105474Y-42718312D01*
X83913695Y-42811486D01*
X83771598Y-42720558D01*
X83648193Y-42640470D01*
X83561249Y-42573293D01*
X83503491Y-42502107D01*
X83467642Y-42409992D01*
X83446430Y-42280029D01*
X83432577Y-42095298D01*
X83422542Y-41908742D01*
X83408604Y-41695768D01*
X83391559Y-41512742D01*
X83373356Y-41376575D01*
X83355944Y-41304176D01*
X83352219Y-41298286D01*
X83317062Y-41287478D01*
X83312000Y-41312530D01*
X83283857Y-41392753D01*
X83211992Y-41506236D01*
X83115247Y-41629197D01*
X83012469Y-41737852D01*
X82922501Y-41808419D01*
X82916506Y-41811662D01*
X82825922Y-41849903D01*
X82763291Y-41838769D01*
X82704430Y-41791943D01*
X82629310Y-41724040D01*
X82514166Y-41620117D01*
X82381878Y-41500824D01*
X82360667Y-41481705D01*
X82256761Y-41385833D01*
X82126352Y-41262268D01*
X81981470Y-41122821D01*
X81834147Y-40979298D01*
X81696413Y-40843511D01*
X81580298Y-40727266D01*
X81497833Y-40642374D01*
X81461049Y-40600643D01*
X81460678Y-40598302D01*
X81502675Y-40610279D01*
X81502675Y-40610279D01*
G37*
X81502675Y-40610279D02*
X81606062Y-40641643D01*
X81751427Y-40686483D01*
X81809167Y-40704434D01*
X82067947Y-40773315D01*
X82372401Y-40835261D01*
X82706953Y-40888867D01*
X83056031Y-40932728D01*
X83404060Y-40965440D01*
X83735468Y-40985596D01*
X84034681Y-40991793D01*
X84286125Y-40982624D01*
X84474226Y-40956687D01*
X84507917Y-40947898D01*
X84597828Y-40924189D01*
X84646945Y-40929285D01*
X84661482Y-40977553D01*
X84647650Y-41083360D01*
X84621905Y-41211500D01*
X84607768Y-41321505D01*
X84595912Y-41491920D01*
X84587668Y-41698492D01*
X84584440Y-41894393D01*
X84582000Y-42407952D01*
X84439627Y-42516545D01*
X84310055Y-42603900D01*
X84156241Y-42692468D01*
X84105474Y-42718312D01*
X83913695Y-42811486D01*
X83771598Y-42720558D01*
X83648193Y-42640470D01*
X83561249Y-42573293D01*
X83503491Y-42502107D01*
X83467642Y-42409992D01*
X83446430Y-42280029D01*
X83432577Y-42095298D01*
X83422542Y-41908742D01*
X83408604Y-41695768D01*
X83391559Y-41512742D01*
X83373356Y-41376575D01*
X83355944Y-41304176D01*
X83352219Y-41298286D01*
X83317062Y-41287478D01*
X83312000Y-41312530D01*
X83283857Y-41392753D01*
X83211992Y-41506236D01*
X83115247Y-41629197D01*
X83012469Y-41737852D01*
X82922501Y-41808419D01*
X82916506Y-41811662D01*
X82825922Y-41849903D01*
X82763291Y-41838769D01*
X82704430Y-41791943D01*
X82629310Y-41724040D01*
X82514166Y-41620117D01*
X82381878Y-41500824D01*
X82360667Y-41481705D01*
X82256761Y-41385833D01*
X82126352Y-41262268D01*
X81981470Y-41122821D01*
X81834147Y-40979298D01*
X81696413Y-40843511D01*
X81580298Y-40727266D01*
X81497833Y-40642374D01*
X81461049Y-40600643D01*
X81460678Y-40598302D01*
X81502675Y-40610279D01*
G36*
X80828060Y-43751120D02*
X81145884Y-43860542D01*
X81521871Y-43952248D01*
X81930724Y-44022759D01*
X82347143Y-44068598D01*
X82745831Y-44086288D01*
X83101489Y-44072350D01*
X83137807Y-44068637D01*
X83374322Y-44031664D01*
X83631007Y-43973393D01*
X83885166Y-43900716D01*
X84114099Y-43820523D01*
X84295110Y-43739706D01*
X84370334Y-43694453D01*
X84496824Y-43608036D01*
X84567701Y-43568092D01*
X84580918Y-43569085D01*
X84567748Y-43612469D01*
X84533887Y-43715352D01*
X84486130Y-43857151D01*
X84476220Y-43886282D01*
X84417422Y-44080317D01*
X84357749Y-44312109D01*
X84308914Y-44535691D01*
X84303628Y-44563616D01*
X84271307Y-44735693D01*
X84243641Y-44877891D01*
X84224952Y-44968202D01*
X84220771Y-44985538D01*
X84171373Y-45031876D01*
X84057064Y-45089816D01*
X83895739Y-45153302D01*
X83705293Y-45216281D01*
X83503620Y-45272697D01*
X83308614Y-45316497D01*
X83182622Y-45336791D01*
X82886194Y-45364300D01*
X82565249Y-45377881D01*
X82248201Y-45377448D01*
X81963462Y-45362913D01*
X81778015Y-45341072D01*
X81625000Y-45304088D01*
X81442756Y-45242263D01*
X81250849Y-45164486D01*
X81068847Y-45079645D01*
X80916319Y-44996628D01*
X80812831Y-44924325D01*
X80781744Y-44888514D01*
X80764589Y-44818074D01*
X80746592Y-44681665D01*
X80729728Y-44497936D01*
X80715972Y-44285538D01*
X80714236Y-44251053D01*
X80687217Y-43692272D01*
X80828060Y-43751120D01*
X80828060Y-43751120D01*
G37*
X80828060Y-43751120D02*
X81145884Y-43860542D01*
X81521871Y-43952248D01*
X81930724Y-44022759D01*
X82347143Y-44068598D01*
X82745831Y-44086288D01*
X83101489Y-44072350D01*
X83137807Y-44068637D01*
X83374322Y-44031664D01*
X83631007Y-43973393D01*
X83885166Y-43900716D01*
X84114099Y-43820523D01*
X84295110Y-43739706D01*
X84370334Y-43694453D01*
X84496824Y-43608036D01*
X84567701Y-43568092D01*
X84580918Y-43569085D01*
X84567748Y-43612469D01*
X84533887Y-43715352D01*
X84486130Y-43857151D01*
X84476220Y-43886282D01*
X84417422Y-44080317D01*
X84357749Y-44312109D01*
X84308914Y-44535691D01*
X84303628Y-44563616D01*
X84271307Y-44735693D01*
X84243641Y-44877891D01*
X84224952Y-44968202D01*
X84220771Y-44985538D01*
X84171373Y-45031876D01*
X84057064Y-45089816D01*
X83895739Y-45153302D01*
X83705293Y-45216281D01*
X83503620Y-45272697D01*
X83308614Y-45316497D01*
X83182622Y-45336791D01*
X82886194Y-45364300D01*
X82565249Y-45377881D01*
X82248201Y-45377448D01*
X81963462Y-45362913D01*
X81778015Y-45341072D01*
X81625000Y-45304088D01*
X81442756Y-45242263D01*
X81250849Y-45164486D01*
X81068847Y-45079645D01*
X80916319Y-44996628D01*
X80812831Y-44924325D01*
X80781744Y-44888514D01*
X80764589Y-44818074D01*
X80746592Y-44681665D01*
X80729728Y-44497936D01*
X80715972Y-44285538D01*
X80714236Y-44251053D01*
X80687217Y-43692272D01*
X80828060Y-43751120D01*
G36*
X84349167Y-47244000D02*
X84370334Y-47265167D01*
X84349167Y-47286334D01*
X84328000Y-47265167D01*
X84349167Y-47244000D01*
X84349167Y-47244000D01*
G37*
X84349167Y-47244000D02*
X84370334Y-47265167D01*
X84349167Y-47286334D01*
X84328000Y-47265167D01*
X84349167Y-47244000D01*
G36*
X80867544Y-45039701D02*
X80953684Y-45077421D01*
X81085650Y-45139649D01*
X81224488Y-45207765D01*
X81400893Y-45289142D01*
X81568803Y-45348501D01*
X81745478Y-45388342D01*
X81948178Y-45411162D01*
X82194164Y-45419462D01*
X82500696Y-45415740D01*
X82633725Y-45411789D01*
X83080894Y-45385781D01*
X83462350Y-45339861D01*
X83773180Y-45274933D01*
X84008472Y-45191903D01*
X84099130Y-45142011D01*
X84201000Y-45075263D01*
X84201000Y-46994321D01*
X84042250Y-47061684D01*
X83899290Y-47100412D01*
X83678942Y-47129444D01*
X83388026Y-47147896D01*
X83375500Y-47148383D01*
X82813809Y-47134200D01*
X82294098Y-47046875D01*
X81814734Y-46885832D01*
X81374084Y-46650499D01*
X80970515Y-46340301D01*
X80906560Y-46281107D01*
X80843616Y-46232281D01*
X80829128Y-46249281D01*
X80840373Y-46280917D01*
X80890413Y-46342293D01*
X80991050Y-46434389D01*
X81122103Y-46541464D01*
X81263391Y-46647775D01*
X81394734Y-46737578D01*
X81495951Y-46795131D01*
X81504158Y-46798724D01*
X81605003Y-46845949D01*
X81668665Y-46884782D01*
X81671453Y-46887359D01*
X81748362Y-46932278D01*
X81891589Y-46986928D01*
X82084110Y-47046117D01*
X82308900Y-47104654D01*
X82548937Y-47157347D01*
X82571083Y-47161699D01*
X83000701Y-47225332D01*
X83384117Y-47237458D01*
X83742313Y-47198091D01*
X83904667Y-47162625D01*
X84055260Y-47125674D01*
X84168864Y-47099616D01*
X84225268Y-47089038D01*
X84228015Y-47089266D01*
X84234110Y-47131344D01*
X84245155Y-47237418D01*
X84259072Y-47387109D01*
X84263443Y-47436849D01*
X84275685Y-47618892D01*
X84273203Y-47734723D01*
X84254676Y-47801731D01*
X84233805Y-47827008D01*
X84166930Y-47858173D01*
X84040353Y-47898398D01*
X83877471Y-47940538D01*
X83817378Y-47954164D01*
X83645229Y-47993008D01*
X83539004Y-48023972D01*
X83481812Y-48056772D01*
X83456758Y-48101125D01*
X83446951Y-48166747D01*
X83446901Y-48167254D01*
X83434919Y-48245963D01*
X83403959Y-48286001D01*
X83331337Y-48300435D01*
X83212379Y-48302334D01*
X82869225Y-48263665D01*
X82502418Y-48150429D01*
X82119464Y-47966788D01*
X81727868Y-47716898D01*
X81335134Y-47404921D01*
X80975464Y-47062720D01*
X80776762Y-46857730D01*
X80774675Y-45930191D01*
X80772587Y-45002653D01*
X80867544Y-45039701D01*
X80867544Y-45039701D01*
G37*
X80867544Y-45039701D02*
X80953684Y-45077421D01*
X81085650Y-45139649D01*
X81224488Y-45207765D01*
X81400893Y-45289142D01*
X81568803Y-45348501D01*
X81745478Y-45388342D01*
X81948178Y-45411162D01*
X82194164Y-45419462D01*
X82500696Y-45415740D01*
X82633725Y-45411789D01*
X83080894Y-45385781D01*
X83462350Y-45339861D01*
X83773180Y-45274933D01*
X84008472Y-45191903D01*
X84099130Y-45142011D01*
X84201000Y-45075263D01*
X84201000Y-46994321D01*
X84042250Y-47061684D01*
X83899290Y-47100412D01*
X83678942Y-47129444D01*
X83388026Y-47147896D01*
X83375500Y-47148383D01*
X82813809Y-47134200D01*
X82294098Y-47046875D01*
X81814734Y-46885832D01*
X81374084Y-46650499D01*
X80970515Y-46340301D01*
X80906560Y-46281107D01*
X80843616Y-46232281D01*
X80829128Y-46249281D01*
X80840373Y-46280917D01*
X80890413Y-46342293D01*
X80991050Y-46434389D01*
X81122103Y-46541464D01*
X81263391Y-46647775D01*
X81394734Y-46737578D01*
X81495951Y-46795131D01*
X81504158Y-46798724D01*
X81605003Y-46845949D01*
X81668665Y-46884782D01*
X81671453Y-46887359D01*
X81748362Y-46932278D01*
X81891589Y-46986928D01*
X82084110Y-47046117D01*
X82308900Y-47104654D01*
X82548937Y-47157347D01*
X82571083Y-47161699D01*
X83000701Y-47225332D01*
X83384117Y-47237458D01*
X83742313Y-47198091D01*
X83904667Y-47162625D01*
X84055260Y-47125674D01*
X84168864Y-47099616D01*
X84225268Y-47089038D01*
X84228015Y-47089266D01*
X84234110Y-47131344D01*
X84245155Y-47237418D01*
X84259072Y-47387109D01*
X84263443Y-47436849D01*
X84275685Y-47618892D01*
X84273203Y-47734723D01*
X84254676Y-47801731D01*
X84233805Y-47827008D01*
X84166930Y-47858173D01*
X84040353Y-47898398D01*
X83877471Y-47940538D01*
X83817378Y-47954164D01*
X83645229Y-47993008D01*
X83539004Y-48023972D01*
X83481812Y-48056772D01*
X83456758Y-48101125D01*
X83446951Y-48166747D01*
X83446901Y-48167254D01*
X83434919Y-48245963D01*
X83403959Y-48286001D01*
X83331337Y-48300435D01*
X83212379Y-48302334D01*
X82869225Y-48263665D01*
X82502418Y-48150429D01*
X82119464Y-47966788D01*
X81727868Y-47716898D01*
X81335134Y-47404921D01*
X80975464Y-47062720D01*
X80776762Y-46857730D01*
X80774675Y-45930191D01*
X80772587Y-45002653D01*
X80867544Y-45039701D01*
G36*
X82490829Y-50828928D02*
X82534157Y-50741673D01*
X82600545Y-50640222D01*
X82674472Y-50550042D01*
X82700399Y-50524834D01*
X82743173Y-50475694D01*
X82824317Y-50373265D01*
X82932163Y-50232558D01*
X83054175Y-50069750D01*
X83173386Y-49910905D01*
X83274011Y-49780401D01*
X83345710Y-49691397D01*
X83378147Y-49657051D01*
X83378471Y-49657000D01*
X83389155Y-49694408D01*
X83392834Y-49787157D01*
X83392355Y-49815750D01*
X83357162Y-49976610D01*
X83299575Y-50059167D01*
X83236664Y-50123294D01*
X83131821Y-50234287D01*
X82999937Y-50376244D01*
X82863583Y-50524834D01*
X82728093Y-50668601D01*
X82612227Y-50782608D01*
X82527859Y-50855793D01*
X82486862Y-50877097D01*
X82486078Y-50876521D01*
X82490829Y-50828928D01*
X82490829Y-50828928D01*
G37*
X82490829Y-50828928D02*
X82534157Y-50741673D01*
X82600545Y-50640222D01*
X82674472Y-50550042D01*
X82700399Y-50524834D01*
X82743173Y-50475694D01*
X82824317Y-50373265D01*
X82932163Y-50232558D01*
X83054175Y-50069750D01*
X83173386Y-49910905D01*
X83274011Y-49780401D01*
X83345710Y-49691397D01*
X83378147Y-49657051D01*
X83378471Y-49657000D01*
X83389155Y-49694408D01*
X83392834Y-49787157D01*
X83392355Y-49815750D01*
X83357162Y-49976610D01*
X83299575Y-50059167D01*
X83236664Y-50123294D01*
X83131821Y-50234287D01*
X82999937Y-50376244D01*
X82863583Y-50524834D01*
X82728093Y-50668601D01*
X82612227Y-50782608D01*
X82527859Y-50855793D01*
X82486862Y-50877097D01*
X82486078Y-50876521D01*
X82490829Y-50828928D01*
G36*
X80532271Y-42549457D02*
X80541928Y-42400073D01*
X80555941Y-42229694D01*
X80569096Y-42094868D01*
X80579378Y-42015231D01*
X80582762Y-42002297D01*
X80623754Y-42011206D01*
X80713155Y-42049573D01*
X80757315Y-42071214D01*
X80901228Y-42133202D01*
X81045972Y-42179703D01*
X81068334Y-42184889D01*
X81183598Y-42217765D01*
X81265648Y-42255973D01*
X81270149Y-42259347D01*
X81338725Y-42280461D01*
X81467655Y-42294787D01*
X81632894Y-42302259D01*
X81810397Y-42302811D01*
X81976119Y-42296375D01*
X82106015Y-42282886D01*
X82176039Y-42262278D01*
X82176601Y-42261843D01*
X82251193Y-42221187D01*
X82367394Y-42175211D01*
X82401834Y-42163789D01*
X82687498Y-42049610D01*
X82930183Y-41894321D01*
X83130480Y-41712166D01*
X83354334Y-41482881D01*
X83354334Y-43043737D01*
X83195584Y-43070717D01*
X82657613Y-43141678D01*
X82177347Y-43162313D01*
X81758809Y-43132564D01*
X81555167Y-43094417D01*
X81435722Y-43066236D01*
X81264476Y-43026030D01*
X81072082Y-42980991D01*
X81004834Y-42965280D01*
X80830460Y-42921133D01*
X80684625Y-42877894D01*
X80589322Y-42842361D01*
X80568313Y-42830317D01*
X80541756Y-42785115D01*
X80530045Y-42696438D01*
X80532271Y-42549457D01*
X80532271Y-42549457D01*
G37*
X80532271Y-42549457D02*
X80541928Y-42400073D01*
X80555941Y-42229694D01*
X80569096Y-42094868D01*
X80579378Y-42015231D01*
X80582762Y-42002297D01*
X80623754Y-42011206D01*
X80713155Y-42049573D01*
X80757315Y-42071214D01*
X80901228Y-42133202D01*
X81045972Y-42179703D01*
X81068334Y-42184889D01*
X81183598Y-42217765D01*
X81265648Y-42255973D01*
X81270149Y-42259347D01*
X81338725Y-42280461D01*
X81467655Y-42294787D01*
X81632894Y-42302259D01*
X81810397Y-42302811D01*
X81976119Y-42296375D01*
X82106015Y-42282886D01*
X82176039Y-42262278D01*
X82176601Y-42261843D01*
X82251193Y-42221187D01*
X82367394Y-42175211D01*
X82401834Y-42163789D01*
X82687498Y-42049610D01*
X82930183Y-41894321D01*
X83130480Y-41712166D01*
X83354334Y-41482881D01*
X83354334Y-43043737D01*
X83195584Y-43070717D01*
X82657613Y-43141678D01*
X82177347Y-43162313D01*
X81758809Y-43132564D01*
X81555167Y-43094417D01*
X81435722Y-43066236D01*
X81264476Y-43026030D01*
X81072082Y-42980991D01*
X81004834Y-42965280D01*
X80830460Y-42921133D01*
X80684625Y-42877894D01*
X80589322Y-42842361D01*
X80568313Y-42830317D01*
X80541756Y-42785115D01*
X80530045Y-42696438D01*
X80532271Y-42549457D01*
G36*
X80757012Y-46960949D02*
X80772000Y-46968834D01*
X80812429Y-47008721D01*
X80814334Y-47016164D01*
X80786988Y-47019052D01*
X80772000Y-47011167D01*
X80731572Y-46971280D01*
X80729667Y-46963837D01*
X80757012Y-46960949D01*
X80757012Y-46960949D01*
G37*
X80757012Y-46960949D02*
X80772000Y-46968834D01*
X80812429Y-47008721D01*
X80814334Y-47016164D01*
X80786988Y-47019052D01*
X80772000Y-47011167D01*
X80731572Y-46971280D01*
X80729667Y-46963837D01*
X80757012Y-46960949D01*
G36*
X80346386Y-45676891D02*
X80366827Y-45440036D01*
X80390170Y-45154672D01*
X80413535Y-44856760D01*
X80434001Y-44582843D01*
X80456959Y-44319120D01*
X80483732Y-44101806D01*
X80512409Y-43944032D01*
X80538604Y-43863176D01*
X80580875Y-43803000D01*
X80601206Y-43810046D01*
X80601588Y-43815000D01*
X80605453Y-43875656D01*
X80614823Y-44006382D01*
X80628634Y-44192837D01*
X80645824Y-44420680D01*
X80665330Y-44675569D01*
X80665890Y-44682834D01*
X80690341Y-45014486D01*
X80706894Y-45282263D01*
X80715988Y-45506546D01*
X80718059Y-45707716D01*
X80713545Y-45906152D01*
X80702884Y-46122236D01*
X80698383Y-46196250D01*
X80685432Y-46327025D01*
X80667599Y-46415382D01*
X80653008Y-46439667D01*
X80606159Y-46414179D01*
X80520056Y-46349170D01*
X80462805Y-46301308D01*
X80302702Y-46162949D01*
X80346386Y-45676891D01*
X80346386Y-45676891D01*
G37*
X80346386Y-45676891D02*
X80366827Y-45440036D01*
X80390170Y-45154672D01*
X80413535Y-44856760D01*
X80434001Y-44582843D01*
X80456959Y-44319120D01*
X80483732Y-44101806D01*
X80512409Y-43944032D01*
X80538604Y-43863176D01*
X80580875Y-43803000D01*
X80601206Y-43810046D01*
X80601588Y-43815000D01*
X80605453Y-43875656D01*
X80614823Y-44006382D01*
X80628634Y-44192837D01*
X80645824Y-44420680D01*
X80665330Y-44675569D01*
X80665890Y-44682834D01*
X80690341Y-45014486D01*
X80706894Y-45282263D01*
X80715988Y-45506546D01*
X80718059Y-45707716D01*
X80713545Y-45906152D01*
X80702884Y-46122236D01*
X80698383Y-46196250D01*
X80685432Y-46327025D01*
X80667599Y-46415382D01*
X80653008Y-46439667D01*
X80606159Y-46414179D01*
X80520056Y-46349170D01*
X80462805Y-46301308D01*
X80302702Y-46162949D01*
X80346386Y-45676891D01*
G36*
X78282311Y-45117060D02*
X78316667Y-45085000D01*
X78357622Y-45117344D01*
X78359000Y-45128283D01*
X78389485Y-45182504D01*
X78469137Y-45272382D01*
X78580253Y-45381639D01*
X78705131Y-45494001D01*
X78826068Y-45593191D01*
X78925361Y-45662936D01*
X78960573Y-45681356D01*
X79044040Y-45725698D01*
X79078667Y-45763466D01*
X79115667Y-45791765D01*
X79212831Y-45837357D01*
X79349401Y-45892629D01*
X79504619Y-45949967D01*
X79657730Y-46001759D01*
X79787974Y-46040389D01*
X79874597Y-46058245D01*
X79883484Y-46058667D01*
X79943966Y-46086851D01*
X80012038Y-46177906D01*
X80089283Y-46328892D01*
X80223557Y-46561747D01*
X80376716Y-46718106D01*
X80376762Y-46718140D01*
X80480788Y-46795085D01*
X80557121Y-46852818D01*
X80575462Y-46867326D01*
X80572517Y-46906679D01*
X80525328Y-46943745D01*
X80432345Y-46971228D01*
X80295952Y-46987798D01*
X80227526Y-46990000D01*
X80023891Y-46958534D01*
X79792780Y-46872209D01*
X79558517Y-46743139D01*
X79345426Y-46583436D01*
X79272105Y-46514238D01*
X79161832Y-46396720D01*
X79022635Y-46240575D01*
X78867974Y-46061798D01*
X78711310Y-45876384D01*
X78566103Y-45700328D01*
X78445814Y-45549626D01*
X78363903Y-45440273D01*
X78346695Y-45414573D01*
X78298831Y-45309085D01*
X78276542Y-45200825D01*
X78282311Y-45117060D01*
X78282311Y-45117060D01*
G37*
X78282311Y-45117060D02*
X78316667Y-45085000D01*
X78357622Y-45117344D01*
X78359000Y-45128283D01*
X78389485Y-45182504D01*
X78469137Y-45272382D01*
X78580253Y-45381639D01*
X78705131Y-45494001D01*
X78826068Y-45593191D01*
X78925361Y-45662936D01*
X78960573Y-45681356D01*
X79044040Y-45725698D01*
X79078667Y-45763466D01*
X79115667Y-45791765D01*
X79212831Y-45837357D01*
X79349401Y-45892629D01*
X79504619Y-45949967D01*
X79657730Y-46001759D01*
X79787974Y-46040389D01*
X79874597Y-46058245D01*
X79883484Y-46058667D01*
X79943966Y-46086851D01*
X80012038Y-46177906D01*
X80089283Y-46328892D01*
X80223557Y-46561747D01*
X80376716Y-46718106D01*
X80376762Y-46718140D01*
X80480788Y-46795085D01*
X80557121Y-46852818D01*
X80575462Y-46867326D01*
X80572517Y-46906679D01*
X80525328Y-46943745D01*
X80432345Y-46971228D01*
X80295952Y-46987798D01*
X80227526Y-46990000D01*
X80023891Y-46958534D01*
X79792780Y-46872209D01*
X79558517Y-46743139D01*
X79345426Y-46583436D01*
X79272105Y-46514238D01*
X79161832Y-46396720D01*
X79022635Y-46240575D01*
X78867974Y-46061798D01*
X78711310Y-45876384D01*
X78566103Y-45700328D01*
X78445814Y-45549626D01*
X78363903Y-45440273D01*
X78346695Y-45414573D01*
X78298831Y-45309085D01*
X78276542Y-45200825D01*
X78282311Y-45117060D01*
G36*
X78289561Y-43967875D02*
X78313371Y-43964955D01*
X78324839Y-43973365D01*
X78392602Y-44007073D01*
X78515338Y-44050263D01*
X78655334Y-44090554D01*
X78953236Y-44135082D01*
X79296725Y-44131217D01*
X79663649Y-44081357D01*
X80031854Y-43987898D01*
X80220883Y-43921141D01*
X80350538Y-43871283D01*
X80441705Y-43838048D01*
X80473980Y-43828730D01*
X80455343Y-43867062D01*
X80410176Y-43955375D01*
X80384195Y-44005500D01*
X80314433Y-44141184D01*
X80230204Y-44307174D01*
X80178510Y-44410057D01*
X80102536Y-44547911D01*
X80031506Y-44630801D01*
X79940651Y-44683048D01*
X79876713Y-44706390D01*
X79689126Y-44745258D01*
X79449133Y-44761705D01*
X79185764Y-44756481D01*
X78928046Y-44730335D01*
X78705010Y-44684016D01*
X78676500Y-44675425D01*
X78521742Y-44617152D01*
X78420063Y-44547056D01*
X78356840Y-44445108D01*
X78317454Y-44291280D01*
X78298092Y-44157066D01*
X78285112Y-44027488D01*
X78289561Y-43967875D01*
X78289561Y-43967875D01*
G37*
X78289561Y-43967875D02*
X78313371Y-43964955D01*
X78324839Y-43973365D01*
X78392602Y-44007073D01*
X78515338Y-44050263D01*
X78655334Y-44090554D01*
X78953236Y-44135082D01*
X79296725Y-44131217D01*
X79663649Y-44081357D01*
X80031854Y-43987898D01*
X80220883Y-43921141D01*
X80350538Y-43871283D01*
X80441705Y-43838048D01*
X80473980Y-43828730D01*
X80455343Y-43867062D01*
X80410176Y-43955375D01*
X80384195Y-44005500D01*
X80314433Y-44141184D01*
X80230204Y-44307174D01*
X80178510Y-44410057D01*
X80102536Y-44547911D01*
X80031506Y-44630801D01*
X79940651Y-44683048D01*
X79876713Y-44706390D01*
X79689126Y-44745258D01*
X79449133Y-44761705D01*
X79185764Y-44756481D01*
X78928046Y-44730335D01*
X78705010Y-44684016D01*
X78676500Y-44675425D01*
X78521742Y-44617152D01*
X78420063Y-44547056D01*
X78356840Y-44445108D01*
X78317454Y-44291280D01*
X78298092Y-44157066D01*
X78285112Y-44027488D01*
X78289561Y-43967875D01*
G36*
X80369834Y-42926000D02*
X80391000Y-42947167D01*
X80369834Y-42968334D01*
X80348667Y-42947167D01*
X80369834Y-42926000D01*
X80369834Y-42926000D01*
G37*
X80369834Y-42926000D02*
X80391000Y-42947167D01*
X80369834Y-42968334D01*
X80348667Y-42947167D01*
X80369834Y-42926000D01*
G36*
X78030917Y-43374032D02*
X78356505Y-43406787D01*
X78726726Y-43390696D01*
X79119906Y-43329559D01*
X79514367Y-43227175D01*
X79888435Y-43087344D01*
X80020584Y-43025251D01*
X80131425Y-42975082D01*
X80203883Y-42952520D01*
X80220343Y-42957037D01*
X80202293Y-43010585D01*
X80157407Y-43112992D01*
X80119369Y-43192876D01*
X80048026Y-43357837D01*
X79985660Y-43533849D01*
X79968000Y-43595043D01*
X79933617Y-43727315D01*
X79906324Y-43832505D01*
X79898827Y-43861493D01*
X79846595Y-43934931D01*
X79728827Y-43990545D01*
X79539743Y-44030022D01*
X79273564Y-44055048D01*
X79226834Y-44057649D01*
X79026126Y-44066059D01*
X78880095Y-44063847D01*
X78758990Y-44046710D01*
X78633056Y-44010346D01*
X78472540Y-43950451D01*
X78464834Y-43947448D01*
X78290814Y-43885807D01*
X78129670Y-43839478D01*
X78010020Y-43816406D01*
X77988584Y-43815195D01*
X77851000Y-43815000D01*
X77851000Y-43338513D01*
X78030917Y-43374032D01*
X78030917Y-43374032D01*
G37*
X78030917Y-43374032D02*
X78356505Y-43406787D01*
X78726726Y-43390696D01*
X79119906Y-43329559D01*
X79514367Y-43227175D01*
X79888435Y-43087344D01*
X80020584Y-43025251D01*
X80131425Y-42975082D01*
X80203883Y-42952520D01*
X80220343Y-42957037D01*
X80202293Y-43010585D01*
X80157407Y-43112992D01*
X80119369Y-43192876D01*
X80048026Y-43357837D01*
X79985660Y-43533849D01*
X79968000Y-43595043D01*
X79933617Y-43727315D01*
X79906324Y-43832505D01*
X79898827Y-43861493D01*
X79846595Y-43934931D01*
X79728827Y-43990545D01*
X79539743Y-44030022D01*
X79273564Y-44055048D01*
X79226834Y-44057649D01*
X79026126Y-44066059D01*
X78880095Y-44063847D01*
X78758990Y-44046710D01*
X78633056Y-44010346D01*
X78472540Y-43950451D01*
X78464834Y-43947448D01*
X78290814Y-43885807D01*
X78129670Y-43839478D01*
X78010020Y-43816406D01*
X77988584Y-43815195D01*
X77851000Y-43815000D01*
X77851000Y-43338513D01*
X78030917Y-43374032D01*
G36*
X80023513Y-45719112D02*
X80055133Y-45701984D01*
X80091484Y-45763520D01*
X80105335Y-45814625D01*
X80136237Y-45926574D01*
X80157252Y-45984584D01*
X80166390Y-46045050D01*
X80149996Y-46058667D01*
X80073316Y-46020477D01*
X80023039Y-45920087D01*
X80010000Y-45814869D01*
X80023513Y-45719112D01*
X80023513Y-45719112D01*
G37*
X80023513Y-45719112D02*
X80055133Y-45701984D01*
X80091484Y-45763520D01*
X80105335Y-45814625D01*
X80136237Y-45926574D01*
X80157252Y-45984584D01*
X80166390Y-46045050D01*
X80149996Y-46058667D01*
X80073316Y-46020477D01*
X80023039Y-45920087D01*
X80010000Y-45814869D01*
X80023513Y-45719112D01*
G36*
X78320806Y-44706985D02*
X78331366Y-44632234D01*
X78339169Y-44619334D01*
X78387966Y-44631868D01*
X78493236Y-44664594D01*
X78620384Y-44706488D01*
X78916038Y-44780919D01*
X79231915Y-44817401D01*
X79542115Y-44815571D01*
X79820738Y-44775065D01*
X79978250Y-44725534D01*
X80036349Y-44715909D01*
X80047038Y-44731221D01*
X80038842Y-44786496D01*
X80021173Y-44905182D01*
X79997060Y-45066955D01*
X79981739Y-45169667D01*
X79956060Y-45372388D01*
X79938920Y-45569001D01*
X79932859Y-45727333D01*
X79934118Y-45772943D01*
X79938335Y-45894175D01*
X79924153Y-45953281D01*
X79880821Y-45972456D01*
X79836711Y-45974027D01*
X79636326Y-45943476D01*
X79399651Y-45858699D01*
X79145344Y-45729883D01*
X78892064Y-45567214D01*
X78658470Y-45380878D01*
X78538917Y-45265513D01*
X78424312Y-45141213D01*
X78357708Y-45050319D01*
X78326234Y-44967388D01*
X78317017Y-44866976D01*
X78316667Y-44826175D01*
X78320806Y-44706985D01*
X78320806Y-44706985D01*
G37*
X78320806Y-44706985D02*
X78331366Y-44632234D01*
X78339169Y-44619334D01*
X78387966Y-44631868D01*
X78493236Y-44664594D01*
X78620384Y-44706488D01*
X78916038Y-44780919D01*
X79231915Y-44817401D01*
X79542115Y-44815571D01*
X79820738Y-44775065D01*
X79978250Y-44725534D01*
X80036349Y-44715909D01*
X80047038Y-44731221D01*
X80038842Y-44786496D01*
X80021173Y-44905182D01*
X79997060Y-45066955D01*
X79981739Y-45169667D01*
X79956060Y-45372388D01*
X79938920Y-45569001D01*
X79932859Y-45727333D01*
X79934118Y-45772943D01*
X79938335Y-45894175D01*
X79924153Y-45953281D01*
X79880821Y-45972456D01*
X79836711Y-45974027D01*
X79636326Y-45943476D01*
X79399651Y-45858699D01*
X79145344Y-45729883D01*
X78892064Y-45567214D01*
X78658470Y-45380878D01*
X78538917Y-45265513D01*
X78424312Y-45141213D01*
X78357708Y-45050319D01*
X78326234Y-44967388D01*
X78317017Y-44866976D01*
X78316667Y-44826175D01*
X78320806Y-44706985D01*
G36*
X78014631Y-44262733D02*
X78065132Y-44088498D01*
X78083566Y-44055608D01*
X78167965Y-43922546D01*
X78194974Y-44048690D01*
X78207673Y-44148359D01*
X78218072Y-44304493D01*
X78224476Y-44488890D01*
X78225469Y-44555834D01*
X78228955Y-44936834D01*
X78128051Y-44813411D01*
X78048092Y-44659287D01*
X78009618Y-44464362D01*
X78014631Y-44262733D01*
X78014631Y-44262733D01*
G37*
X78014631Y-44262733D02*
X78065132Y-44088498D01*
X78083566Y-44055608D01*
X78167965Y-43922546D01*
X78194974Y-44048690D01*
X78207673Y-44148359D01*
X78218072Y-44304493D01*
X78224476Y-44488890D01*
X78225469Y-44555834D01*
X78228955Y-44936834D01*
X78128051Y-44813411D01*
X78048092Y-44659287D01*
X78009618Y-44464362D01*
X78014631Y-44262733D01*
G36*
X77102476Y-43637628D02*
X77144916Y-43607882D01*
X77219335Y-43655455D01*
X77232659Y-43668374D01*
X77368138Y-43759313D01*
X77565930Y-43832757D01*
X77804230Y-43880808D01*
X77826710Y-43883592D01*
X77955015Y-43903656D01*
X78040712Y-43926605D01*
X78062667Y-43942120D01*
X78038843Y-43993335D01*
X77980783Y-44076919D01*
X77973775Y-44085923D01*
X77908234Y-44205513D01*
X77865134Y-44349047D01*
X77862368Y-44366799D01*
X77839648Y-44472212D01*
X77810402Y-44530560D01*
X77801406Y-44534667D01*
X77727268Y-44513094D01*
X77611307Y-44458478D01*
X77481308Y-44385974D01*
X77365057Y-44310737D01*
X77307554Y-44265306D01*
X77187982Y-44107981D01*
X77110169Y-43908809D01*
X77089000Y-43746331D01*
X77102476Y-43637628D01*
X77102476Y-43637628D01*
G37*
X77102476Y-43637628D02*
X77144916Y-43607882D01*
X77219335Y-43655455D01*
X77232659Y-43668374D01*
X77368138Y-43759313D01*
X77565930Y-43832757D01*
X77804230Y-43880808D01*
X77826710Y-43883592D01*
X77955015Y-43903656D01*
X78040712Y-43926605D01*
X78062667Y-43942120D01*
X78038843Y-43993335D01*
X77980783Y-44076919D01*
X77973775Y-44085923D01*
X77908234Y-44205513D01*
X77865134Y-44349047D01*
X77862368Y-44366799D01*
X77839648Y-44472212D01*
X77810402Y-44530560D01*
X77801406Y-44534667D01*
X77727268Y-44513094D01*
X77611307Y-44458478D01*
X77481308Y-44385974D01*
X77365057Y-44310737D01*
X77307554Y-44265306D01*
X77187982Y-44107981D01*
X77110169Y-43908809D01*
X77089000Y-43746331D01*
X77102476Y-43637628D01*
G36*
X77173473Y-44277161D02*
X77214514Y-44268934D01*
X77252141Y-44294988D01*
X77326156Y-44347834D01*
X77446295Y-44421211D01*
X77554667Y-44481862D01*
X77787500Y-44606906D01*
X77772993Y-44825223D01*
X77776448Y-45002819D01*
X77820278Y-45144274D01*
X77845649Y-45191271D01*
X77896520Y-45282974D01*
X77918962Y-45334740D01*
X77917933Y-45339000D01*
X77813390Y-45306250D01*
X77682273Y-45219546D01*
X77543705Y-45096213D01*
X77416811Y-44953572D01*
X77320713Y-44808945D01*
X77310388Y-44788667D01*
X77233743Y-44612269D01*
X77184460Y-44460463D01*
X77163913Y-44344882D01*
X77173473Y-44277161D01*
X77173473Y-44277161D01*
G37*
X77173473Y-44277161D02*
X77214514Y-44268934D01*
X77252141Y-44294988D01*
X77326156Y-44347834D01*
X77446295Y-44421211D01*
X77554667Y-44481862D01*
X77787500Y-44606906D01*
X77772993Y-44825223D01*
X77776448Y-45002819D01*
X77820278Y-45144274D01*
X77845649Y-45191271D01*
X77896520Y-45282974D01*
X77918962Y-45334740D01*
X77917933Y-45339000D01*
X77813390Y-45306250D01*
X77682273Y-45219546D01*
X77543705Y-45096213D01*
X77416811Y-44953572D01*
X77320713Y-44808945D01*
X77310388Y-44788667D01*
X77233743Y-44612269D01*
X77184460Y-44460463D01*
X77163913Y-44344882D01*
X77173473Y-44277161D01*
G36*
X76866750Y-43295611D02*
X76963961Y-43311045D01*
X77116301Y-43322523D01*
X77294250Y-43327979D01*
X77332421Y-43328167D01*
X77492399Y-43328712D01*
X77613829Y-43330163D01*
X77676981Y-43332245D01*
X77681671Y-43333041D01*
X77658609Y-43365691D01*
X77602542Y-43438496D01*
X77597000Y-43445552D01*
X77537968Y-43530447D01*
X77511754Y-43587587D01*
X77511685Y-43588844D01*
X77490653Y-43652805D01*
X77473194Y-43684283D01*
X77433911Y-43722712D01*
X77383420Y-43694274D01*
X77372733Y-43684283D01*
X77227886Y-43557375D01*
X77130260Y-43498631D01*
X77087024Y-43498722D01*
X77065522Y-43551276D01*
X77050882Y-43662181D01*
X77046667Y-43777320D01*
X77046667Y-44030976D01*
X76898500Y-43917964D01*
X76817806Y-43851201D01*
X76773439Y-43788516D01*
X76754570Y-43701844D01*
X76750368Y-43563118D01*
X76750334Y-43534003D01*
X76750334Y-43263054D01*
X76866750Y-43295611D01*
X76866750Y-43295611D01*
G37*
X76866750Y-43295611D02*
X76963961Y-43311045D01*
X77116301Y-43322523D01*
X77294250Y-43327979D01*
X77332421Y-43328167D01*
X77492399Y-43328712D01*
X77613829Y-43330163D01*
X77676981Y-43332245D01*
X77681671Y-43333041D01*
X77658609Y-43365691D01*
X77602542Y-43438496D01*
X77597000Y-43445552D01*
X77537968Y-43530447D01*
X77511754Y-43587587D01*
X77511685Y-43588844D01*
X77490653Y-43652805D01*
X77473194Y-43684283D01*
X77433911Y-43722712D01*
X77383420Y-43694274D01*
X77372733Y-43684283D01*
X77227886Y-43557375D01*
X77130260Y-43498631D01*
X77087024Y-43498722D01*
X77065522Y-43551276D01*
X77050882Y-43662181D01*
X77046667Y-43777320D01*
X77046667Y-44030976D01*
X76898500Y-43917964D01*
X76817806Y-43851201D01*
X76773439Y-43788516D01*
X76754570Y-43701844D01*
X76750368Y-43563118D01*
X76750334Y-43534003D01*
X76750334Y-43263054D01*
X76866750Y-43295611D01*
G36*
X76809004Y-43950999D02*
X76824417Y-43950414D01*
X76968823Y-44024991D01*
X77050315Y-44080556D01*
X77084581Y-44129564D01*
X77089000Y-44160462D01*
X77072447Y-44225512D01*
X77052376Y-44238334D01*
X76981629Y-44209310D01*
X76894634Y-44140808D01*
X76821600Y-44060679D01*
X76792667Y-43998900D01*
X76809004Y-43950999D01*
X76809004Y-43950999D01*
G37*
X76809004Y-43950999D02*
X76824417Y-43950414D01*
X76968823Y-44024991D01*
X77050315Y-44080556D01*
X77084581Y-44129564D01*
X77089000Y-44160462D01*
X77072447Y-44225512D01*
X77052376Y-44238334D01*
X76981629Y-44209310D01*
X76894634Y-44140808D01*
X76821600Y-44060679D01*
X76792667Y-43998900D01*
X76809004Y-43950999D01*
G36*
X76390777Y-45849151D02*
X76474227Y-45721338D01*
X76559005Y-45592849D01*
X76603867Y-45490705D01*
X76619920Y-45377065D01*
X76618759Y-45228869D01*
X76619032Y-45064243D01*
X76637573Y-44951943D01*
X76681416Y-44860378D01*
X76709946Y-44819314D01*
X76774152Y-44709124D01*
X76800200Y-44586468D01*
X76800687Y-44461152D01*
X76800410Y-44326212D01*
X76816974Y-44257705D01*
X76854632Y-44238339D01*
X76855515Y-44238334D01*
X76907045Y-44275670D01*
X76920245Y-44354750D01*
X76928134Y-44476266D01*
X76940950Y-44555834D01*
X76923899Y-44653495D01*
X76839239Y-44780240D01*
X76831986Y-44788667D01*
X76774482Y-44857826D01*
X76737489Y-44920037D01*
X76716805Y-44995541D01*
X76708228Y-45104580D01*
X76707556Y-45267395D01*
X76708954Y-45381334D01*
X76711009Y-45611981D01*
X76711383Y-45853293D01*
X76710078Y-46066423D01*
X76708932Y-46143334D01*
X76704503Y-46298438D01*
X76697205Y-46377889D01*
X76684764Y-46390695D01*
X76664907Y-46345869D01*
X76660851Y-46333834D01*
X76641585Y-46222403D01*
X76635404Y-46066259D01*
X76640666Y-45942250D01*
X76647572Y-45805490D01*
X76644049Y-45709911D01*
X76632324Y-45677668D01*
X76590148Y-45707910D01*
X76518378Y-45784357D01*
X76481615Y-45828756D01*
X76394873Y-45928147D01*
X76350526Y-45960406D01*
X76349014Y-45931937D01*
X76390777Y-45849151D01*
X76390777Y-45849151D01*
G37*
X76390777Y-45849151D02*
X76474227Y-45721338D01*
X76559005Y-45592849D01*
X76603867Y-45490705D01*
X76619920Y-45377065D01*
X76618759Y-45228869D01*
X76619032Y-45064243D01*
X76637573Y-44951943D01*
X76681416Y-44860378D01*
X76709946Y-44819314D01*
X76774152Y-44709124D01*
X76800200Y-44586468D01*
X76800687Y-44461152D01*
X76800410Y-44326212D01*
X76816974Y-44257705D01*
X76854632Y-44238339D01*
X76855515Y-44238334D01*
X76907045Y-44275670D01*
X76920245Y-44354750D01*
X76928134Y-44476266D01*
X76940950Y-44555834D01*
X76923899Y-44653495D01*
X76839239Y-44780240D01*
X76831986Y-44788667D01*
X76774482Y-44857826D01*
X76737489Y-44920037D01*
X76716805Y-44995541D01*
X76708228Y-45104580D01*
X76707556Y-45267395D01*
X76708954Y-45381334D01*
X76711009Y-45611981D01*
X76711383Y-45853293D01*
X76710078Y-46066423D01*
X76708932Y-46143334D01*
X76704503Y-46298438D01*
X76697205Y-46377889D01*
X76684764Y-46390695D01*
X76664907Y-46345869D01*
X76660851Y-46333834D01*
X76641585Y-46222403D01*
X76635404Y-46066259D01*
X76640666Y-45942250D01*
X76647572Y-45805490D01*
X76644049Y-45709911D01*
X76632324Y-45677668D01*
X76590148Y-45707910D01*
X76518378Y-45784357D01*
X76481615Y-45828756D01*
X76394873Y-45928147D01*
X76350526Y-45960406D01*
X76349014Y-45931937D01*
X76390777Y-45849151D01*
G36*
X76644500Y-46482000D02*
X76665667Y-46503167D01*
X76644500Y-46524334D01*
X76623334Y-46503167D01*
X76644500Y-46482000D01*
X76644500Y-46482000D01*
G37*
X76644500Y-46482000D02*
X76665667Y-46503167D01*
X76644500Y-46524334D01*
X76623334Y-46503167D01*
X76644500Y-46482000D01*
G36*
X75688869Y-44304589D02*
X75730102Y-44208188D01*
X75738594Y-44192111D01*
X75789565Y-44080830D01*
X75816210Y-43992398D01*
X75817226Y-43981633D01*
X75832162Y-43945667D01*
X75886293Y-43929080D01*
X75997355Y-43928687D01*
X76083584Y-43933833D01*
X76298145Y-43957755D01*
X76431542Y-43995169D01*
X76486479Y-44047966D01*
X76465659Y-44118040D01*
X76418713Y-44168457D01*
X76321398Y-44304550D01*
X76283197Y-44466047D01*
X76310520Y-44621431D01*
X76321904Y-44644539D01*
X76367767Y-44787013D01*
X76388976Y-44995439D01*
X76390141Y-45061473D01*
X76388564Y-45193531D01*
X76383837Y-45272134D01*
X76376926Y-45282773D01*
X76375755Y-45277579D01*
X76354001Y-45229822D01*
X76329409Y-45250437D01*
X76285220Y-45261717D01*
X76197839Y-45213154D01*
X76114933Y-45148166D01*
X75988444Y-45049354D01*
X75867091Y-44965508D01*
X75813039Y-44933751D01*
X75733709Y-44883153D01*
X75719146Y-44829538D01*
X75742063Y-44767441D01*
X75766978Y-44671375D01*
X75747729Y-44560237D01*
X75725796Y-44499468D01*
X75688063Y-44386556D01*
X75688869Y-44304589D01*
X75688869Y-44304589D01*
G37*
X75688869Y-44304589D02*
X75730102Y-44208188D01*
X75738594Y-44192111D01*
X75789565Y-44080830D01*
X75816210Y-43992398D01*
X75817226Y-43981633D01*
X75832162Y-43945667D01*
X75886293Y-43929080D01*
X75997355Y-43928687D01*
X76083584Y-43933833D01*
X76298145Y-43957755D01*
X76431542Y-43995169D01*
X76486479Y-44047966D01*
X76465659Y-44118040D01*
X76418713Y-44168457D01*
X76321398Y-44304550D01*
X76283197Y-44466047D01*
X76310520Y-44621431D01*
X76321904Y-44644539D01*
X76367767Y-44787013D01*
X76388976Y-44995439D01*
X76390141Y-45061473D01*
X76388564Y-45193531D01*
X76383837Y-45272134D01*
X76376926Y-45282773D01*
X76375755Y-45277579D01*
X76354001Y-45229822D01*
X76329409Y-45250437D01*
X76285220Y-45261717D01*
X76197839Y-45213154D01*
X76114933Y-45148166D01*
X75988444Y-45049354D01*
X75867091Y-44965508D01*
X75813039Y-44933751D01*
X75733709Y-44883153D01*
X75719146Y-44829538D01*
X75742063Y-44767441D01*
X75766978Y-44671375D01*
X75747729Y-44560237D01*
X75725796Y-44499468D01*
X75688063Y-44386556D01*
X75688869Y-44304589D01*
G36*
X76340882Y-44432096D02*
X76382778Y-44336860D01*
X76390500Y-44323000D01*
X76433123Y-44254647D01*
X76449509Y-44257288D01*
X76452500Y-44304326D01*
X76428585Y-44407415D01*
X76391847Y-44473659D01*
X76345565Y-44517133D01*
X76328527Y-44497733D01*
X76340882Y-44432096D01*
X76340882Y-44432096D01*
G37*
X76340882Y-44432096D02*
X76382778Y-44336860D01*
X76390500Y-44323000D01*
X76433123Y-44254647D01*
X76449509Y-44257288D01*
X76452500Y-44304326D01*
X76428585Y-44407415D01*
X76391847Y-44473659D01*
X76345565Y-44517133D01*
X76328527Y-44497733D01*
X76340882Y-44432096D01*
G36*
X76234068Y-43623796D02*
X76263511Y-43546337D01*
X76322364Y-43441710D01*
X76380752Y-43415866D01*
X76390511Y-43418696D01*
X76444347Y-43443038D01*
X76451025Y-43449113D01*
X76434259Y-43487437D01*
X76411667Y-43539834D01*
X76384521Y-43643339D01*
X76372309Y-43762084D01*
X76358528Y-43860117D01*
X76313776Y-43897082D01*
X76284667Y-43899667D01*
X76217849Y-43866518D01*
X76200833Y-43772065D01*
X76234068Y-43623796D01*
X76234068Y-43623796D01*
G37*
X76234068Y-43623796D02*
X76263511Y-43546337D01*
X76322364Y-43441710D01*
X76380752Y-43415866D01*
X76390511Y-43418696D01*
X76444347Y-43443038D01*
X76451025Y-43449113D01*
X76434259Y-43487437D01*
X76411667Y-43539834D01*
X76384521Y-43643339D01*
X76372309Y-43762084D01*
X76358528Y-43860117D01*
X76313776Y-43897082D01*
X76284667Y-43899667D01*
X76217849Y-43866518D01*
X76200833Y-43772065D01*
X76234068Y-43623796D01*
G36*
X75466703Y-44187334D02*
X75504198Y-44072936D01*
X75543441Y-43921518D01*
X75542326Y-43778008D01*
X75524749Y-43679269D01*
X75491336Y-43516155D01*
X75486551Y-43418185D01*
X75524118Y-43368778D01*
X75617760Y-43351352D01*
X75781200Y-43349327D01*
X75797834Y-43349334D01*
X75966612Y-43350682D01*
X76062931Y-43365299D01*
X76098955Y-43409042D01*
X76086853Y-43497770D01*
X76038789Y-43647340D01*
X76035051Y-43658522D01*
X75991764Y-43777917D01*
X75952686Y-43834527D01*
X75896944Y-43846432D01*
X75829584Y-43836521D01*
X75725184Y-43830431D01*
X75694035Y-43862178D01*
X75738525Y-43929251D01*
X75739998Y-43930732D01*
X75748414Y-43992056D01*
X75716422Y-44091720D01*
X75658477Y-44203578D01*
X75589035Y-44301484D01*
X75522551Y-44359293D01*
X75499716Y-44365334D01*
X75453869Y-44350175D01*
X75442794Y-44295462D01*
X75466703Y-44187334D01*
X75466703Y-44187334D01*
G37*
X75466703Y-44187334D02*
X75504198Y-44072936D01*
X75543441Y-43921518D01*
X75542326Y-43778008D01*
X75524749Y-43679269D01*
X75491336Y-43516155D01*
X75486551Y-43418185D01*
X75524118Y-43368778D01*
X75617760Y-43351352D01*
X75781200Y-43349327D01*
X75797834Y-43349334D01*
X75966612Y-43350682D01*
X76062931Y-43365299D01*
X76098955Y-43409042D01*
X76086853Y-43497770D01*
X76038789Y-43647340D01*
X76035051Y-43658522D01*
X75991764Y-43777917D01*
X75952686Y-43834527D01*
X75896944Y-43846432D01*
X75829584Y-43836521D01*
X75725184Y-43830431D01*
X75694035Y-43862178D01*
X75738525Y-43929251D01*
X75739998Y-43930732D01*
X75748414Y-43992056D01*
X75716422Y-44091720D01*
X75658477Y-44203578D01*
X75589035Y-44301484D01*
X75522551Y-44359293D01*
X75499716Y-44365334D01*
X75453869Y-44350175D01*
X75442794Y-44295462D01*
X75466703Y-44187334D01*
G36*
X75997986Y-45181603D02*
X76023071Y-45145830D01*
X76030667Y-45148500D01*
X76068349Y-45215244D01*
X76060510Y-45315543D01*
X76030667Y-45381334D01*
X76003699Y-45402341D01*
X75991048Y-45351322D01*
X75988982Y-45283585D01*
X75997986Y-45181603D01*
X75997986Y-45181603D01*
G37*
X75997986Y-45181603D02*
X76023071Y-45145830D01*
X76030667Y-45148500D01*
X76068349Y-45215244D01*
X76060510Y-45315543D01*
X76030667Y-45381334D01*
X76003699Y-45402341D01*
X75991048Y-45351322D01*
X75988982Y-45283585D01*
X75997986Y-45181603D01*
D14*
X63290571Y-28936905D02*
X63290571Y-28136905D01*
X63595333Y-28136905D01*
X63671524Y-28175000D01*
X63709619Y-28213095D01*
X63747714Y-28289286D01*
X63747714Y-28403571D01*
X63709619Y-28479762D01*
X63671524Y-28517857D01*
X63595333Y-28555952D01*
X63290571Y-28555952D01*
X64509619Y-28936905D02*
X64052476Y-28936905D01*
X64281047Y-28936905D02*
X64281047Y-28136905D01*
X64204857Y-28251190D01*
X64128666Y-28327381D01*
X64052476Y-28365476D01*
X65271524Y-28936905D02*
X64814381Y-28936905D01*
X65042952Y-28936905D02*
X65042952Y-28136905D01*
X64966762Y-28251190D01*
X64890571Y-28327381D01*
X64814381Y-28365476D01*
D13*
X41298905Y-66492381D02*
X41298905Y-65492381D01*
X41679858Y-65492381D01*
X41775096Y-65540000D01*
X41822715Y-65587619D01*
X41870334Y-65682857D01*
X41870334Y-65825714D01*
X41822715Y-65920952D01*
X41775096Y-65968571D01*
X41679858Y-66016190D01*
X41298905Y-66016190D01*
X42822715Y-66492381D02*
X42251286Y-66492381D01*
X42537000Y-66492381D02*
X42537000Y-65492381D01*
X42441762Y-65635238D01*
X42346524Y-65730476D01*
X42251286Y-65778095D01*
X54506905Y-66492381D02*
X54506905Y-65492381D01*
X54887858Y-65492381D01*
X54983096Y-65540000D01*
X55030715Y-65587619D01*
X55078334Y-65682857D01*
X55078334Y-65825714D01*
X55030715Y-65920952D01*
X54983096Y-65968571D01*
X54887858Y-66016190D01*
X54506905Y-66016190D01*
X55459286Y-65587619D02*
X55506905Y-65540000D01*
X55602143Y-65492381D01*
X55840239Y-65492381D01*
X55935477Y-65540000D01*
X55983096Y-65587619D01*
X56030715Y-65682857D01*
X56030715Y-65778095D01*
X55983096Y-65920952D01*
X55411667Y-66492381D01*
X56030715Y-66492381D01*
X67968905Y-66619381D02*
X67968905Y-65619381D01*
X68349858Y-65619381D01*
X68445096Y-65667000D01*
X68492715Y-65714619D01*
X68540334Y-65809857D01*
X68540334Y-65952714D01*
X68492715Y-66047952D01*
X68445096Y-66095571D01*
X68349858Y-66143190D01*
X67968905Y-66143190D01*
X68873667Y-65619381D02*
X69492715Y-65619381D01*
X69159381Y-66000333D01*
X69302239Y-66000333D01*
X69397477Y-66047952D01*
X69445096Y-66095571D01*
X69492715Y-66190810D01*
X69492715Y-66428905D01*
X69445096Y-66524143D01*
X69397477Y-66571762D01*
X69302239Y-66619381D01*
X69016524Y-66619381D01*
X68921286Y-66571762D01*
X68873667Y-66524143D01*
X80668905Y-66619381D02*
X80668905Y-65619381D01*
X81049858Y-65619381D01*
X81145096Y-65667000D01*
X81192715Y-65714619D01*
X81240334Y-65809857D01*
X81240334Y-65952714D01*
X81192715Y-66047952D01*
X81145096Y-66095571D01*
X81049858Y-66143190D01*
X80668905Y-66143190D01*
X82097477Y-65952714D02*
X82097477Y-66619381D01*
X81859381Y-65571762D02*
X81621286Y-66286048D01*
X82240334Y-66286048D01*
X42894476Y-48839381D02*
X42894476Y-47839381D01*
X43275429Y-47839381D01*
X43370667Y-47887000D01*
X43418286Y-47934619D01*
X43465905Y-48029857D01*
X43465905Y-48172714D01*
X43418286Y-48267952D01*
X43370667Y-48315571D01*
X43275429Y-48363190D01*
X42894476Y-48363190D01*
X43799238Y-47839381D02*
X44037333Y-48839381D01*
X44227810Y-48125095D01*
X44418286Y-48839381D01*
X44656381Y-47839381D01*
X45608762Y-48839381D02*
X45275428Y-48363190D01*
X45037333Y-48839381D02*
X45037333Y-47839381D01*
X45418286Y-47839381D01*
X45513524Y-47887000D01*
X45561143Y-47934619D01*
X45608762Y-48029857D01*
X45608762Y-48172714D01*
X45561143Y-48267952D01*
X45513524Y-48315571D01*
X45418286Y-48363190D01*
X45037333Y-48363190D01*
X46561143Y-48839381D02*
X45989714Y-48839381D01*
X46275428Y-48839381D02*
X46275428Y-47839381D01*
X46180190Y-47982238D01*
X46084952Y-48077476D01*
X45989714Y-48125095D01*
X37171334Y-50617381D02*
X36838000Y-50141190D01*
X36599905Y-50617381D02*
X36599905Y-49617381D01*
X36980858Y-49617381D01*
X37076096Y-49665000D01*
X37123715Y-49712619D01*
X37171334Y-49807857D01*
X37171334Y-49950714D01*
X37123715Y-50045952D01*
X37076096Y-50093571D01*
X36980858Y-50141190D01*
X36599905Y-50141190D01*
X38123715Y-50617381D02*
X37552286Y-50617381D01*
X37838000Y-50617381D02*
X37838000Y-49617381D01*
X37742762Y-49760238D01*
X37647524Y-49855476D01*
X37552286Y-49903095D01*
X50379334Y-50617381D02*
X50046000Y-50141190D01*
X49807905Y-50617381D02*
X49807905Y-49617381D01*
X50188858Y-49617381D01*
X50284096Y-49665000D01*
X50331715Y-49712619D01*
X50379334Y-49807857D01*
X50379334Y-49950714D01*
X50331715Y-50045952D01*
X50284096Y-50093571D01*
X50188858Y-50141190D01*
X49807905Y-50141190D01*
X50760286Y-49712619D02*
X50807905Y-49665000D01*
X50903143Y-49617381D01*
X51141239Y-49617381D01*
X51236477Y-49665000D01*
X51284096Y-49712619D01*
X51331715Y-49807857D01*
X51331715Y-49903095D01*
X51284096Y-50045952D01*
X50712667Y-50617381D01*
X51331715Y-50617381D01*
X63587334Y-50617381D02*
X63254000Y-50141190D01*
X63015905Y-50617381D02*
X63015905Y-49617381D01*
X63396858Y-49617381D01*
X63492096Y-49665000D01*
X63539715Y-49712619D01*
X63587334Y-49807857D01*
X63587334Y-49950714D01*
X63539715Y-50045952D01*
X63492096Y-50093571D01*
X63396858Y-50141190D01*
X63015905Y-50141190D01*
X63920667Y-49617381D02*
X64539715Y-49617381D01*
X64206381Y-49998333D01*
X64349239Y-49998333D01*
X64444477Y-50045952D01*
X64492096Y-50093571D01*
X64539715Y-50188810D01*
X64539715Y-50426905D01*
X64492096Y-50522143D01*
X64444477Y-50569762D01*
X64349239Y-50617381D01*
X64063524Y-50617381D01*
X63968286Y-50569762D01*
X63920667Y-50522143D01*
X76414334Y-50617381D02*
X76081000Y-50141190D01*
X75842905Y-50617381D02*
X75842905Y-49617381D01*
X76223858Y-49617381D01*
X76319096Y-49665000D01*
X76366715Y-49712619D01*
X76414334Y-49807857D01*
X76414334Y-49950714D01*
X76366715Y-50045952D01*
X76319096Y-50093571D01*
X76223858Y-50141190D01*
X75842905Y-50141190D01*
X77271477Y-49950714D02*
X77271477Y-50617381D01*
X77033381Y-49569762D02*
X76795286Y-50284048D01*
X77414334Y-50284048D01*
X45585143Y-54554381D02*
X45251809Y-54078190D01*
X45013714Y-54554381D02*
X45013714Y-53554381D01*
X45394667Y-53554381D01*
X45489905Y-53602000D01*
X45537524Y-53649619D01*
X45585143Y-53744857D01*
X45585143Y-53887714D01*
X45537524Y-53982952D01*
X45489905Y-54030571D01*
X45394667Y-54078190D01*
X45013714Y-54078190D01*
X46537524Y-54554381D02*
X45966095Y-54554381D01*
X46251809Y-54554381D02*
X46251809Y-53554381D01*
X46156571Y-53697238D01*
X46061333Y-53792476D01*
X45966095Y-53840095D01*
X47489905Y-54554381D02*
X46918476Y-54554381D01*
X47204190Y-54554381D02*
X47204190Y-53554381D01*
X47108952Y-53697238D01*
X47013714Y-53792476D01*
X46918476Y-53840095D01*
X59047143Y-54554381D02*
X58713809Y-54078190D01*
X58475714Y-54554381D02*
X58475714Y-53554381D01*
X58856667Y-53554381D01*
X58951905Y-53602000D01*
X58999524Y-53649619D01*
X59047143Y-53744857D01*
X59047143Y-53887714D01*
X58999524Y-53982952D01*
X58951905Y-54030571D01*
X58856667Y-54078190D01*
X58475714Y-54078190D01*
X59999524Y-54554381D02*
X59428095Y-54554381D01*
X59713809Y-54554381D02*
X59713809Y-53554381D01*
X59618571Y-53697238D01*
X59523333Y-53792476D01*
X59428095Y-53840095D01*
X60380476Y-53649619D02*
X60428095Y-53602000D01*
X60523333Y-53554381D01*
X60761429Y-53554381D01*
X60856667Y-53602000D01*
X60904286Y-53649619D01*
X60951905Y-53744857D01*
X60951905Y-53840095D01*
X60904286Y-53982952D01*
X60332857Y-54554381D01*
X60951905Y-54554381D01*
X72255143Y-54554381D02*
X71921809Y-54078190D01*
X71683714Y-54554381D02*
X71683714Y-53554381D01*
X72064667Y-53554381D01*
X72159905Y-53602000D01*
X72207524Y-53649619D01*
X72255143Y-53744857D01*
X72255143Y-53887714D01*
X72207524Y-53982952D01*
X72159905Y-54030571D01*
X72064667Y-54078190D01*
X71683714Y-54078190D01*
X73207524Y-54554381D02*
X72636095Y-54554381D01*
X72921809Y-54554381D02*
X72921809Y-53554381D01*
X72826571Y-53697238D01*
X72731333Y-53792476D01*
X72636095Y-53840095D01*
X73540857Y-53554381D02*
X74159905Y-53554381D01*
X73826571Y-53935333D01*
X73969429Y-53935333D01*
X74064667Y-53982952D01*
X74112286Y-54030571D01*
X74159905Y-54125810D01*
X74159905Y-54363905D01*
X74112286Y-54459143D01*
X74064667Y-54506762D01*
X73969429Y-54554381D01*
X73683714Y-54554381D01*
X73588476Y-54506762D01*
X73540857Y-54459143D01*
X84955143Y-54554381D02*
X84621809Y-54078190D01*
X84383714Y-54554381D02*
X84383714Y-53554381D01*
X84764667Y-53554381D01*
X84859905Y-53602000D01*
X84907524Y-53649619D01*
X84955143Y-53744857D01*
X84955143Y-53887714D01*
X84907524Y-53982952D01*
X84859905Y-54030571D01*
X84764667Y-54078190D01*
X84383714Y-54078190D01*
X85907524Y-54554381D02*
X85336095Y-54554381D01*
X85621809Y-54554381D02*
X85621809Y-53554381D01*
X85526571Y-53697238D01*
X85431333Y-53792476D01*
X85336095Y-53840095D01*
X86764667Y-53887714D02*
X86764667Y-54554381D01*
X86526571Y-53506762D02*
X86288476Y-54221048D01*
X86907524Y-54221048D01*
D16*
X41461267Y-29538990D02*
X41577381Y-29577695D01*
X41770905Y-29577695D01*
X41848315Y-29538990D01*
X41887019Y-29500286D01*
X41925724Y-29422876D01*
X41925724Y-29345467D01*
X41887019Y-29268057D01*
X41848315Y-29229352D01*
X41770905Y-29190648D01*
X41616086Y-29151943D01*
X41538677Y-29113238D01*
X41499972Y-29074533D01*
X41461267Y-28997124D01*
X41461267Y-28919714D01*
X41499972Y-28842305D01*
X41538677Y-28803600D01*
X41616086Y-28764895D01*
X41809610Y-28764895D01*
X41925724Y-28803600D01*
X42196657Y-28764895D02*
X42390181Y-29577695D01*
X42545000Y-28997124D01*
X42699819Y-29577695D01*
X42893343Y-28764895D01*
X43628733Y-29577695D02*
X43164276Y-29577695D01*
X43396505Y-29577695D02*
X43396505Y-28764895D01*
X43319095Y-28881010D01*
X43241686Y-28958419D01*
X43164276Y-28997124D01*
X54796267Y-29538990D02*
X54912381Y-29577695D01*
X55105905Y-29577695D01*
X55183315Y-29538990D01*
X55222019Y-29500286D01*
X55260724Y-29422876D01*
X55260724Y-29345467D01*
X55222019Y-29268057D01*
X55183315Y-29229352D01*
X55105905Y-29190648D01*
X54951086Y-29151943D01*
X54873677Y-29113238D01*
X54834972Y-29074533D01*
X54796267Y-28997124D01*
X54796267Y-28919714D01*
X54834972Y-28842305D01*
X54873677Y-28803600D01*
X54951086Y-28764895D01*
X55144610Y-28764895D01*
X55260724Y-28803600D01*
X55531657Y-28764895D02*
X55725181Y-29577695D01*
X55880000Y-28997124D01*
X56034819Y-29577695D01*
X56228343Y-28764895D01*
X56499276Y-28842305D02*
X56537981Y-28803600D01*
X56615390Y-28764895D01*
X56808914Y-28764895D01*
X56886324Y-28803600D01*
X56925028Y-28842305D01*
X56963733Y-28919714D01*
X56963733Y-28997124D01*
X56925028Y-29113238D01*
X56460571Y-29577695D01*
X56963733Y-29577695D01*
X67496267Y-29538990D02*
X67612381Y-29577695D01*
X67805905Y-29577695D01*
X67883315Y-29538990D01*
X67922019Y-29500286D01*
X67960724Y-29422876D01*
X67960724Y-29345467D01*
X67922019Y-29268057D01*
X67883315Y-29229352D01*
X67805905Y-29190648D01*
X67651086Y-29151943D01*
X67573677Y-29113238D01*
X67534972Y-29074533D01*
X67496267Y-28997124D01*
X67496267Y-28919714D01*
X67534972Y-28842305D01*
X67573677Y-28803600D01*
X67651086Y-28764895D01*
X67844610Y-28764895D01*
X67960724Y-28803600D01*
X68231657Y-28764895D02*
X68425181Y-29577695D01*
X68580000Y-28997124D01*
X68734819Y-29577695D01*
X68928343Y-28764895D01*
X69160571Y-28764895D02*
X69663733Y-28764895D01*
X69392800Y-29074533D01*
X69508914Y-29074533D01*
X69586324Y-29113238D01*
X69625028Y-29151943D01*
X69663733Y-29229352D01*
X69663733Y-29422876D01*
X69625028Y-29500286D01*
X69586324Y-29538990D01*
X69508914Y-29577695D01*
X69276686Y-29577695D01*
X69199276Y-29538990D01*
X69160571Y-29500286D01*
X80196267Y-29538990D02*
X80312381Y-29577695D01*
X80505905Y-29577695D01*
X80583315Y-29538990D01*
X80622019Y-29500286D01*
X80660724Y-29422876D01*
X80660724Y-29345467D01*
X80622019Y-29268057D01*
X80583315Y-29229352D01*
X80505905Y-29190648D01*
X80351086Y-29151943D01*
X80273677Y-29113238D01*
X80234972Y-29074533D01*
X80196267Y-28997124D01*
X80196267Y-28919714D01*
X80234972Y-28842305D01*
X80273677Y-28803600D01*
X80351086Y-28764895D01*
X80544610Y-28764895D01*
X80660724Y-28803600D01*
X80931657Y-28764895D02*
X81125181Y-29577695D01*
X81280000Y-28997124D01*
X81434819Y-29577695D01*
X81628343Y-28764895D01*
X82286324Y-29035829D02*
X82286324Y-29577695D01*
X82092800Y-28726190D02*
X81899276Y-29306762D01*
X82402438Y-29306762D01*
D13*
X76993762Y-55157619D02*
X76898524Y-55110000D01*
X76803286Y-55014762D01*
X76660429Y-54871905D01*
X76565190Y-54824286D01*
X76469952Y-54824286D01*
X76517571Y-55062381D02*
X76422333Y-55014762D01*
X76327095Y-54919524D01*
X76279476Y-54729048D01*
X76279476Y-54395714D01*
X76327095Y-54205238D01*
X76422333Y-54110000D01*
X76517571Y-54062381D01*
X76708048Y-54062381D01*
X76803286Y-54110000D01*
X76898524Y-54205238D01*
X76946143Y-54395714D01*
X76946143Y-54729048D01*
X76898524Y-54919524D01*
X76803286Y-55014762D01*
X76708048Y-55062381D01*
X76517571Y-55062381D01*
X77803286Y-54395714D02*
X77803286Y-55062381D01*
X77565190Y-54014762D02*
X77327095Y-54729048D01*
X77946143Y-54729048D01*
X64293762Y-55157619D02*
X64198524Y-55110000D01*
X64103286Y-55014762D01*
X63960429Y-54871905D01*
X63865190Y-54824286D01*
X63769952Y-54824286D01*
X63817571Y-55062381D02*
X63722333Y-55014762D01*
X63627095Y-54919524D01*
X63579476Y-54729048D01*
X63579476Y-54395714D01*
X63627095Y-54205238D01*
X63722333Y-54110000D01*
X63817571Y-54062381D01*
X64008048Y-54062381D01*
X64103286Y-54110000D01*
X64198524Y-54205238D01*
X64246143Y-54395714D01*
X64246143Y-54729048D01*
X64198524Y-54919524D01*
X64103286Y-55014762D01*
X64008048Y-55062381D01*
X63817571Y-55062381D01*
X64579476Y-54062381D02*
X65198524Y-54062381D01*
X64865190Y-54443333D01*
X65008048Y-54443333D01*
X65103286Y-54490952D01*
X65150905Y-54538571D01*
X65198524Y-54633810D01*
X65198524Y-54871905D01*
X65150905Y-54967143D01*
X65103286Y-55014762D01*
X65008048Y-55062381D01*
X64722333Y-55062381D01*
X64627095Y-55014762D01*
X64579476Y-54967143D01*
X51085762Y-55157619D02*
X50990524Y-55110000D01*
X50895286Y-55014762D01*
X50752429Y-54871905D01*
X50657190Y-54824286D01*
X50561952Y-54824286D01*
X50609571Y-55062381D02*
X50514333Y-55014762D01*
X50419095Y-54919524D01*
X50371476Y-54729048D01*
X50371476Y-54395714D01*
X50419095Y-54205238D01*
X50514333Y-54110000D01*
X50609571Y-54062381D01*
X50800048Y-54062381D01*
X50895286Y-54110000D01*
X50990524Y-54205238D01*
X51038143Y-54395714D01*
X51038143Y-54729048D01*
X50990524Y-54919524D01*
X50895286Y-55014762D01*
X50800048Y-55062381D01*
X50609571Y-55062381D01*
X51419095Y-54157619D02*
X51466714Y-54110000D01*
X51561952Y-54062381D01*
X51800048Y-54062381D01*
X51895286Y-54110000D01*
X51942905Y-54157619D01*
X51990524Y-54252857D01*
X51990524Y-54348095D01*
X51942905Y-54490952D01*
X51371476Y-55062381D01*
X51990524Y-55062381D01*
X37623762Y-55157619D02*
X37528524Y-55110000D01*
X37433286Y-55014762D01*
X37290429Y-54871905D01*
X37195190Y-54824286D01*
X37099952Y-54824286D01*
X37147571Y-55062381D02*
X37052333Y-55014762D01*
X36957095Y-54919524D01*
X36909476Y-54729048D01*
X36909476Y-54395714D01*
X36957095Y-54205238D01*
X37052333Y-54110000D01*
X37147571Y-54062381D01*
X37338048Y-54062381D01*
X37433286Y-54110000D01*
X37528524Y-54205238D01*
X37576143Y-54395714D01*
X37576143Y-54729048D01*
X37528524Y-54919524D01*
X37433286Y-55014762D01*
X37338048Y-55062381D01*
X37147571Y-55062381D01*
X38528524Y-55062381D02*
X37957095Y-55062381D01*
X38242809Y-55062381D02*
X38242809Y-54062381D01*
X38147571Y-54205238D01*
X38052333Y-54300476D01*
X37957095Y-54348095D01*
X53887858Y-57407381D02*
X53411667Y-57407381D01*
X53411667Y-56407381D01*
X54221191Y-57026429D02*
X54983096Y-57026429D01*
X55364048Y-56407381D02*
X55602143Y-57407381D01*
X55792620Y-56693095D01*
X55983096Y-57407381D01*
X56221191Y-56407381D01*
X56554524Y-56502619D02*
X56602143Y-56455000D01*
X56697381Y-56407381D01*
X56935477Y-56407381D01*
X57030715Y-56455000D01*
X57078334Y-56502619D01*
X57125953Y-56597857D01*
X57125953Y-56693095D01*
X57078334Y-56835952D01*
X56506905Y-57407381D01*
X57125953Y-57407381D01*
X40624286Y-57407381D02*
X40148095Y-57407381D01*
X40148095Y-56407381D01*
X40957619Y-57026429D02*
X41719524Y-57026429D01*
X42767143Y-57407381D02*
X42433809Y-56931190D01*
X42195714Y-57407381D02*
X42195714Y-56407381D01*
X42576667Y-56407381D01*
X42671905Y-56455000D01*
X42719524Y-56502619D01*
X42767143Y-56597857D01*
X42767143Y-56740714D01*
X42719524Y-56835952D01*
X42671905Y-56883571D01*
X42576667Y-56931190D01*
X42195714Y-56931190D01*
X43719524Y-57407381D02*
X43148095Y-57407381D01*
X43433809Y-57407381D02*
X43433809Y-56407381D01*
X43338571Y-56550238D01*
X43243333Y-56645476D01*
X43148095Y-56693095D01*
X79994286Y-57407381D02*
X79518095Y-57407381D01*
X79518095Y-56407381D01*
X80327619Y-57026429D02*
X81089524Y-57026429D01*
X82089524Y-56455000D02*
X81994286Y-56407381D01*
X81851429Y-56407381D01*
X81708571Y-56455000D01*
X81613333Y-56550238D01*
X81565714Y-56645476D01*
X81518095Y-56835952D01*
X81518095Y-56978810D01*
X81565714Y-57169286D01*
X81613333Y-57264524D01*
X81708571Y-57359762D01*
X81851429Y-57407381D01*
X81946667Y-57407381D01*
X82089524Y-57359762D01*
X82137143Y-57312143D01*
X82137143Y-56978810D01*
X81946667Y-56978810D01*
X82994286Y-56740714D02*
X82994286Y-57407381D01*
X82756190Y-56359762D02*
X82518095Y-57074048D01*
X83137143Y-57074048D01*
X67294286Y-57407381D02*
X66818095Y-57407381D01*
X66818095Y-56407381D01*
X67627619Y-57026429D02*
X68389524Y-57026429D01*
X69199048Y-56883571D02*
X69341905Y-56931190D01*
X69389524Y-56978810D01*
X69437143Y-57074048D01*
X69437143Y-57216905D01*
X69389524Y-57312143D01*
X69341905Y-57359762D01*
X69246667Y-57407381D01*
X68865714Y-57407381D01*
X68865714Y-56407381D01*
X69199048Y-56407381D01*
X69294286Y-56455000D01*
X69341905Y-56502619D01*
X69389524Y-56597857D01*
X69389524Y-56693095D01*
X69341905Y-56788333D01*
X69294286Y-56835952D01*
X69199048Y-56883571D01*
X68865714Y-56883571D01*
X69770476Y-56407381D02*
X70389524Y-56407381D01*
X70056190Y-56788333D01*
X70199048Y-56788333D01*
X70294286Y-56835952D01*
X70341905Y-56883571D01*
X70389524Y-56978810D01*
X70389524Y-57216905D01*
X70341905Y-57312143D01*
X70294286Y-57359762D01*
X70199048Y-57407381D01*
X69913333Y-57407381D01*
X69818095Y-57359762D01*
X69770476Y-57312143D01*
M02*
